<svg xmlns="http://www.w3.org/2000/svg" viewBox="10142 2563.239 155.82 160.948"><defs><style>.a{fill:#a61c28;}</style></defs><path class="a" d="M455.837,562.993c-2.005.112-4.007.19-6.01.327a11.6,11.6,0,0,0-5.589,2.058,9.455,9.455,0,0,1-5.332,1.918,2.768,2.768,0,0,0-1.684.468,2.715,2.715,0,0,0-2.128,1.38,5.405,5.405,0,0,0-3.7.8c-.237.114-.484.218-.725.327a4.558,4.558,0,0,0-1.754.585c-.085.066-.169.127-.257.187-.147.041-.3.083-.444.117a21.25,21.25,0,0,0-7.577,3.812c-.05.036-.111.059-.164.094a12.022,12.022,0,0,0-3.672,2.315,16.357,16.357,0,0,1-3.742,2.362,6.047,6.047,0,0,0-2.2,1.8,20.831,20.831,0,0,1-3.438,3.578,63.063,63.063,0,0,0-12.4,13.8,14.092,14.092,0,0,0-.819,1.333,62.331,62.331,0,0,1-3.251,5.379c-2.723,4.367-5.579,8.664-7.39,13.541a26.04,26.04,0,0,0-1.871,8.139c-.111,2.964-.437,5.917-.8,8.864-.373,3.075.11,6.123.3,9.168a46.2,46.2,0,0,0,.725,5.964c.253,1.287.554,2.558.865,3.835a40.611,40.611,0,0,0,.491,4.888A26,26,0,0,0,385.747,668c1.386,2.622,2.579,5.338,3.742,8.069,1.215,2.85,3.151,5.248,4.841,7.788a46.307,46.307,0,0,0,3.6,4.818c1.778,2.036,3.716,3.94,5.589,5.893a1.741,1.741,0,0,0,.655.421,6.932,6.932,0,0,1,.819.374,32.432,32.432,0,0,0,5.239,4.607c.008.008.015.016.023.023.675.556,1.382,1.077,2.1,1.567a10.952,10.952,0,0,0,2.292,1.614,1.917,1.917,0,0,0,.281.094c.426.29.851.58,1.263.889,2.1.635,3.811,2.035,5.8,2.9,1.663.723,3.167,1.776,4.771,2.643a37.677,37.677,0,0,0,5.122,2.6c1.2.429,2.495.71,3.7,1.193.788.318,1.53.753,2.315,1.076a31.616,31.616,0,0,0,9.893,2.2,28.967,28.967,0,0,0,4.42.468c.665-.054.971-.292.748-1.006-.031-.1.241-.378.421-.444.4-.149.838-.179,1.24-.327.488-.182.642-1.048.211-1.31a13.009,13.009,0,0,0-2.76-1.473c-.9-.278-1.866-.236-2.643-.935-.193-.174-.687-.119-1.006-.046a1.37,1.37,0,0,1-1.427-.4,2.539,2.539,0,0,0-2.409-.725,4.265,4.265,0,0,1-3.368-1.076c-.873-.676-1.845-1.451-3.04-.491a11.2,11.2,0,0,1-2.76-.608,16.633,16.633,0,0,0-4.771-1.146,13.882,13.882,0,0,1-6.946-3.321,26.6,26.6,0,0,0-4.42-3.251,23.952,23.952,0,0,1-3.7-2.666,2.656,2.656,0,0,1-.608-.982c-.08-.247-.53-.441-.842-.538a1.931,1.931,0,0,1-.374-.164c-.016-.009-.031-.014-.047-.023-.135-.13-.263-.267-.4-.4a1.391,1.391,0,0,1-.21-.468,2.54,2.54,0,0,0-1.707-1.848,4.277,4.277,0,0,1-2.409-2.6c-.418-1.021-.87-2.2-2.386-1.964a11.234,11.234,0,0,1-2.081-1.918,9.644,9.644,0,0,0-2.011-2.1c-.505-.692-1-1.408-1.473-2.128-1.009-1.533-2.055-3.013-3.111-4.514a39.456,39.456,0,0,1-4.256-8.7c-.94-2.439-1.811-4.9-2.736-7.343a33.037,33.037,0,0,1-2.1-7.788c-.354-2.946-1-5.872-1.356-8.817-.243-1.993-.226-4-.327-6.01.04,0,.078-.021.117-.023-.038-.654-.113-1.31-.164-1.964-.007-.062.008-.125,0-.187.137-1.609.38-3.221.632-4.818.406-2.582.889-5.139,1.31-7.718a33.12,33.12,0,0,1,2.058-7.811c1.167-2.728,2.09-5.572,3.251-8.3.711-1.671,1.613-3.252,2.456-4.864.1-.163.2-.33.3-.491a.653.653,0,0,1,.07.023c.077-.153.137-.314.21-.468.456-.683.937-1.336,1.45-1.988,1.563-1.985,2.942-4.128,4.4-6.2a.961.961,0,0,0,.117-.234c.122-.343.224-.7.327-1.052a14.145,14.145,0,0,1,1.239-1.1,23.09,23.09,0,0,0,1.5-1.777q2.72-2.653,5.519-5.215a63.174,63.174,0,0,1,7.227-5.613c.309-.209.623-.406.935-.608a51.22,51.22,0,0,0,5.987-2.456c2.284-1.089,4.647-2.032,6.969-3.04.561-.244,1.1-.509,1.66-.748,1.917-.82,3.852-1.652,5.777-2.456a1.709,1.709,0,0,1,.748-.117c2.726.143,5.386-.492,8.068-.772s5.388-.375,8.092-.468,5.412-.082,8.115-.117a3.876,3.876,0,0,1,.8,0c4.512.93,9.174.908,13.611,2.268,1.93,1.007,4,1.688,5.987,2.573,2.468,1.1,4.861,2.377,7.25,3.648s4.7,2.631,7.063,3.952a3.773,3.773,0,0,1,.678.4c3.461,3.077,7.542,5.39,10.711,8.817,1.6,1.728,3.255,3.407,4.724,5.239,1.2,1.49,2.152,3.19,3.2,4.794.772,1.177,1.624,2.313,2.409,3.485q1.479,2.531,2.853,5.122c.367.69.591,1.45.889,2.175.264.643.519,1.281.8,1.918.224.519.467,1.052.7,1.567a9.285,9.285,0,0,0,.491,1.169c.05.133.119.263.164.4.471,1.4,1.275,2.618,1.661,4.093.43,1.641.834,3.282,1.169,4.935a13.659,13.659,0,0,0,.117,3.952,91.007,91.007,0,0,1,.631,16.488c-.027.781-.223,1.562-.327,2.339-.093.689-.177,1.368-.257,2.058-.13,1.123-.175,2.264-.4,3.368-.293,1.449-.2,2.9-.608,4.373a55.373,55.373,0,0,1-2.619,7.951,44.153,44.153,0,0,0-1.964,5.145,21.611,21.611,0,0,1-1.637,3.835,36.206,36.206,0,0,0-4.7,7.671,8.667,8.667,0,0,1-.912,1.24,10.251,10.251,0,0,0-1.731,2.9c-.059.262-.129.5-.211.748-.085.15-.176.291-.257.444a4.131,4.131,0,0,1-.772,1.052c-1.76,1.69-3.521,3.394-5.332,5.028-1.681,1.517-3.433,2.987-5.168,4.443a20.2,20.2,0,0,1-4.724,2.76c-3.485,1.594-7.114,2.9-10.2,5.285a8.6,8.6,0,0,1-1.4.631A10.172,10.172,0,0,0,485.258,709a9.792,9.792,0,0,1-4.7,2.689,2.183,2.183,0,0,0-1.544,1.614.9.9,0,0,0,.865,1.263,3.428,3.428,0,0,0,1.052,0c5.19-1.26,10.346-2.622,14.827-5.73a13.6,13.6,0,0,0,2.386-1.52,16.456,16.456,0,0,1,1.754-1.894c2.109-1.685,4.2-3.413,6.291-5.122a2.239,2.239,0,0,1,.631-.444,7.291,7.291,0,0,0,2.783-1.848c.039.032.061.05.094.046a.746.746,0,0,0,.7-.865c0-.016-.019-.031-.023-.046.373-.439.74-.877,1.1-1.333a8.613,8.613,0,0,1,1.357-1.169c.138-.114.277-.221.421-.327a.921.921,0,0,0,1.146.164,3.329,3.329,0,0,0,.889-.538c3.865-3.686,7.66-7.416,9.986-12.348a13.789,13.789,0,0,0,1.31-2.526,16.626,16.626,0,0,1,.585-2.526c.215-.55.42-1.108.632-1.66.955-1.884,2.223-3.63,2.409-5.823a.791.791,0,0,1,.117-.257c.307-.553.562-1.113.818-1.684a7.942,7.942,0,0,0,.678-1.59c1.265-3.362,1.94-6.927,3.064-10.337a15.32,15.32,0,0,0,.561-2.853c.352-1.512.431-3.125.655-4.677.185-1.285.251-2.585.421-4.467a5.652,5.652,0,0,0-.164-2.175c.016-.6.033-1.2.047-1.8a2.831,2.831,0,0,1,.117-.374c-.035-.1-.063-.2-.094-.3.008-.265.017-.53.023-.8a13.094,13.094,0,0,0-.468-3.7,10.079,10.079,0,0,0-.748-4.163.666.666,0,0,1-.046-.257c-.08-4.865-1.877-9.393-2.853-14.079a26.974,26.974,0,0,0-1.52-4.163c-.408-1.047-.861-2.073-1.333-3.087a4.23,4.23,0,0,0-.561-1.216c-1.232-2.511-2.614-4.959-3.952-7.414-.071-.13-.159-.247-.234-.374a7.391,7.391,0,0,0-2.058-2.853c-.966-.87-1.9-1.761-2.806-2.689a3.4,3.4,0,0,1-.655-1.123A9.258,9.258,0,0,0,516.293,589c-2.2-1.856-4.249-3.915-6.431-5.8-1.141-.985-2.273-1.989-3.391-2.994a15.579,15.579,0,0,0-.819-1.333,12.378,12.378,0,0,0-1.169-1.029,4.043,4.043,0,0,0-1.964-1.193c-.008,0-.016,0-.023,0-1.633-1.319-3.461-2.449-5.192-3.648-.783-.542-1.629-.95-2.456-1.427.025-.051.045-.114.07-.164-1.792-.906-3.575-1.831-5.379-2.713a11.514,11.514,0,0,0-5.706-1.029c-.225-.047-.448-.1-.678-.14-2.837-.506-5.634-1.26-8.466-1.8s-5.615-1.163-8.419-1.777a57.506,57.506,0,0,0-7.554-.772c-.948-.078-1.9-.023-2.853-.023,0-.057-.022-.108-.023-.164Zm1.216,10.5c-1.42.036-2.846.273-4.256.351a32.884,32.884,0,0,0-5.847,1.123c-1.925.465-3.777,1.279-5.8,1.356a4.551,4.551,0,0,0-1.076.374c-.657.208-1.331.4-1.988.608a22.305,22.305,0,0,0-2.806.935,33.067,33.067,0,0,0-6.618,4.023,4.916,4.916,0,0,1-2.081,1.263c-1.336.174-2.137,1.079-3.111,1.754-.492.339-.487.588-.117,1.146.279.42.6.709,1.123.374a10.461,10.461,0,0,1,4.748-1.894c1.22-.87,2.964-.95,3.765-2.479a.853.853,0,0,1,.7-.374c1.909.285,3.578-.692,5.309-1.146a22.968,22.968,0,0,0,5.589-1.848.94.94,0,0,1,.468-.07,17.261,17.261,0,0,0,5.122-.912,13.755,13.755,0,0,1,4.28-.631,19.8,19.8,0,0,0,3.625-.047c2.052-.194,4.1-.437,6.151-.678a15.2,15.2,0,0,1,4.3.257c.371.061.749.095,1.123.14a14.591,14.591,0,0,1,2.386.585,22,22,0,0,0,4.677,1.076,3.925,3.925,0,0,1,2.292.935,2.672,2.672,0,0,0,1.193.561c1.112.258,2.25.445,3.368.678a2.87,2.87,0,0,1,1.239.4,4.006,4.006,0,0,0,1.964,1.076,10.336,10.336,0,0,1,2.222.912,13.073,13.073,0,0,0,1.684.7,10.681,10.681,0,0,0,1.731.21,4.059,4.059,0,0,0,.608-.023v-.023c.147.084.295.174.444.257.761.423,1.487.887,2.222,1.356a2.387,2.387,0,0,0-.187.234c-.285.415-.437.808.07,1.169a10.521,10.521,0,0,1,3.531,3.719c1.264.806,2,2.378,3.719,2.549a.855.855,0,0,1,.608.514c.451,1.877,1.971,3.055,3.04,4.49a23.08,23.08,0,0,0,3.835,4.49.86.86,0,0,1,.21.4,17.4,17.4,0,0,0,2.783,4.42,13.849,13.849,0,0,1,2.2,3.742,19.751,19.751,0,0,0,1.38,3.344c.948,1.83,1.934,3.641,2.923,5.449a15.236,15.236,0,0,1,1.38,4.093c.419,1.864,1.081,3.669,1.661,5.5.6,1.883.479,3.944,1.427,5.753.178.34-.011.868-.046,1.31-.027.347.064.656.444.608a1.517,1.517,0,0,0,.7-.468.311.311,0,0,0,.07-.187,11.339,11.339,0,0,1,.234,2.69.788.788,0,0,0,0,.234.531.531,0,0,0-.561-.14.832.832,0,0,0-.514.585,18.2,18.2,0,0,1-.07,2.97,4.784,4.784,0,0,0,0,2.853,1.257,1.257,0,0,1-.094.889,9.626,9.626,0,0,0-.842,3.3c-.205,1.65-.578,3.271-.865,4.911-.219,1.249-.423,2.515-.631,3.765-.594,1.7-1.215,3.39-1.777,5.1a6.5,6.5,0,0,1-.468,1.052c-1.65,3.023-3.194,6.1-5.1,8.981a19.308,19.308,0,0,0-1.076,1.777,17.563,17.563,0,0,1-2.806,3.882c-1.146,1.238-2.351,2.433-3.438,3.718a44.9,44.9,0,0,1-7.811,7.086,16.782,16.782,0,0,1-2.362,1.8c-2.338,1.135-4.2,3.052-6.665,3.976a8.558,8.558,0,0,0-1.918,1.24,5.669,5.669,0,0,1-2.643,1.263,6.836,6.836,0,0,0-2.081.912c-.481.25-.755.918-.491,1.123a2.248,2.248,0,0,0,.561.327.733.733,0,0,0-.164.444c.022.153.261.276.4.4a3.383,3.383,0,0,0,1.193-.21,9.291,9.291,0,0,1,3.438-1.1,5.827,5.827,0,0,0,1.473-.608c1.25-.653,2.5-1.294,3.742-1.964a9.631,9.631,0,0,0,2.923-1.731c.551-.381,1.091-.777,1.614-1.193.241-.192.464-.411.7-.608a21.721,21.721,0,0,0,5.566-3.882c1.343-1.136,2.605-2.382,4.023-3.414a17.127,17.127,0,0,0,4-4.373,8.791,8.791,0,0,1,.889-1.333,21.327,21.327,0,0,0,4.724-6.712c.15-.349.4-.646.585-.982a43.417,43.417,0,0,0,3.719-7.694,54.584,54.584,0,0,0,2.806-9.168,7.484,7.484,0,0,0,.421-2.923,4.082,4.082,0,0,1,.351-2.619,4.477,4.477,0,0,0,.351-2.923,4,4,0,0,1,.164-2.456,2.823,2.823,0,0,0-.327-2.853.527.527,0,0,0-.374-.187.425.425,0,0,0-.327.211c-.032.064-.066.14-.094.21a3.216,3.216,0,0,1,.117-1.871,2.83,2.83,0,0,0-.047-1.356.857.857,0,0,0-.023-.14.724.724,0,0,0,.351.327c.15.037.35-.152.514-.234a3.248,3.248,0,0,0,.234-1.169,9.289,9.289,0,0,1,.281-3.6,5.814,5.814,0,0,0-.023-1.59c-.2-2.056-.373-4.128-.655-6.174a22.823,22.823,0,0,0-.772-3.344q-.587-1.982-1.333-3.906c-.356-.918-.884-1.779-1.263-2.689-.406-.976-.739-1.975-1.1-2.97a7.178,7.178,0,0,0-.515-1.5c-.79-1.211-1.861-2.272-2.152-3.765-1.279-1.25-1.723-3.007-2.736-4.42-.11-.154-.32-.217-.491-.327-.046.1-.123.2-.187.3-.355-.5-.7-1-1.052-1.5-1.152-1.611-2.609-2.994-3.438-4.841a4.571,4.571,0,0,0-.725-.889c-.438-.531-.871-1.082-1.31-1.614a22.246,22.246,0,0,0-1.918-2.245,33.161,33.161,0,0,0-6.221-4.631,7.242,7.242,0,0,1-1.684-1.123c.772.476,1.539.956,2.315,1.427a1.035,1.035,0,0,0,.421.047c.018-.074.075-.191.047-.234a6.641,6.641,0,0,0-2.222-2.549c-1.977-.988-3.275-2.99-5.473-3.648a1.757,1.757,0,0,1-.8-.772c-.944-1.462-3.093-.847-4.023-2.339-.093-.149-.413-.179-.632-.234a2.928,2.928,0,0,0-.444-.023,3.993,3.993,0,0,1-2.526-.935,2.786,2.786,0,0,0-1.263-.468.646.646,0,0,0-.865.515,6.161,6.161,0,0,1-1.918-1.169,1.191,1.191,0,0,0-.631-.234c-.043-.021-.079-.048-.117-.07-1.182-.685-2.37-1.374-3.555-2.058-.017.03-.029.064-.046.094-.425-.171-.853-.365-1.286-.515a73.219,73.219,0,0,0-7.9-1.169c-.613.005-1.214-.005-1.824-.047a30.7,30.7,0,0,0-6.174-.117,3.236,3.236,0,0,1-1.146-.07,9.81,9.81,0,0,0-2.549-.234Zm10.033,12.021a2.692,2.692,0,0,0-1.333.327,3.148,3.148,0,0,0-1.52,2.479,3.878,3.878,0,0,0,.187,1.848,7.438,7.438,0,0,0,1.146,1.824c.663.817,1.142,1.439,1.473,1.848a2.344,2.344,0,0,1,.515,1.66,1.56,1.56,0,0,1-.3.819,1.187,1.187,0,0,1-1.076.491,1.009,1.009,0,0,1-.748-.468,2.788,2.788,0,0,1-.374-1.684l-1.848-.094a5.014,5.014,0,0,0,.187,1.848,3.187,3.187,0,0,0,.819,1.38,2.986,2.986,0,0,0,1.777.8,3.737,3.737,0,0,0,1.1,0,2.471,2.471,0,0,0,1.427-.725,3.58,3.58,0,0,0,.982-2.175,3.505,3.505,0,0,0-.117-1.263,5.262,5.262,0,0,0-.21-.631,6.565,6.565,0,0,0-.912-1.544,11.252,11.252,0,0,0-.772-.912,6.458,6.458,0,0,1-.748-.912,2.813,2.813,0,0,1-.515-1.871,1.855,1.855,0,0,1,.351-.912.881.881,0,0,1,.865-.351.9.9,0,0,1,.7.4,2.258,2.258,0,0,1,.3,1.286l1.871-.094a3.677,3.677,0,0,0-.234-1.52,2.661,2.661,0,0,0-.772-1.123,3.309,3.309,0,0,0-1.707-.678,3.855,3.855,0,0,0-.514-.047Zm-12.325.678-2.619.444-.187,9.355-3.3-8.77-2.736.444,2.128,12.676,1.894-.327-1.333-7.928,3.181,7.624,1.544-.257.3-8.232L455,599.172l1.894-.327-2.128-12.652Zm3.859.234.047,12.839,1.918-.023-.023-12.816h-1.941Zm-37.068.912a1.219,1.219,0,0,0-.327.023c-.347.084-.667.235-1.006.351a3.347,3.347,0,0,0,1.006.3c.23,0,.457-.276.678-.444.025-.021-.007-.208-.023-.21-.107-.008-.219-.018-.327-.023Zm-1.356.374c-.028.1-.064.186-.094.281-1.271.828-2.69,1.458-3.555,2.83a5.481,5.481,0,0,1-1.848,1.66c-1.233.764-2.032,2.064-3.274,2.853a2.579,2.579,0,0,0-.421.234c-.047.023-.092.048-.14.07a1.284,1.284,0,0,0-.491.538c-.021.025-.051.045-.07.07-.561.719-1.128,1.433-1.661,2.175-1.223,1.514-2.247,3.173-3.321,4.794-.1.131-.186.265-.281.4a1.129,1.129,0,0,0-.07.14c-.523.772-1.066,1.524-1.66,2.245a6.7,6.7,0,0,0-.655,1.31,4.527,4.527,0,0,0-.374.982.976.976,0,0,0,.21.8,1.132,1.132,0,0,0,.842.07,2.32,2.32,0,0,0,1.427-1.076,24.727,24.727,0,0,1,2.081-3.017,22.082,22.082,0,0,0,2.736-3.952,3.891,3.891,0,0,1,1.707-1.777,2.7,2.7,0,0,0,.982-.889c.656-.935,1.236-1.927,1.871-2.877a2.883,2.883,0,0,1,.865-.982,4.016,4.016,0,0,0,1.731-1.427,10.322,10.322,0,0,1,1.684-1.707,12.978,12.978,0,0,0,1.263-1.31,10.95,10.95,0,0,0,.865-1.544,3.445,3.445,0,0,0,.187-.538,4.83,4.83,0,0,0-.491-.094c-.014-.084-.037-.175-.046-.257Zm55.661.374a2.545,2.545,0,0,0-.889.14A3.156,3.156,0,0,0,473,590.379a3.859,3.859,0,0,0-.14,1.848,7.324,7.324,0,0,0,.772,2.011c.5.926.873,1.618,1.123,2.081a2.347,2.347,0,0,1,.187,1.731,1.559,1.559,0,0,1-.444.748,1.224,1.224,0,0,1-1.169.281,1.033,1.033,0,0,1-.655-.608,2.738,2.738,0,0,1-.046-1.707l-1.8-.468a5.1,5.1,0,0,0-.164,1.871,3.153,3.153,0,0,0,.561,1.5,2.98,2.98,0,0,0,1.59,1.123,3.718,3.718,0,0,0,1.076.21,2.489,2.489,0,0,0,1.544-.444,3.623,3.623,0,0,0,1.38-1.964,3.579,3.579,0,0,0,.117-1.263,5.321,5.321,0,0,0-.094-.655,6.7,6.7,0,0,0-.608-1.707,11.223,11.223,0,0,0-.585-1.029,6.451,6.451,0,0,1-.561-1.029,2.841,2.841,0,0,1-.164-1.941,1.8,1.8,0,0,1,.515-.819.885.885,0,0,1,.912-.21.973.973,0,0,1,.631.561,2.154,2.154,0,0,1,.046,1.286l1.848.281a3.728,3.728,0,0,0,.07-1.544,2.731,2.731,0,0,0-.561-1.263,3.282,3.282,0,0,0-1.544-.982,3.444,3.444,0,0,0-.982-.187Zm-38.05,1.848a3.926,3.926,0,0,0-1.357.374l-2.783,1.263,5.285,11.67,1.754-.8-1.988-4.4,1.029-.468a1.156,1.156,0,0,0,.14-.07l3.064,3.929,1.918-.865-3.625-4.514a3,3,0,0,0,0-2.526l-.772-1.684a3.238,3.238,0,0,0-1.5-1.707,2.348,2.348,0,0,0-1.169-.211Zm45.885,1.543-5.636,11.506,1.754.842,5.636-11.506Zm-45.908.468c.435-.044.752.193.982.7l.772,1.707a1.064,1.064,0,0,1,.047.842,1.087,1.087,0,0,1-.585.631l-1.076.468-1.684-3.742,1.076-.468a1.526,1.526,0,0,1,.468-.14Zm51.9,2.222a2.275,2.275,0,0,0-.3.047,2.969,2.969,0,0,0-1.965,1.31l-3.882,5.823a3.015,3.015,0,0,0-.468,2.315,2.918,2.918,0,0,0,1.31,1.941,3,3,0,0,0,2.315.468,2.922,2.922,0,0,0,1.941-1.31l3.882-5.823a3,3,0,0,0,.468-2.315,3.076,3.076,0,0,0-2.993-2.456C489.882,594.168,489.779,594.162,489.678,594.168Zm-59.052,1.59-1.661,1.146,5.66,8.115a1.055,1.055,0,0,1,.187.819,1.077,1.077,0,0,1-.444.725,1.11,1.11,0,0,1-.842.187,1.044,1.044,0,0,1-.7-.468l-5.683-8.115-1.544,1.1,5.683,8.115a3.068,3.068,0,0,0,4.256.772,3.091,3.091,0,0,0,.772-4.28Zm59.309.3a1.061,1.061,0,0,1,.608.187,1.092,1.092,0,0,1,.491.7,1.033,1.033,0,0,1-.164.819l-3.906,5.847a1.057,1.057,0,0,1-.7.468,1.036,1.036,0,0,1-.819-.164,1.1,1.1,0,0,1-.491-.7,1.02,1.02,0,0,1,.164-.819L489,596.553a1.091,1.091,0,0,1,.725-.468A1.079,1.079,0,0,1,489.935,596.062Zm7.414,3.952-8.957,9.191,1.38,1.356,5.753-5.893-3.835,7.741,1.5,1.45,8.957-9.191-1.4-1.333-6.01,6.151,4.186-7.952Zm16.745,1.286a.727.727,0,0,0-.187.023,3.123,3.123,0,0,0-.023.374c.068-.011.21,0,.21-.023a2.246,2.246,0,0,0,0-.374Zm-92.378.515a2.963,2.963,0,0,0-2.175.912,2.93,2.93,0,0,0-.889,2.152,2.962,2.962,0,0,0,.912,2.175l4.981,4.935a3.059,3.059,0,1,0,4.3-4.35l-4.958-4.935a2.971,2.971,0,0,0-2.175-.889Zm93.2.959c-.05.044-.148.1-.14.117.122.229.264.454.4.678.052-.042.111-.094.257-.211C515.259,603.156,515.079,602.975,514.912,602.774Zm-93.243,1.006a1.046,1.046,0,0,1,.772.327l4.981,4.958a1.047,1.047,0,0,1,.327.772,1.1,1.1,0,0,1-.327.8,1.054,1.054,0,0,1-.772.327,1.083,1.083,0,0,1-.8-.327l-4.981-4.935a1.123,1.123,0,0,1,.8-1.918Zm-19.364,6.1-.14.047.117.07.023-.117Zm-.889,1.1c-.131.039-.336.072-.374.164-.177.419-.308.852-.608,1.731-.224.391-.7,1.158-1.123,1.964a12.122,12.122,0,0,0-.7,1.66c-.149.43-.138.912-.3,1.333-.839,2.129-1.258,4.393-2.175,6.5a12.223,12.223,0,0,0-.959,3.3c-.246,1.964-.278,3.963-.421,5.94a11.953,11.953,0,0,1-.211,1.333,20.108,20.108,0,0,0,.164,5.449.245.245,0,0,0,.187.117c.127-.023.326-.061.351-.14a8.24,8.24,0,0,0,.468-1.754c.125-1.519.207-3.037.211-4.56a6.083,6.083,0,0,1,.374-2.222,5.791,5.791,0,0,0,.468-3.321,4.639,4.639,0,0,1,.515-3.11,8.428,8.428,0,0,0,.772-2.409,20.091,20.091,0,0,1,2.806-6.946,4.177,4.177,0,0,0,.608-2.385,8.735,8.735,0,0,1,.047-2.5c.01-.041-.076-.146-.094-.14Zm81.737,4.631a16.929,16.929,0,0,1-2.2,4.023,48.037,48.037,0,0,1-4.35,5.052,53.455,53.455,0,0,1-7.975,6.759,41.452,41.452,0,0,1-8.747,4.771,11.285,11.285,0,0,1,2.175,1.707,12.4,12.4,0,0,1,1.684,2.081q6.445-4.3,11.155-8.022v4.3c1.448-.187,3.029-.318,4.724-.374s3.884-.076,6.6-.07,4.95.014,6.665.07a46.664,46.664,0,0,1,4.654.374v-4.4c1.565.916,3.381,1.839,5.426,2.783s4.184,1.852,6.408,2.713a14.011,14.011,0,0,1,.935-3.485,9.5,9.5,0,0,1,1.59-2.409,59.519,59.519,0,0,1-7.273-1.8,40.091,40.091,0,0,1-5.473-2.152,32.208,32.208,0,0,1-6.1-4.069,28.378,28.378,0,0,1-4.56-4.607,1.435,1.435,0,0,1,.327-.187c.116-.045.238-.112.374-.164.8-.281,1.172-.53,1.123-.748s-.523-.356-1.4-.444a15.733,15.733,0,0,1-2.97-.678,22.367,22.367,0,0,1-2.783-1.029ZM434.6,617.04c.114.634.237,1.523.351,2.666s.2,2.354.257,3.648c-2.957-.026-5.575-.076-7.858-.164s-4.309-.21-6.057-.374v4.771c1.751-.164,3.806-.286,6.127-.374s4.964-.137,7.952-.164c.025,1.019.036,2,.046,2.947s.046,1.859.07,2.713c-2.8-.027-5.254-.081-7.343-.164s-3.858-.19-5.309-.327c.138,1.048.251,2.172.327,3.391s.116,2.509.117,3.859c0,1.459-.04,2.851-.117,4.186s-.189,2.6-.327,3.789q2.208-.166,5.262-.281t7.156-.164a30.3,30.3,0,0,1-.725,5.215,9.194,9.194,0,0,1-1.357,3.087,20,20,0,0,1-3.391-2.877,17.264,17.264,0,0,1-2.549-3.438l-3.344,2.245A33.349,33.349,0,0,0,427.025,655a31.754,31.754,0,0,0,3.578,3.157,23.84,23.84,0,0,1-5.285,3.414A34.855,34.855,0,0,1,419,663.86a12.168,12.168,0,0,1,2.222,1.754,9.552,9.552,0,0,1,1.5,1.988,41.257,41.257,0,0,0,6.268-3.064,30.259,30.259,0,0,0,5.332-4.023,40.175,40.175,0,0,0,8.513,3.3,76.225,76.225,0,0,0,10.852,2.035,12.206,12.206,0,0,1,.678-2.783,15.256,15.256,0,0,1,1.567-3.04,46.5,46.5,0,0,1-10.337-.257,33.456,33.456,0,0,1-8.677-2.385,13.38,13.38,0,0,0,1.707-4.023A35.435,35.435,0,0,0,439.56,647c2.98.025,5.529.074,7.671.14s3.953.169,5.449.3c-.142-1.125-.24-2.418-.327-3.859s-.116-2.9-.094-4.35c0-1.334.04-2.595.117-3.812s.165-2.282.3-3.2c-1.565.137-3.357.245-5.4.327s-4.507.136-7.39.164q-.082-2.625-.164-5.66c3.175.026,5.967.076,8.373.164s4.491.21,6.291.374v-4.771c-1.8.164-3.887.286-6.291.374s-5.2.137-8.373.164a23.22,23.22,0,0,1,.327-3.181,2.937,2.937,0,0,1,.608-1.59c.466-.339.661-.636.585-.865s-.423-.342-1.029-.351c-1.165.028-2.181.008-3.064-.047a24.278,24.278,0,0,1-2.549-.281Zm-20.066.889c-.277,1.751-.624,3.548-1.052,5.4s-.921,3.632-1.473,5.356a40.722,40.722,0,0,1-2.783,6.712,34.374,34.374,0,0,1-3.976,5.823,13.278,13.278,0,0,1,1.848,1.684,14,14,0,0,1,1.567,2.011q1.1-1.668,2.058-3.391c.639-1.146,1.269-2.406,1.894-3.765V656.33c0,1.862-.048,3.649-.164,5.332s-.315,3.485-.561,5.4h5V627.377c.967-2.416,1.684-4.067,2.128-4.958s.762-1.374.959-1.427c.6-.334.906-.613.912-.865s-.287-.447-.865-.561c-.93-.192-1.834-.427-2.736-.7s-1.83-.578-2.76-.935Zm71.306,3.672a31.287,31.287,0,0,0,4.444,4.864,55.737,55.737,0,0,0,6.665,5.028c-1.333.11-2.885.2-4.631.257s-3.782.07-6.1.07-4.325-.033-6.034-.094-3.252-.144-4.631-.281c2.332-1.836,4.358-3.569,6.057-5.192a39.87,39.87,0,0,0,4.233-4.654Zm-58.374,14.57h8.022c.009,2.8-.024,5.216-.07,7.25h-7.952v-7.25Zm12.418,0h8.022v7.25h-8.139c.052-1.044.082-2.158.094-3.368s.025-2.508.023-3.882Zm47.592,4.069a15.653,15.653,0,0,1,.14,1.614c.028.7.023,1.436.023,2.175v15.014c0,1.628-.008,3.142-.046,4.537s-.1,2.939-.21,4.677h4.724V644.309h8.3v10.664a2.213,2.213,0,0,1-1.193,2.409c-.847.372-2.512.431-4.981.164a24.113,24.113,0,0,1,1.66,2.9,7.545,7.545,0,0,1,.7,2.268c3.687-.164,6.02-.735,6.993-1.731s1.4-2.577,1.263-4.747V644.028a21.183,21.183,0,0,1,.14-2.269,12.09,12.09,0,0,1,.234-1.52c-1.122.055-2.422.089-3.929.117s-3.245.046-5.192.046c-2.046,0-3.717-.019-5.028-.046s-2.518-.062-3.6-.117Zm-20.838.164a16.042,16.042,0,0,1,.164,1.824c.017.657.026,1.463.023,2.409v13.026c0,1.267-.033,2.463-.094,3.578s-.168,2.288-.3,3.555h4.4v-6.431h8.139v3.976h4.28c-.136-1.221-.22-2.426-.281-3.578s-.095-2.349-.094-3.625v-10.5c0-1.056.019-1.915.046-2.573s.063-1.209.117-1.661c-.6.081-1.447.13-2.526.164s-2.934.048-5.566.046q-3.884,0-5.613-.046c-1.154-.033-2.052-.082-2.69-.164Zm-71.517,3.672c-.1.1-.281.169-.3.281-.323,1.548.3,3,.514,4.49a35.7,35.7,0,0,0,1.052,4.186.41.41,0,0,0,.327.234.484.484,0,0,0,.3-.3,1.535,1.535,0,0,0,.023-.655c-.184-.976-.407-1.947-.585-2.923a3.887,3.887,0,0,1-.14-1.544c.358-1.435-.445-2.5-1.006-3.648-.029-.059-.123-.074-.187-.117Zm75.7.327h8.139v10.29h-8.139ZM397,655.184a2.205,2.205,0,0,0-.234.608c-.053.36-.049.711-.07,1.076a3.578,3.578,0,0,0,.678-.842c.087-.213-.091-.527-.164-.8-.01-.032-.2-.064-.21-.046Zm.327,2.2-.046.046c.008.008.015.016.023.023,0-.023.022-.049.023-.07Zm-.023.07c-.033.215-.114.464-.023.585a3.181,3.181,0,0,1,.748,2.1,3.542,3.542,0,0,0,.327,1.333c.364.94.772,1.869,1.146,2.806-.148-.142-.315-.267-.468-.4a.7.7,0,0,0-.585-.164c-.176.077-.3.336-.374.538a3.02,3.02,0,0,0-.117.678,2.012,2.012,0,0,0,.585,1.894,4.659,4.659,0,0,1,1.216,2.175,6.144,6.144,0,0,0,1.076,1.707.817.817,0,0,0,.982.094c.292.491.593.98.912,1.45-.044.023-.07.044-.117.07a7.7,7.7,0,0,0-.8.468c-.108.08-.14.268-.281.514a5.836,5.836,0,0,0,.725,1.286c.562.613,1.076,1.271,1.59,1.918.47.592,1.3.93,1.848,1.544.148.165.483.227.538.4a7.855,7.855,0,0,0,.468,1.731c.329.52,1.218.767,1.38,1.286.425,1.371,1.627,1.941,2.456,2.9a.5.5,0,0,0,.444.023.465.465,0,0,0,.21-.374,4.319,4.319,0,0,0-.421-1.5c-.664-1.006-1.526-1.908-2.175-2.923-.488-.763-1.075-1.466-1.544-2.245a1.046,1.046,0,0,0-.07-.912,6.141,6.141,0,0,0-.631-.935c-.013-.08-.038-.152-.046-.234a1.344,1.344,0,0,0-.585-.935,2.058,2.058,0,0,1-.585-.421l-.046-.046a6.517,6.517,0,0,1-.889-2.526,2.7,2.7,0,0,0-.211-.865c-.72-1.415-1.489-2.789-2.2-4.21-.576-1.15-1.133-2.326-1.637-3.508-.639-1.5-.856-3.189-1.894-4.514a5.615,5.615,0,0,0-.959-.8Zm44.6,20.253a2.994,2.994,0,0,0-2.175.912,2.943,2.943,0,0,0-.889,2.175v6.993a3.064,3.064,0,0,0,6.127,0v-1.777h-2.011v1.754a1.083,1.083,0,0,1-.327.8,1.1,1.1,0,0,1-.8.327,1.045,1.045,0,0,1-.772-.327,1.1,1.1,0,0,1-.327-.8v-7.016a1.1,1.1,0,0,1,.327-.8,1.033,1.033,0,0,1,.772-.327,1.118,1.118,0,0,1,1.123,1.123v1.5h2.011v-1.45a3.074,3.074,0,0,0-3.064-3.087Zm33.046.538L472.77,691.06h2.011l.468-2.947h2.011l.468,2.947h2.035l-2.152-12.816Zm-19.06.748v12.816h1.941v-5.426h2.315v5.426h1.941V678.992h-1.941v5.449h-2.315v-5.449Zm-5.589.21a2.923,2.923,0,0,0-1.8.538,3.156,3.156,0,0,0-1.169,2.666,3.843,3.843,0,0,0,.421,1.8,7.461,7.461,0,0,0,1.38,1.661c.764.723,1.325,1.275,1.707,1.637a2.364,2.364,0,0,1,.725,1.59,1.527,1.527,0,0,1-.187.842,1.2,1.2,0,0,1-1.006.631,1.049,1.049,0,0,1-.819-.374,2.768,2.768,0,0,1-.585-1.614l-1.848.14a5.1,5.1,0,0,0,.421,1.824,3.138,3.138,0,0,0,1.006,1.239,3,3,0,0,0,1.871.561,3.645,3.645,0,0,0,1.076-.14,2.514,2.514,0,0,0,1.333-.912,3.609,3.609,0,0,0,.7-2.292,3.46,3.46,0,0,0-.281-1.216,5.689,5.689,0,0,0-.3-.608,6.608,6.608,0,0,0-1.1-1.427c-.144-.15-.462-.4-.912-.772a6.08,6.08,0,0,1-.842-.819,2.872,2.872,0,0,1-.772-1.8,1.8,1.8,0,0,1,.234-.935,1,1,0,0,1,1.567-.164,2.277,2.277,0,0,1,.468,1.24l1.848-.351a3.657,3.657,0,0,0-.421-1.473,2.689,2.689,0,0,0-.935-1.006A3.3,3.3,0,0,0,450.295,679.2Zm14.149.211v12.839h3.6a2.774,2.774,0,0,0,1.45-.468,2.709,2.709,0,0,0,1.006-1.052,4.34,4.34,0,0,0,.468-2.081,5.1,5.1,0,0,0-.07-.889,3.75,3.75,0,0,0-.444-1.263,2.226,2.226,0,0,0-1.1-.959,2,2,0,0,0,.678-.514,2.994,2.994,0,0,0,.7-2.058,4.434,4.434,0,0,0-.187-1.356,2.821,2.821,0,0,0-1.123-1.59,3.74,3.74,0,0,0-2.081-.608h-2.9Zm11.81,1.754.725,5.075h-1.427l.7-5.075Zm-9.706.211h.8a1.23,1.23,0,0,1,.935.374,1.716,1.716,0,0,1,.4,1.216,2.415,2.415,0,0,1-.117.8,1.2,1.2,0,0,1-1.216.889h-.8Zm-54.211,3.04c-.243-.008-.446.05-.491.21a1.655,1.655,0,0,0,0,1.1,2.275,2.275,0,0,0,.959.865,2.633,2.633,0,0,1,1.473,1.333c.183.427.757.723,1.193,1.006.353.229.643.443.421.889-.433.866-.039,1.444.608,1.988s1.228,1.125,1.848,1.684c1.127,1.015,2.132,2.244,3.835,2.339a1.175,1.175,0,0,1,.748.444c1.678,2.108,4.037,3.254,6.338,4.467,1.556.82,3.189,1.528,4.677,2.456a17.088,17.088,0,0,0,5.543,2.081,8.751,8.751,0,0,1,1.567.3,21.359,21.359,0,0,0,8,1.871c.38.008.766.144,1.146.187a43.254,43.254,0,0,0,8.513.561,54.751,54.751,0,0,0,9.565-.842,7.523,7.523,0,0,0,2.877-.7,4.029,4.029,0,0,1,2.549-.631,4.53,4.53,0,0,0,2.853-.8,3.93,3.93,0,0,1,2.315-.772A2.815,2.815,0,0,0,481.4,703.1a.539.539,0,0,0,.046-.421.323.323,0,0,0-.046-.07,10.729,10.729,0,0,1,1.31-.585c.094-.032.179-.272.164-.4s-.127-.333-.234-.351a8.569,8.569,0,0,0-1.193-.187,1.518,1.518,0,0,0-.374.023c-1.182.239-2.324.691-3.508.912-1.607.3-3.18,1-4.888.515a1.319,1.319,0,0,0-1.076.187,3.056,3.056,0,0,1-2.1.7c-.748.048-.953.386-.912,1.123-.61.058-1.213.1-1.824.14a.6.6,0,0,0-.14-.14,2.119,2.119,0,0,0-1.193-.561c-1.589.1-3.168.3-4.748.514a4.189,4.189,0,0,0-1.286.491c-.018.009-.029.034-.046.046-.238-.008-.466-.019-.7-.046-3.42-.4-6.86-.669-10.243-1.356a19.086,19.086,0,0,0-2.035-.351,17.676,17.676,0,0,1-4.677-1.123c-1.576-.6-3.125-1.274-4.724-1.8a44.7,44.7,0,0,1-9.472-4.584,17,17,0,0,1-2.573-1.52c-1.928-1.743-4.394-2.762-6.174-4.7a8.561,8.561,0,0,0-1.871-1.31,5.738,5.738,0,0,1-2.175-1.988,6.782,6.782,0,0,0-1.614-1.59,1.236,1.236,0,0,0-.748-.257Zm54.211,2.081h.8a1.346,1.346,0,0,1,1.1.444,2.435,2.435,0,0,1,.4,1.567,2.2,2.2,0,0,1-.14.8,1.382,1.382,0,0,1-1.356,1.029h-.8Zm3.227,27.76a2.886,2.886,0,0,0-.3.234c.049.069.093.143.14.21.108-.1.219-.206.327-.3A.708.708,0,0,0,469.776,714.259Zm5.192,0c-.362.086-.705.183-1.123.281.084.376.064.717.187.772a.734.734,0,0,0,1.029-.4C475.14,714.745,475.005,714.483,474.968,714.259Zm-14.57.561c-.747-.015-.835.125-.538.818.124.288.157.624.281.912a.5.5,0,0,0,.374.257.546.546,0,0,0,.374-.234,10.1,10.1,0,0,0,.538-.889c.241-.431.025-.8-.514-.865A4.066,4.066,0,0,0,460.4,714.821Zm3.812.187c-.011.075-.046.148-.023.21s.106.081.164.117c.04-.061.076-.126.117-.187-.087-.05-.171-.091-.257-.14Zm-8.466,1.193c-.067-.021-.2.166-.3.257.127.082.248.175.374.257.128-.064.248-.145.374-.21a1.762,1.762,0,0,0-.444-.3Zm-5.613,7.484c-.047.012-.081.106-.117.164.058.034.106.059.164.094.035-.058.082-.106.117-.164C450.238,723.742,450.177,723.673,450.131,723.684Z" transform="translate(9761.231 2000.246)"/></svg>