<?xml version="1.0" encoding="UTF-8" standalone="no"?>
<!-- Created with Inkscape (http://www.inkscape.org/) -->

<svg
   xmlns:dc="http://purl.org/dc/elements/1.1/"
   xmlns:cc="http://creativecommons.org/ns#"
   xmlns:rdf="http://www.w3.org/1999/02/22-rdf-syntax-ns#"
   xmlns:svg="http://www.w3.org/2000/svg"
   xmlns="http://www.w3.org/2000/svg"
   xmlns:sodipodi="http://sodipodi.sourceforge.net/DTD/sodipodi-0.dtd"
   xmlns:inkscape="http://www.inkscape.org/namespaces/inkscape"
   width="158.30489"
   height="37.656143"
   id="svg3797"
   version="1.1"
   inkscape:version="0.48.5 r10040"
   sodipodi:docname="society-label.svg">
  <defs
     id="defs3799">
    <path
       sodipodi:type="arc"
       style="fill:none;stroke:none"
       id="path3011"
       sodipodi:cx="613.57141"
       sodipodi:cy="34.505039"
       sodipodi:rx="58.92857"
       sodipodi:ry="58.92857"
       d="m 672.49998,34.505039 a 58.92857,58.92857 0 1 1 -117.85714,0 58.92857,58.92857 0 1 1 117.85714,0 z"
       transform="matrix(0,2.1636364,-2.1636364,0,740.37063,-1088.3976)" />
    <path
       sodipodi:type="arc"
       style="fill:none;stroke:none"
       id="path3011-6"
       sodipodi:cx="613.57141"
       sodipodi:cy="34.505039"
       sodipodi:rx="58.92857"
       sodipodi:ry="58.92857"
       d="m 672.49998,34.505039 a 58.92857,58.92857 0 1 1 -117.85714,0 58.92857,58.92857 0 1 1 117.85714,0 z"
       transform="matrix(0,2.1636364,-2.1636364,0,740.37063,-1088.3976)" />
  </defs>
  <sodipodi:namedview
     id="base"
     pagecolor="#ffffff"
     bordercolor="#666666"
     borderopacity="1.0"
     inkscape:pageopacity="0.0"
     inkscape:pageshadow="2"
     inkscape:zoom="1.4"
     inkscape:cx="128.00216"
     inkscape:cy="-10.368964"
     inkscape:document-units="px"
     inkscape:current-layer="layer1"
     showgrid="false"
     fit-margin-top="0"
     fit-margin-left="0"
     fit-margin-right="0"
     fit-margin-bottom="0"
     inkscape:window-width="1920"
     inkscape:window-height="1017"
     inkscape:window-x="-8"
     inkscape:window-y="-8"
     inkscape:window-maximized="1" />
  <metadata
     id="metadata3802">
    <rdf:RDF>
      <cc:Work
         rdf:about="">
        <dc:format>image/svg+xml</dc:format>
        <dc:type
           rdf:resource="http://purl.org/dc/dcmitype/StillImage" />
      </cc:Work>
    </rdf:RDF>
  </metadata>
  <g
     inkscape:label="Layer 1"
     inkscape:groupmode="layer"
     id="layer1"
     transform="translate(-295.17597,-481.44276)">
    <path
       style="font-size:23.09346390000000000px;font-style:normal;font-variant:normal;font-weight:normal;font-stretch:normal;text-align:center;line-height:125%;letter-spacing:1.96871661999999990px;word-spacing:0px;text-anchor:middle;fill:#f2bc4d;fill-opacity:1;stroke:none;font-family:Bebas Neue Bold;-inkscape-font-specification:Bebas Neue Bold"
       d="m 81.34375,0 -0.40625,16.15625 4,0.09375 c 1.27176,0.0273 2.24196,-0.27189 2.90625,-0.90625 0.66427,-0.63437 0.99865,-1.56204 1.03125,-2.8125 l 0.03125,-1.3125 c 0.0273,-0.85836 -0.09273,-1.59007 -0.375,-2.1875 C 88.24895,8.43384 87.76192,7.97387 87.09375,7.6875 87.66342,7.43727 88.09583,7.06294 88.375,6.53125 88.65416,5.99959 88.79456,5.29848 88.8125,4.46875 l 0.03125,-0.5625 C 88.88195,2.66075 88.58896,1.72517 88,1.09375 c -0.58898,-0.63139 -1.53551,-0.96887 -2.84375,-1 L 81.34375,0 z m -10.625,0.375 -2.40625,0.25 -1.15625,7.53125 -2.71875,-7.125 -2.625,0.28125 4.3125,10.4375 0.5625,5.3125 2.53125,-0.28125 -0.5625,-5.3125 2.0625,-11.09375 z m 23.25,0.15625 -1.375,12.21875 c -0.14354,1.29298 0.07029,2.32644 0.625,3.09375 0.55467,0.76732 1.44723,1.22771 2.6875,1.375 1.24198,0.13199 2.22618,-0.09387 2.9375,-0.71875 0.7113,-0.62488 1.13388,-1.58246 1.28125,-2.875 L 101.5,1.375 99.125,1.125 97.71875,13.5 c -0.0681,0.56654 -0.24209,0.97348 -0.5,1.1875 -0.25793,0.21402 -0.56361,0.27111 -0.96875,0.21875 -0.40666,-0.039 -0.73359,-0.17151 -0.9375,-0.4375 -0.20392,-0.26598 -0.27825,-0.6825 -0.21875,-1.25 L 96.5,0.8125 93.96875,0.53125 z M 58.25,1.875 l -7.71875,1.46875 0.4375,2.28125 2.625,-0.5 2.59375,13.59375 2.5,-0.46875 L 56.0625,4.625 58.6875,4.15625 58.25,1.875 z m 48,0.28125 -2.90625,15.90625 2.5,0.46875 L 108.75,2.625 106.25,2.15625 z M 83.8125,2.375 85.03125,2.40625 c 0.44784,0.008 0.76707,0.13278 0.96875,0.40625 0.20167,0.27349 0.29773,0.70705 0.28125,1.28125 l 0,0.90625 c -0.0199,0.6367 -0.1643,1.06318 -0.4375,1.3125 -0.27321,0.24933 -0.64765,0.36509 -1.125,0.34375 l -1,0 L 83.8125,2.375 z m 29.6875,1.21875 -3.90625,15.6875 6.5,1.625 0.5625,-2.25 -4.0625,-1 3.375,-13.4375 -2.46875,-0.625 z m -66.9375,0.6875 -6.6875,1.875 4.3125,15.5625 L 50.875,19.875 50.25,17.65625 46.03125,18.8125 44.75,14.25 48.125,13.3125 47.5,11.09375 44.125,12.03125 42.9375,7.6875 47.15625,6.53125 46.5625,4.28125 z m 77.71875,2.1875 -5.21875,15.3125 3.8125,1.28125 c 1.2029,0.40474 2.2171,0.41 3.03125,-0.03125 0.81414,-0.44131 1.42605,-1.30227 1.84375,-2.53125 l 2.625,-7.71875 c 0.41951,-1.22836 0.46913,-2.27842 0.0937,-3.125 -0.37538,-0.84656 -1.17521,-1.46113 -2.375,-1.875 l -3.8125,-1.3125 z M 35.25,7.65625 32.84375,8.5 38.1875,23.75 40.59375,22.9375 35.25,7.65625 z m 48.40625,1.28125 1.125,0.03125 c 0.5736,0.002 0.99548,0.17136 1.25,0.46875 0.2545,0.2974 0.36569,0.79307 0.34375,1.53125 L 86.34375,12.375 c -0.0159,0.59155 -0.14549,1.01596 -0.375,1.25 C 85.73922,13.85904 85.42832,13.95666 85,13.9375 l -1.46875,-0.03125 0.125,-4.96875 z m 42.28125,0.53125 1.375,0.46875 c 0.38789,0.12505 0.64555,0.35488 0.78125,0.65625 0.13569,0.30139 0.11833,0.70882 -0.0625,1.25 l -2.71875,7.96875 c -0.18721,0.53902 -0.42728,0.8754 -0.71875,1.03125 -0.29148,0.15584 -0.61645,0.16902 -1,0.03125 l -1.375,-0.46875 3.71875,-10.9375 z m 10.125,1.28125 -6.28125,14.90625 2.34375,1 6.28125,-14.90625 -2.34375,-1 z m -109.5,0.28125 c -0.503105,0.02299 -1.0495,0.163805 -1.625,0.40625 -1.14494,0.49907 -1.87795,1.19899 -2.1875,2.09375 -0.30955,0.89478 -0.19818,1.92852 0.3125,3.125 L 26.375,24.375 c 0.51422,1.19497 1.20108,1.98206 2.0625,2.375 0.86141,0.39293 1.84899,0.35991 3,-0.125 1.14494,-0.49905 1.87795,-1.19897 2.1875,-2.09375 0.30955,-0.89477 0.22942,-1.9285 -0.28125,-3.125 l -0.875,-1.96875 -2.1875,0.9375 0.90625,2.125 c 0.22078,0.52617 0.2747,0.93648 0.15625,1.25 -0.11845,0.31353 -0.37191,0.56404 -0.75,0.71875 C 30.22097,24.63584 29.87123,24.63041 29.5625,24.5 29.25378,24.36955 29.01,24.05401 28.78125,23.53125 L 25.3125,15.5 c -0.22117,-0.52703 -0.27204,-0.93027 -0.15625,-1.25 0.1158,-0.3197 0.37229,-0.56314 0.75,-0.71875 0.37316,-0.16619 0.71988,-0.19917 1.03125,-0.0625 0.31138,0.13666 0.58338,0.47637 0.8125,1 l 0.6875,1.59375 2.1875,-0.9375 -0.59375,-1.46875 c -0.51422,-1.19496 -1.20108,-1.98204 -2.0625,-2.375 -0.43071,-0.19646 -0.903145,-0.272991 -1.40625,-0.25 z m 116.375,2.71875 -7.34375,14.40625 2.03125,1.03125 5.3125,-10.4375 -2.46875,11.875 2.3125,1.1875 7.34375,-14.4375 -2.03125,-1 L 143.71875,25 145.75,15.1875 142.9375,13.75 z M 15.28125,16.28125 c -0.504312,0.06922 -1.04014,0.270425 -1.59375,0.5625 -1.09994,0.59775 -1.75131,1.3535 -2,2.28125 -0.24867,0.92778 -0.07864,1.9759 0.53125,3.125 l 3.96875,7.40625 c 0.61836,1.14457 1.37122,1.84896 2.28125,2.15625 0.91003,0.3073 1.92404,0.17791 3.03125,-0.40625 1.09994,-0.59774 1.78257,-1.35348 2.03125,-2.28125 0.24868,-0.92776 0.04739,-1.97589 -0.5625,-3.125 l -3.9375,-7.40625 c -0.61835,-1.14455 -1.40247,-1.88019 -2.3125,-2.1875 -0.45502,-0.153635 -0.933188,-0.194218 -1.4375,-0.125 z m 0.03125,2.40625 c 0.16985,-0.02219 0.33898,-0.02332 0.5,0.03125 0.32205,0.10917 0.60137,0.43569 0.875,0.9375 l 4.125,7.6875 c 0.26599,0.50592 0.36891,0.92146 0.28125,1.25 -0.0877,0.32855 -0.3247,0.59352 -0.6875,0.78125 -0.35736,0.19791 -0.67795,0.23416 -1,0.125 C 19.08421,29.39085 18.77362,29.09557 18.5,28.59375 l -4.125,-7.6875 c -0.26599,-0.50589 -0.33766,-0.92144 -0.25,-1.25 0.0877,-0.32853 0.29344,-0.59351 0.65625,-0.78125 0.17868,-0.09895 0.3614,-0.165311 0.53125,-0.1875 z m 140.25,2.34375 c -0.23735,0.0068 -0.49082,0.02992 -0.71875,0.09375 -0.91174,0.25533 -1.71382,0.96118 -2.40625,2.0625 l -4.46875,7.09375 c -0.68918,1.10337 -0.94904,2.13068 -0.78125,3.0625 0.16778,0.93182 0.78952,1.73651 1.84375,2.40625 1.06241,0.65668 2.05701,0.84907 2.96875,0.59375 0.91172,-0.25533 1.7138,-0.92993 2.40625,-2.03125 l 2.71875,-4.34375 -3.03125,-1.875 -1.21875,1.9375 1,0.625 -1.59375,2.53125 c -0.30667,0.4812 -0.61235,0.76249 -0.9375,0.84375 -0.32516,0.0813 -0.65747,0.0039 -1,-0.21875 -0.34969,-0.2112 -0.5876,-0.48445 -0.65625,-0.8125 -0.0687,-0.32805 0.0757,-0.73295 0.375,-1.21875 l 4.625,-7.40625 c 0.30717,-0.48201 0.60876,-0.75678 0.9375,-0.84375 0.32872,-0.087 0.68819,-0.03424 1.03125,0.1875 0.34917,0.21201 0.52866,0.51 0.59375,0.84375 0.0651,0.33376 -0.0439,0.73214 -0.34375,1.21875 L 156,27.25 l 2.03125,1.28125 0.84375,-1.34375 c 0.68916,-1.10336 0.94902,-2.09943 0.78125,-3.03125 -0.1678,-0.93182 -0.78953,-1.7365 -1.84375,-2.40625 -0.79681,-0.49251 -1.53795,-0.739236 -2.25,-0.71875 z M 5.4375,22.3125 c -0.706095,-0.01241 -1.46925,0.217645 -2.25,0.71875 -1.03259,0.68104 -1.60575,1.50796 -1.75,2.4375 -0.14424,0.92957 0.1355,1.94004 0.84375,3.03125 0.86844,1.22238 1.86392,1.96504 3,2.25 1.13608,0.28499 2.22353,0.52298 3.28125,0.6875 1.05772,0.16454 1.8979,0.67021 2.53125,1.53125 0.30755,0.48064 0.43806,0.88959 0.375,1.21875 -0.0631,0.32917 -0.24771,0.59539 -0.59375,0.8125 -0.3387,0.22841 -0.67352,0.29446 -1,0.21875 -0.3265,-0.0757 -0.65394,-0.33658 -0.96875,-0.8125 L 8.28125,33.4375 6.25,34.75 6.8125,35.5625 c 0.71108,1.08939 1.52156,1.76023 2.4375,2 0.91594,0.23977 1.88642,0.01841 2.9375,-0.65625 1.04268,-0.68758 1.62934,-1.50296 1.78125,-2.4375 0.1519,-0.93454 -0.10466,-1.93977 -0.8125,-3.03125 -0.86844,-1.22237 -1.86392,-1.96502 -3,-2.25 C 9.02016,28.90253 7.90147,28.66454 6.84375,28.5 5.78603,28.33548 4.94585,27.8298 4.3125,26.96875 4.00282,26.48837 3.88941,26.07748 3.9375,25.75 3.9856,25.42255 4.15609,25.15438 4.5,24.9375 c 0.33761,-0.22654 0.68113,-0.27619 1,-0.1875 0.31888,0.0887 0.62378,0.366 0.9375,0.84375 l 0.375,0.5625 2,-1.3125 -0.28125,-0.4375 C 7.82058,23.31662 7.03328,22.65102 6.125,22.40625 5.89793,22.345065 5.672865,22.316636 5.4375,22.3125 z"
       id="path3846"
       inkscape:connector-curvature="0"
       transform="translate(293.77525,481.44276)" />
  </g>
</svg>
