<svg xmlns="http://www.w3.org/2000/svg" viewBox="10691 1793 155.82 156.459"><defs><style>.a{fill:#d9a652;}</style></defs><path class="a" d="M260.4,107.754c-3.555.118-7.1-.027-10.668.24a70.835,70.835,0,0,0-13.839,2.547c-1.278.359-2.587.663-3.844,1.081a19.7,19.7,0,0,0-4.949,1.9,10.763,10.763,0,0,1-4.565,1.754c-.34.055-.832.128-.961.36-.754,1.361-2.216,1.717-3.412,2.379a24.814,24.814,0,0,0-5.55,3.6,18.4,18.4,0,0,1-2.523,1.49c-.875.6-1.994,1.133-2.427,1.994-.578,1.149-1.75.726-2.4,1.418-.3.322-.656.591-.961.913-4.029,4.25-8.058,8.509-11.8,13.022a7.729,7.729,0,0,0-.769,1.081c-1.361,2.372-2.735,4.744-4.06,7.136a14.267,14.267,0,0,0-1.946,4.373,7.613,7.613,0,0,1-.793,1.97c-.977,1.97-2.343,3.794-2.018,6.2a1.537,1.537,0,0,1-.336.985,3.393,3.393,0,0,0-.6,2.523,1.477,1.477,0,0,1-.288.985,2.479,2.479,0,0,0-.481,1.73,3.556,3.556,0,0,1-.336,1.538c-1.56,3.2-1.135,6.8-2.066,10.139-.383,1.372.149,3,.12,4.493-.035,1.831.867,3.648.048,5.5a2.937,2.937,0,0,0,.024,1.321c.082.883.147,1.768.288,2.643a4.732,4.732,0,0,0,.456,1.49,15.249,15.249,0,0,1,1.538,7.208,9.371,9.371,0,0,0,.168,1.538,15.318,15.318,0,0,1,.456,2.331,8.711,8.711,0,0,0,.745,3.34A21.729,21.729,0,0,1,183.705,212a29.126,29.126,0,0,0,2.5,6.2c.921,1.728,1.934,3.393,2.859,5.118a20.546,20.546,0,0,0,1.369,2.162,3.12,3.12,0,0,0,1.9,2.523c.088.04.19.11.288.168.161.176.316.356.481.529.171,1.408,1.832,1.809,2.066,3.147a.318.318,0,0,0,.192.192,1.314,1.314,0,0,0,.721.048.674.674,0,0,0,.264-.6c-.113-.416-.242-.973-.553-1.153-1.281-.746-1.492-2.088-2.018-3.268A21.591,21.591,0,0,0,192.763,225c-.049-.279-.1-.546-.168-.817a4.194,4.194,0,0,0-.7-1.418,30.762,30.762,0,0,1-4.517-9.875c-1.252-4.156-2.554-8.306-3.484-12.542-.389-1.777-1.191-3.533-.913-5.454.059-.411-.211-.859-.264-1.3a29.092,29.092,0,0,1-.312-3.2c-.035-3.361.009-6.728.024-10.091a10.528,10.528,0,0,1,.1-1.321,113.431,113.431,0,0,1,2.955-14.872c.875-3.262,1.844-6.507,3.892-9.3a2.721,2.721,0,0,0,.408-1.249,6.5,6.5,0,0,1,1.273-2.907c1.548-2.266,3.244-4.431,4.661-6.775a63.725,63.725,0,0,1,7.5-9.322c1.191-1.327,2.608-2.409,3.8-3.7a28.4,28.4,0,0,1,6.007-5.142c2.562-1.584,5.041-3.3,7.688-4.781.16-.09.32-.177.481-.264a5.1,5.1,0,0,0,1.85-1.009,50.439,50.439,0,0,1,5.358-2.355,67.041,67.041,0,0,1,12.734-3.868c2.283-.363,4.51-1.126,6.8-1.249a118.375,118.375,0,0,1,17.323.216,94.23,94.23,0,0,1,10.764,2.018,61.128,61.128,0,0,1,6.679,1.778c2.176.726,4.284,1.688,6.415,2.547.079.032.114.127.192.168q1.89.97,3.8,1.922a15.468,15.468,0,0,1,1.682.793c2.221,1.47,4.439,2.946,6.607,4.493,2.31,1.648,4.531,3.405,6.847,5.045.7.492.987,1.5,2.018,1.538.43-1.051-.524-1.707-.793-2.547a4.975,4.975,0,0,0-1.634-2.643c-1.981-1.489-3.85-3.141-5.79-4.685A49.944,49.944,0,0,0,293.169,117a11.41,11.41,0,0,0-3.94-1.466,6.8,6.8,0,0,1-2.355-1.177,11.243,11.243,0,0,0-1.778-1.153c-3.274-1.1-6.351-2.762-9.875-3.2-2.536-.311-4.991-1.161-7.52-1.586-1.1-.184-2.307.247-3.436.144-1.218-.111-2.3-.943-3.6-.793a2.6,2.6,0,0,1-.264-.024Zm-8.433,9.8a18.719,18.719,0,0,0-2.571.336c-2.943.416-5.891.757-8.818,1.273a29.708,29.708,0,0,0-4.973,1.345,65.065,65.065,0,0,0-6.968,2.811c-1.189.595-2.506.929-3.652,1.586-2.315,1.324-4.546,2.816-6.823,4.2a25.358,25.358,0,0,0-3.1,2.475,24.5,24.5,0,0,1-3.508,3.027,1.929,1.929,0,0,0-.7.889,3.517,3.517,0,0,1-1.105,1.442c-.174.1-.34.2-.5.312-.043.021-.076.054-.12.072a3.242,3.242,0,0,0-1.85,1.85c-.126.042-.273.151-.7.36-.415.461-1.107,1.18-1.73,1.97-.134.169-.005.586.072.865a.966.966,0,0,0,.6-.048,6.8,6.8,0,0,0,2.427-2.379,3.161,3.161,0,0,0,1.586-1.682,1.925,1.925,0,0,1,.817-.841,60.87,60.87,0,0,0,5.79-4.349,10.044,10.044,0,0,1,1.586-.961,15.1,15.1,0,0,0,3.123-1.994,5.349,5.349,0,0,1,1.754-1.009,23.16,23.16,0,0,0,3.292-1.778,10.369,10.369,0,0,1,1.418-.817c2.724-.987,5.463-1.911,8.193-2.883a11.673,11.673,0,0,0,1.273-.6,3.685,3.685,0,0,1,.817-.432c2.893-.584,5.8-1.158,8.7-1.706,1.447-.273,2.96.012,4.373-.577a1.183,1.183,0,0,1,.7-.024,11.543,11.543,0,0,0,5.118.048,31.114,31.114,0,0,1,8.89-.024,3.471,3.471,0,0,0,1.153.072c.32-.084.84-.052.841-.577,0-.088-.525-.172-.817-.24-1.291-.3-2.587-.58-3.868-.913a42.556,42.556,0,0,0-10.716-1.105Zm20.927,3.34c-.671.008-.954.319-.7.817.358.688.567.868,1.273.577a1.3,1.3,0,0,1,1.8.408,3.72,3.72,0,0,0,2.451,1.273A11.4,11.4,0,0,1,281.06,125a4.788,4.788,0,0,0,1.562.481,1.9,1.9,0,0,0,1.706-.432c.255-.288-.37-.849-1.225-1.177-.942-.361-1.871-.785-2.811-1.153a5.608,5.608,0,0,0-1.538-.5C276.729,122.062,274.947,120.881,272.891,120.9Zm12.662,4.589a2.211,2.211,0,0,0-.625.288.956.956,0,0,0,.192.577c.121.123.256.225.384.336.014.091.035.176.048.264.008.058.1.105.168.144,1.4.85,2.8,1.721,4.229,2.523a9.958,9.958,0,0,0,2.138.889,3.743,3.743,0,0,1,1.946,1.249,11.208,11.208,0,0,0,1.682,1.61,47.313,47.313,0,0,0,4.517,3.364c.05.03.1.065.144.1.1.231.211.457.288.649.5.31.832.531,1.177.7a.269.269,0,0,0,.192,0c.9.868,1.689,1.834,2.547,2.739.1.11.195.242.288.36a.344.344,0,0,0,.024.168.449.449,0,0,0,.264.192,2.381,2.381,0,0,0,.889.745,1.959,1.959,0,0,1,.769.865c.008.015.016.032.024.048a3.4,3.4,0,0,0,.312.649,2.844,2.844,0,0,0,.577.745,31.95,31.95,0,0,1,3.219,4.805,6.284,6.284,0,0,0,1.081,1.538,1.091,1.091,0,0,0,1.49.12,15.6,15.6,0,0,0-3.027-5c-2.005-2.2-3.928-4.472-5.814-6.775a24.971,24.971,0,0,0-5.5-5.046,13.58,13.58,0,0,1-1.73-1.562,33.283,33.283,0,0,0-6.151-4.3,13.206,13.206,0,0,1-1.562-1.033,7.13,7.13,0,0,0-2.379-1.177c-.481-.251-1.02-.516-1.61-.769a.369.369,0,0,0-.192,0ZM257.2,129.714l-2.835,13.046,2.066.1.625-3,2.066.1L259.46,143l2.09.1-1.61-13.262Zm-6.2.793-2.066.336-.048,10.379-3.219-9.875-2.066.336,4.373,12.638,2.691-.432L251,130.507Zm15.761,1.129-2.955,12.854,5.286,1.2.432-1.922-3.34-.769,2.5-10.908Zm-8.337,1.153.481,5.214-1.466-.072.985-5.141Zm17.491.889-3.94,9.394a3.146,3.146,0,0,0,1.706,4.109,3.065,3.065,0,0,0,2.4.024,3,3,0,0,0,1.706-1.706l3.94-9.394-1.9-.793-3.94,9.37a1.128,1.128,0,0,1-.625.625,1.2,1.2,0,0,1-1.49-.624,1.127,1.127,0,0,1,0-.889l3.94-9.37Zm-40.628.889a4.186,4.186,0,0,0-1.418.36l-2.883,1.2,5.045,12.157,1.85-.769-1.922-4.589,1.057-.432c.058-.025.119-.045.168-.072l3.027,4.109,1.994-.817-3.58-4.733a3.083,3.083,0,0,0,.072-2.595l-.745-1.778a3.285,3.285,0,0,0-1.49-1.778,2.358,2.358,0,0,0-1.177-.264Zm-.1,2.066c.448-.032.765.239.985.769l.745,1.754a1.149,1.149,0,0,1,0,.889,1.074,1.074,0,0,1-.6.625l-1.105.457-1.634-3.892,1.105-.456a1.724,1.724,0,0,1,.5-.144Zm50.839.841-7.136,11.1,4.757,3.051,1.081-1.658-3.075-1.994,1.946-3.027,2.258,1.442,1.057-1.682-2.234-1.442,1.946-3.027,3.075,1.97,1.081-1.658-4.757-3.075Zm-58.119,1.61-1.73,1.153,5.574,8.505a1.065,1.065,0,0,1,.168.841,1.119,1.119,0,0,1-.5.721,1.068,1.068,0,0,1-.841.168,1.08,1.08,0,0,1-.721-.481l-5.574-8.505-1.634,1.057,5.574,8.529a3.035,3.035,0,0,0,1.994,1.345,3,3,0,0,0,2.355-.456,3.057,3.057,0,0,0,1.369-1.97,3,3,0,0,0-.432-2.379l-5.6-8.529Zm89.882,1.562a6.455,6.455,0,0,0-.024,1.538,2.5,2.5,0,0,0,.7,1.105,2.188,2.188,0,0,1,.817,1.586,2.635,2.635,0,0,0,.48,1.2,98.03,98.03,0,0,1,5.742,11.1c0,.018-.025.034-.024.048a3.755,3.755,0,0,0,.1.745,35.344,35.344,0,0,1,1.442,5.262,4.468,4.468,0,0,0,1.85,2.955c.381,1.39.711,2.794.985,4.2a3.908,3.908,0,0,0,0,.529,1.47,1.47,0,0,0,.144.432c.014-.011.034-.015.048-.024.01.055.014.113.024.168-.018-.008-.03-.018-.048-.024a9.077,9.077,0,0,0,.745,4.445c.368,2.482.861,5.026.384,7.592a14.545,14.545,0,0,0,.144,2.379,58.168,58.168,0,0,1-.216,6.92c-.418,3.162-1.15,6.283-1.754,9.418-.331,2.237-1.373,4.234-2.066,6.343a38.041,38.041,0,0,1-4.157,9.178,2.037,2.037,0,0,0-.384.985,5.8,5.8,0,0,1-1.153,2.667c-.638,1.164-1.783,2.171-2.018,3.388-.324,1.677-1.551,2.269-2.571,3.2-.312.283-.421.768-.673,1.129a38.4,38.4,0,0,1-2.5,3.436,30.957,30.957,0,0,1-3.075,2.931c-1.34,1.162-2.725,2.278-4.108,3.388a9.739,9.739,0,0,0-3.244,3.628,3.374,3.374,0,0,1-1.562,1.37,16.528,16.528,0,0,0-3.628,2.643,14.7,14.7,0,0,1-3.364,2.451c-4.032,2-8.047,4.145-12.277,5.79a10.073,10.073,0,0,0-1.97.769,4.691,4.691,0,0,1-3.412,1.081c-.393-.058-.916.435-1.3.769-.358.313-.7.633-1.153.312-1.043-.741-1.793-.308-2.547.456-.239.243-.617.628-.841.577-1.243-.288-2.415.7-3.676.144a2.063,2.063,0,0,0-1.321-.024,14.874,14.874,0,0,1-2.162.865c-.842.114-1.795-.341-2.595-.144a8.918,8.918,0,0,1-2.883.048,18.87,18.87,0,0,0-3.147.216c-1.022.1-2.052.65-3.027-.24-.175-.158-.657-.021-.985.048s-.673.263-1.009.36a33.547,33.547,0,0,1-5.6-.649c-.771-.719-1.424-.348-2.162.072a4.79,4.79,0,0,1-1.369.529.812.812,0,0,0-.312-.024.56.56,0,0,0-.192.1,3.467,3.467,0,0,1-2.5-.865,8.374,8.374,0,0,0-2.09-1.129,1.342,1.342,0,0,0-1.682.889,1.451,1.451,0,0,0-.048.24c-.128-.2-.257-.379-.432-.649-.443.206-.771.35-1.105.5.3.282.537.661.889.817.13.058.39-.183.625-.36a1.058,1.058,0,0,0,.889.865c2.406.628,4.832,1.2,7.256,1.754.857.2,1.755.259,2.619.433,1.569.316,3.144,1,4.685.913,2.324-.134,4.579.261,6.871.288a3.118,3.118,0,0,1,1.3.144,4.146,4.146,0,0,0,3.628-.144,10.641,10.641,0,0,1,4.613-.817,8.071,8.071,0,0,0,4.133-.769,5.31,5.31,0,0,1,3.123-.529,3.507,3.507,0,0,0,1.586-.1,44.385,44.385,0,0,0,4.181-1.658c.942-.439,1.73-1.068,2.715-.7a3.88,3.88,0,0,0,2.859-.6,18.141,18.141,0,0,1,3.22-1.345,29.9,29.9,0,0,0,8.529-4.108c1.427-.944,2.906-1.736,4.277-2.739a26.937,26.937,0,0,1,3.075-2.379c1.525-.82,3.252-1.56,4.012-3.412.088-.215.429-.321.625-.5,2.468-2.337,5.057-3.8,7.088-6.535,1.322-1.777,2.939-3.312,4.325-5.046a15.958,15.958,0,0,0,2.162-3.364,32.582,32.582,0,0,1,3.508-5.958,24.609,24.609,0,0,0,2.763-5.454c.4-.985.693-2.011,1.129-2.979a21.645,21.645,0,0,0,1.442-4.829,25.477,25.477,0,0,1,1.105-4.108,10.739,10.739,0,0,0,.649-3.652,10.923,10.923,0,0,1,.024-1.586,70.1,70.1,0,0,0,1.057-11.677,2.473,2.473,0,0,1,.048-.529,22.485,22.485,0,0,0,.264-7.424c-.183-1.677-.055-3.4-.36-5.046-.566-3.058-1.311-6.079-2.042-9.106-.5-2.064-1.044-4.125-1.682-6.151a17.356,17.356,0,0,0-1.778-4.421c-.963-1.448-1.037-3.21-1.994-4.613a20.485,20.485,0,0,1-1.153-2.09c-1.3-2.5-3.394-4.517-4.229-7.3a2.157,2.157,0,0,0-1.778-1.49,11.693,11.693,0,0,0-1.49-.048Zm12.229,30.826c0-.025,0-.048,0-.072l-.1.024c.035.01.061.038.1.048Zm0-.072c-.005-.016-.018-.033-.024-.048-.018.015-.03.033-.048.048S330.025,171.4,330.025,171.4Zm-125.8-27.966-.1.1.144.072-.048-.168Zm13.5,2.258a3.151,3.151,0,0,0-1.85,5.526l5.454,4.709a3.055,3.055,0,0,0,2.282.769,2.97,2.97,0,0,0,2.138-1.081,3.141,3.141,0,0,0-.312-4.445l-5.43-4.709A3.04,3.04,0,0,0,217.726,145.691Zm77,.384a3.427,3.427,0,0,0-2.162.793,4,4,0,0,0-1.2,1.49,7.327,7.327,0,0,0-.529,2.138c-.112,1.075-.184,1.89-.24,2.427a2.427,2.427,0,0,1-.841,1.586,1.57,1.57,0,0,1-.817.36,1.206,1.206,0,0,1-1.129-.433,1,1,0,0,1-.216-.865,2.814,2.814,0,0,1,.937-1.49l-1.249-1.418a5.175,5.175,0,0,0-1.225,1.466,3.2,3.2,0,0,0-.384,1.586,3.122,3.122,0,0,0,.7,1.9,3.768,3.768,0,0,0,.793.793,2.6,2.6,0,0,0,1.586.5,3.715,3.715,0,0,0,2.307-.865,3.65,3.65,0,0,0,.817-1.009,5.079,5.079,0,0,0,.312-.6,6.9,6.9,0,0,0,.457-1.8c.033-.21.048-.6.072-1.2a6.533,6.533,0,0,1,.144-1.225,2.881,2.881,0,0,1,.985-1.73,1.878,1.878,0,0,1,.913-.408.9.9,0,0,1,.889.36,1,1,0,0,1,.216.841,2.281,2.281,0,0,1-.721,1.129l1.442,1.3a3.778,3.778,0,0,0,.937-1.273,2.779,2.779,0,0,0,.24-1.394,3.38,3.38,0,0,0-.745-1.73,2.992,2.992,0,0,0-1.562-1.129,2.892,2.892,0,0,0-.721-.1ZM217.8,147.709a1.086,1.086,0,0,1,.817.288l5.454,4.733a1.135,1.135,0,0,1,.12,1.586,1.151,1.151,0,0,1-.793.408,1.074,1.074,0,0,1-.817-.288l-5.454-4.709a1.108,1.108,0,0,1-.384-.793,1.2,1.2,0,0,1,1.057-1.225Zm95.744,3.46a5.589,5.589,0,0,0,1.706,5.094,3.106,3.106,0,0,1,.865,1.85,14.087,14.087,0,0,0,1.249,3.508,23.636,23.636,0,0,1,2.307,6.607,22.983,22.983,0,0,0,.937,3.724c.2,1.079.448,2.149.7,3.22.009.038.045.062.072.1a11.982,11.982,0,0,0,.24,2.475c0,.041.02.079.024.12a2.181,2.181,0,0,0-.144,1.345c.158.394.282.8.408,1.2a24.04,24.04,0,0,1,.12,3.388,1.431,1.431,0,0,0,.841,1.466.328.328,0,0,0-.144-.048.583.583,0,0,0-.432.192c-.367.337-.546.561-.5.841a1.965,1.965,0,0,0-.168,1.009c.035.829.019,1.645.024,2.475a4.122,4.122,0,0,0-.1,1.61,11.349,11.349,0,0,1-.144,3.484,4.8,4.8,0,0,0-.072,1.634,1.937,1.937,0,0,0,.889,1.538c.344.173.721-.579.817-1.49.105-1,.272-2,.384-3a5.74,5.74,0,0,0,.1-1.634c-.374-2,.282-4.024-.264-6.007a1.245,1.245,0,0,0-.216-.481h-.024c-.029-.021-.043-.052-.072-.072a11.128,11.128,0,0,0,.192-3.364,9.611,9.611,0,0,1,.072-2.307,2.727,2.727,0,0,0-.745-2.523c-.076-.585-.15-1.168-.216-1.754.015-.027.034-.048.048-.072a.334.334,0,0,0,.024-.24c-.06-.161-.1-.316-.144-.481-.039-.362-.084-.718-.12-1.081-.125-1.242-.476-2.472-.721-3.7a88.624,88.624,0,0,0-2.667-8.722c-.953-3.1-2.819-5.738-4.2-8.625a8.422,8.422,0,0,0-.913-1.273Zm-118.93,6.607c-.084-.024-.315.48-.456.745-.624,1.169-1.2,2.357-1.85,3.508a42.5,42.5,0,0,0-3.868,10.043,18.49,18.49,0,0,0-.336,2.571c-.359,2.951-.8,5.905-1.057,8.866a29.6,29.6,0,0,0,.024,5.142,64.755,64.755,0,0,0,.913,7.448c.267,1.3.239,2.687.577,3.964.68,2.578,1.531,5.105,2.282,7.664a25.515,25.515,0,0,0,1.586,3.652,24.474,24.474,0,0,1,2.042,4.156,1.885,1.885,0,0,0,.673.889,3.377,3.377,0,0,1,1.321,2.162,3.465,3.465,0,0,0,2.379,2.835,3.738,3.738,0,0,0-1.369-3,1.866,1.866,0,0,1-.6-.985c-.611-2.364-1.838-4.473-2.715-6.727a10.121,10.121,0,0,1-.529-1.778,15.228,15.228,0,0,0-1.105-3.556,5.314,5.314,0,0,1-.529-1.946,22.931,22.931,0,0,0-.841-3.628,10.477,10.477,0,0,1-.432-1.586c-.248-2.887-.441-5.784-.673-8.673a11.591,11.591,0,0,0-.264-1.37,3.736,3.736,0,0,1-.192-.913c.185-2.945.379-5.9.6-8.842.111-1.469.783-2.855.577-4.373a1.148,1.148,0,0,1,.168-.673,11.532,11.532,0,0,0,1.369-4.925,31.191,31.191,0,0,1,2.282-8.6,3.349,3.349,0,0,0,.36-1.081c0-.331.17-.848-.336-.985Zm4.229,63.645c0,.033,0,.063,0,.1l.024-.072C198.854,221.438,198.851,221.426,198.841,221.422Zm3.7-52.473a27.957,27.957,0,0,1-.673,3.436q-.512,2.064-1.369,4.589a39.067,39.067,0,0,1-2.475,5.574,36.624,36.624,0,0,1-3.22,4.949,7.548,7.548,0,0,1,1.273.793,6.364,6.364,0,0,1,1.129,1.081c.608-.948,1.165-1.84,1.682-2.691s1-1.7,1.442-2.547v12.95c0,1.5-.035,3.022-.12,4.565s-.187,2.917-.312,4.108h3.7v-29c.724-1.869,1.274-3.226,1.658-4.084a5.7,5.7,0,0,1,.769-1.442c.5-.433.724-.739.673-.913s-.33-.3-.865-.384c-.48-.1-1.023-.238-1.61-.408s-1.141-.371-1.682-.577Zm54.756,0c.04.493.068,1.092.072,1.778s0,1.44-.024,2.258c-2.042-.018-3.842-.047-5.406-.1s-2.952-.14-4.181-.24v3.171c1.211-.079,2.586-.135,4.132-.168s3.3-.055,5.286-.072a39.087,39.087,0,0,1-.408,3.94c-1.638-.022-3.016-.043-4.157-.1s-2.091-.105-2.835-.168c.062.558.108,1.309.144,2.258s.071,1.665.072,2.162v17.8c-1.389-.041-2.682-.118-3.868-.24v3.22c.594-.055,1.341-.108,2.258-.144s2.25-.054,4.012-.072,4.224-.024,7.352-.024c4.667,0,7.926.019,9.8.072s3.159.109,3.82.192V201.24c-.727.081-1.473.147-2.21.192s-1.5.077-2.307.1V183.677c0-.7,0-1.5.024-2.379s.084-1.548.144-2.042c-.915.1-2.112.171-3.556.216s-3.262.048-5.478.048c.156-1.538.293-2.849.408-3.94,2.716-.02,5.077.008,7.112.048s3.782.091,5.238.192v-3.171c-1.419.12-3.124.215-5.118.264s-4.3.074-6.92.072a12.438,12.438,0,0,1,.5-2.186,1.991,1.991,0,0,1,.6-.937c.219-.188.324-.34.288-.457s-.18-.183-.408-.168a15.95,15.95,0,0,1-2.114-.024,22.829,22.829,0,0,1-2.282-.264Zm-13.863.1q-.466,1.646-1.153,3.6c-.458,1.305-.955,2.588-1.49,3.868a27.839,27.839,0,0,1-2.307,4.349,35.3,35.3,0,0,1-2.811,3.82,9.469,9.469,0,0,1,1.49,1.2,7.809,7.809,0,0,1,1.105,1.37c.429-.652.894-1.374,1.369-2.138s.951-1.571,1.442-2.427V197.42c0,1.5-.059,3.023-.144,4.589s-.187,2.961-.312,4.157h3.7V176.613c.291-.617.566-1.226.817-1.8a21.414,21.414,0,0,1,1.2-2.4,2.514,2.514,0,0,1,.721-.889c.385-.21.569-.411.553-.6s-.241-.32-.649-.408a10.006,10.006,0,0,1-1.586-.553C244.729,169.683,244.084,169.38,243.433,169.045Zm38.874.673c.061.494.1,1.03.144,1.61s.076,1.3.1,2.138c-.937-.039-1.786-.071-2.571-.12s-1.479-.113-2.09-.192v2.907c.612-.082,1.306-.135,2.09-.192s1.634-.1,2.571-.12v2.066c-.762,0-1.407,0-1.946-.024s-1.029-.055-1.466-.1c.019.446.044.929.048,1.466s0,1.129,0,1.778c.007,1.3-.014,2.421-.048,3.316.5-.019,1.077-.044,1.73-.048s1.463,0,2.427,0c.926,0,1.7.008,2.355.024s1.255.027,1.754.048c-.021-.464-.056-.968-.072-1.514s-.023-1.158-.024-1.826q0-.973.024-1.778c.016-.537.051-1.02.072-1.466-.282.022-.6.032-.913.048s-.673.023-1.057.024V175.7h4.925v2.282c-.263,0-.513-.008-.745-.024s-.451-.026-.673-.048c.034.854.055,1.911.048,3.171,0,.632-.019,1.214-.024,1.754s0,1.013-.024,1.442c.475-.019.983-.02,1.514-.024s1.275,0,2.258,0c1,0,1.9-.01,2.691,0s1.433.034,1.946.072c-.021-.446-.032-.929-.048-1.466s-.023-1.129-.024-1.778c.007-1.26.025-2.318.072-3.171-.517.041-1.109.052-1.778.072s-1.487.048-2.451.048V175.7c1.04.02,2,.059,2.859.12s1.6.139,2.234.24v-2.907c-.634.082-1.377.135-2.234.192s-1.819.1-2.859.12v-1.946a1.759,1.759,0,0,1,.1-.625.719.719,0,0,1,.312-.384c.165-.106.253-.208.24-.288s-.139-.116-.36-.12c-.5-.023-1.047-.075-1.634-.144s-1.137-.156-1.658-.24c.061.494.1,1.03.144,1.61s.076,1.3.1,2.138h-4.925V171.4a1.367,1.367,0,0,1,.1-.529.66.66,0,0,1,.288-.336c.2-.129.272-.252.24-.36s-.163-.161-.408-.168c-.518,0-1.074-.019-1.658-.072s-1.144-.133-1.682-.216Zm16.722,1.033c.041.524.052,1.173.072,1.946s.048,1.573.048,2.4v13.623c0,.822-.02,1.639-.048,2.451s-.049,1.442-.072,1.9a9.452,9.452,0,0,1,1.057-.144c.408-.036.916-.072,1.538-.072a14.855,14.855,0,0,1-2.09,7.568,7.928,7.928,0,0,1-5.07,3.34,8.4,8.4,0,0,1,1.37,1.273,3.06,3.06,0,0,1,.625,1.418,11.913,11.913,0,0,0,5.5-4.829,19.9,19.9,0,0,0,2.307-8.794h1.658v8.289a4.5,4.5,0,0,0,.769,3.2c.546.579,1.652.871,3.316.841a4.441,4.441,0,0,0,3.244-.745,9.068,9.068,0,0,0,1.754-3.94,4.46,4.46,0,0,1-1.538-.408,4.3,4.3,0,0,1-1.225-1.057,8.03,8.03,0,0,1-.721,2.739,1.38,1.38,0,0,1-1.37.6,1.2,1.2,0,0,1-1.057-.384,2.493,2.493,0,0,1-.312-1.49v-7.64c.8.02,1.416.055,1.874.1a10.352,10.352,0,0,1,1.129.144c-.042-.456-.088-1.087-.12-1.9s-.046-1.629-.048-2.451V175.1c0-.834.016-1.638.048-2.427s.078-1.433.12-1.922a23.96,23.96,0,0,1-2.547.24c-1.084.057-2.49.072-4.2.072-1.694,0-2.991-.015-3.892-.072a16.692,16.692,0,0,1-2.114-.24Zm-92.141.048v3.2c1.023-.08,2.141-.147,3.388-.192s2.575-.077,3.964-.1v2.619c-1.381,0-2.657-.016-3.844-.048s-2.3-.077-3.316-.12c.062.524.108,1.161.144,1.9s.071,1.491.072,2.258-.019,1.505-.048,2.234a17.94,17.94,0,0,1-.168,1.9c1.353-.022,2.938-.032,4.733-.048s4.223-.023,7.3-.024c2.77,0,5.078,0,6.944.024s3.514.055,4.9.1c-.041-.523-.076-1.157-.1-1.9s-.048-1.5-.048-2.282.028-1.537.048-2.258.055-1.359.1-1.9c-2.033.075-4.443.134-7.208.168v-2.619c2.136.022,3.845.068,5.118.12s2.344.105,3.22.168v-3.2c-1.21.164-2.725.291-4.565.384s-4.553.142-8.121.144c-3.249,0-5.856-.051-7.809-.144s-3.514-.22-4.709-.384Zm95.024,2.883h6.944v3.892h-6.944Zm-85.029.024h4.157v2.619h-4.157Zm-6.751,4.877h4.108v3.58h-4.108Zm6.751,0h4.157v3.58h-4.157Zm6.871,0h4.157v3.58h-4.157Zm57.855,1.225h3.268v2.234h-3.268Zm9.9.168h3.171v2.234h-3.171Zm10.4.048h6.944v3.844h-6.944Zm-48.845,2.114h12.662v2.955H253.067Zm37.217,2.138-2.979.625c.224.465.414.9.577,1.3a10.617,10.617,0,0,1,.408,1.129h-4.06a8.9,8.9,0,0,1,.649-.745,4.981,4.981,0,0,1,.529-.433c.28-.2.4-.342.384-.456s-.135-.206-.384-.264c-.474-.136-.932-.277-1.345-.433a15.13,15.13,0,0,1-1.393-.625,23.012,23.012,0,0,1-2.547,4.613A21.7,21.7,0,0,1,276.445,193a4.933,4.933,0,0,1,1.081.865,6.006,6.006,0,0,1,.889,1.153c.3-.319.634-.7,1.033-1.153s.867-1.017,1.394-1.682v5.286c0,1.14-.027,2.328-.072,3.58s-.115,2.549-.216,3.892h2.859v-2.955h6.655c1.6,0,2.9.019,3.916.072s2.159.149,3.412.288v-2.619c-1.146.1-2.217.183-3.2.216s-2.177.05-3.628.048v-2.114c1.2.019,2.352.051,3.508.1s2.071.088,2.739.168v-2.547c-.665.063-1.567.116-2.715.168s-2.318.1-3.532.12v-2.234q1.83.029,3.628.1c1.2.045,2.144.088,2.835.168v-2.547c-.686.08-1.627.147-2.811.192s-2.4.077-3.652.1v-2.234c1.335.02,2.611.032,3.844.072s2.322.107,3.292.168v-2.691c-.863.082-1.812.159-2.883.216s-2.2.1-3.364.12a16.227,16.227,0,0,0-.5-1.562,12.551,12.551,0,0,0-.673-1.466Zm-81.689,1.85c.042.309.064.757.1,1.345s.07,1.156.072,1.73v7.688c0,.564-.023,1.128-.048,1.682a11.946,11.946,0,0,1-.12,1.37c.671-.04,1.327-.079,1.994-.1s1.622-.02,2.859-.024h5.43c2.481,0,4.335-.008,5.574,0s2.173.008,2.811.024,1.292.056,1.97.1a11.389,11.389,0,0,1-.12-1.37c-.025-.562-.025-1.115-.024-1.682V189.2c0-.571,0-1.149.024-1.73a10.281,10.281,0,0,1,.12-1.345c-1,.08-2.2.115-3.628.144s-3.675.049-6.727.048q-4.55,0-6.679-.048c-1.422-.028-2.624-.065-3.6-.144Zm93.318.144h6.944v3.82h-6.944Zm-48.845,1.153h12.662V190.6H253.067Zm-41.229.937h14.079v1.946H211.839Zm71.574,1.057h4.469v2.234h-4.469Zm-71.574,2.715h14.079v1.778H211.839Zm41.229.721h12.662V196H253.067Zm30.345.793h4.469v2.234h-4.469Zm-71.574,2.138h14.079v1.826H211.839Zm71.574,2.09h4.469v2.114h-4.469Zm-30.345.433h12.662v3.219H253.067Zm67.754.793a.236.236,0,0,0-.192.12c-.176.758-.34,1.52-.5,2.283-.306,1.032-.624,2.057-.889,3.1a10.018,10.018,0,0,0-.288,2.307c0,.107-.016.21-.024.312a.7.7,0,0,0-.336.312c-.267.771-.581,1.526-.793,2.307a12.028,12.028,0,0,0-.673,1.321,47.231,47.231,0,0,0-2.09,5.238c-.044.15-.093.288-.144.432a2.646,2.646,0,0,0-.577.769c-.279.549-.712,1.031-1.033,1.562a1.993,1.993,0,0,0-.264,1.129c-.3.454-.6.905-.889,1.37a6.422,6.422,0,0,0-.985,1.61c-.223.366-.434.734-.649,1.105-.016.015-.032.033-.048.048s0,.018,0,.024a42.84,42.84,0,0,0-3.22,3.82.911.911,0,0,0-.36.336c-.05.091-.116.175-.168.264a11.962,11.962,0,0,1-1.2,1.177,6.233,6.233,0,0,0-1.2,1.442,1.067,1.067,0,0,0,.264,1.466,15.533,15.533,0,0,0,4.036-4.2c1.606-2.505,3.309-4.958,5.046-7.376a25.067,25.067,0,0,0,3.46-6.631,13.669,13.669,0,0,1,1.057-2.09,33.015,33.015,0,0,0,2.571-7.016,13.428,13.428,0,0,1,.577-1.8,9.8,9.8,0,0,0,.553-3.916c0-.177-.215-.531-.336-.529a1.145,1.145,0,0,0-.168.048c-.009-.039-.017-.084-.024-.12a3.718,3.718,0,0,0-.5-.216Zm-16.266,33.854a5.612,5.612,0,0,0-4.493,3,3.071,3.071,0,0,1-1.562,1.3,14.114,14.114,0,0,0-3.051,2.138,23.6,23.6,0,0,1-5.79,3.916,14.328,14.328,0,0,0-1.3.625.389.389,0,0,0-.072-.024.635.635,0,0,0-.192.024.493.493,0,0,0-.336.36c-1.061.628-2.089,1.335-3.147,1.97-.262.157-.516.483-.769.481a7.658,7.658,0,0,0-2.883.913,39.024,39.024,0,0,1-5.742,1.97c-.944.205-1.032.709-1.249,1.3a13.066,13.066,0,0,0,4.949-1.369c2.057-.954,4.154-1.792,6.271-2.595,1.167-.442,2.24-1.079,3.364-1.634a88.926,88.926,0,0,0,7.736-4.853c2.745-1.722,4.826-4.185,7.256-6.271a8.989,8.989,0,0,0,1.009-1.249ZM273.97,250.926h-.024c-.01.008-.014.019-.024.024.01.016.015.032.024.048.01-.026.015-.047.024-.072Zm-.048.024a1.675,1.675,0,0,0-2.138-.841,63.427,63.427,0,0,0-7.112,2.258,1.665,1.665,0,0,0-.336.264,1.846,1.846,0,0,0,.36.12,12.709,12.709,0,0,0,5.31-.481c.82-.255,1.682-.383,2.5-.649a10.7,10.7,0,0,0,1.418-.673ZM215.25,200.014a34.959,34.959,0,0,1-9.514,3.916,11.35,11.35,0,0,1,1.345,1.105,6.59,6.59,0,0,1,.985,1.249c1.106-.5,2.273-1.027,3.532-1.562s2.442-1,3.508-1.442c.583-.241,1.062-.438,1.442-.553a4.313,4.313,0,0,1,.937-.192c.327-.024.52-.091.553-.216s-.1-.294-.384-.481c-.39-.246-.791-.5-1.2-.817s-.812-.661-1.2-1.009Zm8.025.24-2.042,1.994c1.67.585,3.39,1.3,5.142,2.09a40.392,40.392,0,0,1,4.589,2.4l2.307-2.5c-1.494-.748-3.049-1.439-4.685-2.09S225.176,200.86,223.275,200.255ZM200.354,223.8c-.033.21-.145.463-.072.625.421.928.894,1.826,1.345,2.739a7.5,7.5,0,0,0,1.658,2.258,15.936,15.936,0,0,0,2.667,2.5c.565.317.846,1.094,1.321,1.61a13.612,13.612,0,0,0,2.018,1.946c.427.3.681,1.14,1.49.721a6.782,6.782,0,0,0-.721-1.682,13.714,13.714,0,0,0-1.634-1.778.909.909,0,0,0-.072-.336.518.518,0,0,0-.577-.216,12.417,12.417,0,0,1-1.586-1.706c-1.764-2.186-3.607-4.324-5.43-6.463-.092-.109-.272-.144-.408-.216Zm71.43.5-2.234,13.166h2.066l.481-3.027h2.09l.457,3.027h2.09l-2.21-13.166Zm-25.468.384a3,3,0,0,0-1.85.553,3.242,3.242,0,0,0-1.2,2.739,3.948,3.948,0,0,0,.432,1.85,7.664,7.664,0,0,0,1.418,1.706c.785.743,1.361,1.286,1.754,1.658a2.429,2.429,0,0,1,.745,1.634,1.659,1.659,0,0,1-.192.889,1.2,1.2,0,0,1-1.033.625,1,1,0,0,1-.817-.36,2.84,2.84,0,0,1-.625-1.658l-1.9.144a5.106,5.106,0,0,0,.456,1.85,3.257,3.257,0,0,0,1.009,1.3,3.086,3.086,0,0,0,1.922.577,3.741,3.741,0,0,0,1.105-.144,2.585,2.585,0,0,0,1.369-.937,3.707,3.707,0,0,0,.721-2.355,3.646,3.646,0,0,0-.288-1.273,5.76,5.76,0,0,0-.312-.625,6.684,6.684,0,0,0-1.129-1.442c-.147-.154-.45-.431-.913-.817a6.726,6.726,0,0,1-.889-.841,2.9,2.9,0,0,1-.793-1.826,1.837,1.837,0,0,1,.24-.961.993.993,0,0,1,1.61-.168,2.257,2.257,0,0,1,.481,1.249l1.9-.336a3.756,3.756,0,0,0-.432-1.514,2.767,2.767,0,0,0-.961-1.033,3.393,3.393,0,0,0-1.826-.481Zm5.742.168v13.166h1.994V232.45h2.379v5.574h1.994V224.857h-1.994v5.6h-2.379v-5.6Zm8.986.1V238.12h3.7a2.81,2.81,0,0,0,1.49-.457,2.851,2.851,0,0,0,1.057-1.081,4.467,4.467,0,0,0,.457-2.138,5.216,5.216,0,0,0-.072-.913,3.842,3.842,0,0,0-.456-1.3,2.3,2.3,0,0,0-1.105-1.009,1.907,1.907,0,0,0,.673-.5,3.144,3.144,0,0,0,.721-2.138,4.554,4.554,0,0,0-.192-1.394,2.894,2.894,0,0,0-1.153-1.634,3.822,3.822,0,0,0-2.138-.6h-2.979Zm-23.546.168a3.118,3.118,0,0,0-3.147,3.147v7.208a2.992,2.992,0,0,0,.913,2.21,3.161,3.161,0,0,0,4.445,0,2.985,2.985,0,0,0,.937-2.21v-1.85H238.58v1.826a1.061,1.061,0,0,1-.336.793,1.131,1.131,0,0,1-.817.336,1.149,1.149,0,0,1-1.129-1.129v-7.232a1.078,1.078,0,0,1,.336-.793,1.061,1.061,0,0,1,.793-.336,1.12,1.12,0,0,1,.817.336,1.065,1.065,0,0,1,.336.793v1.562h2.066v-1.514a3.067,3.067,0,0,0-.913-2.234A3.017,3.017,0,0,0,237.5,225.122Zm25.708,1.85h.817a1.262,1.262,0,0,1,.961.384,1.7,1.7,0,0,1,.408,1.225,2.634,2.634,0,0,1-.12.841,1.233,1.233,0,0,1-1.249.913h-.817Zm9.947.36.721,5.19h-1.466Zm-9.947,4.9h.817a1.386,1.386,0,0,1,1.129.456,2.507,2.507,0,0,1,.408,1.61,2.275,2.275,0,0,1-.12.817,1.447,1.447,0,0,1-1.418,1.057h-.817v-3.94Zm-65.808.553a.58.58,0,0,0-.24.072.522.522,0,0,0-.216.408,3.33,3.33,0,0,0,.288,1.273c1.152,1.865,2.29,3.732,3.58,5.5a3.9,3.9,0,0,0,2.595,1.586c.126-.741.689-1.412.288-2.21a10.373,10.373,0,0,0-1.514-2.739c-1.4-1.4-3-2.607-4.541-3.868a.379.379,0,0,0-.24-.024Zm15.833,5.166c-.116.008-.25.027-.36.024.043.209.08.4.168.817.807.615,1.712,1.347,2.643,2.018.888.64,1.548.76,1.61.384.113-.7-.505-.921-.889-1.225-.566-.448-1.169-.851-1.778-1.249.012-.084,0-.174-.024-.192a1,1,0,0,0-.384-.1c0,.008,0,.016,0,.024-.233-.15-.465-.308-.7-.456a.468.468,0,0,0-.288-.048Zm-7.4,4.469c-.223.048-.541.15-.6.312a.726.726,0,0,0,.168.673c.674.53,1.394,1.024,2.114,1.49a.469.469,0,0,0,.456-.1,1.045,1.045,0,0,0,.216-.7,1.991,1.991,0,0,0-1.8-1.562A1.431,1.431,0,0,0,205.832,242.42Zm17.779,2.691c.06.05.1.116.168.144.114.046.242.083.36.12a1.112,1.112,0,0,0-.216-.24c-.076-.054-.2-.018-.312-.024Zm.529.264c.03.038.064.061.1.1.022-.008.049-.013.072-.024l-.072-.048c-.031-.011-.065-.015-.1-.024Zm.168.072c1.257.806,2.5,1.621,3.772,2.4.139.086.4-.029.6-.048a2.9,2.9,0,0,0-.144-.817.9.9,0,0,0-.529-.432,12.336,12.336,0,0,1-3.2-1.3c-.1-.059-.317.1-.5.192Zm-14.248,1.081-.144.192c.054.051.114.093.168.144.046-.056.129-.121.12-.168C210.193,246.633,210.114,246.587,210.061,246.529Zm1.754.577a1.2,1.2,0,0,0-.432.288c-.062.059,0,.371.1.456,1.379,1.18,2.393,2.778,4.277,3.388a11.484,11.484,0,0,1,2.427,1.562,8.8,8.8,0,0,0,1.321.817c2.477,1.046,4.983,2.055,7.472,3.075.014-.03.01-.065.024-.1.332.089.673.19,1.009.264.068.015.205-.027.216-.072.038-.159.1-.417.024-.481a9.7,9.7,0,0,0-1.826-1.442c-2.5-1.259-5.01-2.521-7.592-3.6a6.62,6.62,0,0,1-1.97-1.177,12.036,12.036,0,0,0-4.9-2.979.294.294,0,0,0-.144,0Zm19.605,1.442c-.055-.015-.148.059-.216.1.043.139.059.374.144.408.924.379,1.841.739,2.787,1.057.125.042.374-.162.5-.312.046-.053-.054-.382-.144-.408C233.474,249.082,232.451,248.82,231.42,248.547Zm6.823,1.682c-.55,0-1,.211-.841.36a3.364,3.364,0,0,0,1.129.481c1.014.367,2.043.7,3.051,1.081a9.8,9.8,0,0,1,1.009.5,2.75,2.75,0,0,0-2.018-1.73c-.6-.127-1.183-.429-1.778-.6A1.98,1.98,0,0,0,238.243,250.229Zm4.349,2.427c.131-.065.273-.193.384-.168,1.455.327,2.942.366,4.4.577,1.323.191,2.644-.032,3.94.264.388.089.756-.262.6-.481-.124-.175-.32-.4-.5-.408a19.364,19.364,0,0,0-3.268-.12,5.354,5.354,0,0,1-2.979-.457C243.976,251.274,243.253,251.752,242.592,252.656Zm17.347-.384c-1.154.038-2.308.066-3.46.144-.2.013-.363.238-.553.36.208.183.391.486.625.529a5.094,5.094,0,0,0,2.763.024,7.74,7.74,0,0,0,.745-.36,3.67,3.67,0,0,0,.072-.553c0-.05-.132-.146-.192-.144Zm2.691.529c.041.13.056.314.144.384s.265.048.408.072c0-.129.005-.259,0-.456h-.553Z" transform="translate(10512.335 1685.246)"/></svg>