<svg xmlns="http://www.w3.org/2000/svg" viewBox="15403.6 1684.66 180.621 181.14"><defs><style>.a{fill:#d9a652;}</style></defs><g transform="matrix(0.985, 0.174, -0.174, 0.985, 15324.319, 1391.103)"><path class="a" d="M237.54,270.612c-3.555.118-7.1-.027-10.668.24a70.833,70.833,0,0,0-13.839,2.547c-1.278.359-2.587.663-3.844,1.081a19.7,19.7,0,0,0-4.949,1.9,10.762,10.762,0,0,1-4.565,1.754c-.34.055-.832.128-.961.36-.754,1.361-2.216,1.717-3.412,2.379a24.815,24.815,0,0,0-5.55,3.6,18.4,18.4,0,0,1-2.523,1.49c-.875.6-1.994,1.133-2.427,1.994-.578,1.149-1.75.726-2.4,1.417-.3.322-.656.591-.961.913-4.029,4.25-8.058,8.509-11.8,13.022a7.731,7.731,0,0,0-.769,1.081c-1.361,2.372-2.735,4.743-4.06,7.136a14.267,14.267,0,0,0-1.946,4.373,7.615,7.615,0,0,1-.793,1.97c-.977,1.97-2.343,3.794-2.018,6.2a1.538,1.538,0,0,1-.336.985,3.393,3.393,0,0,0-.6,2.523,1.477,1.477,0,0,1-.288.985,2.479,2.479,0,0,0-.481,1.73,3.556,3.556,0,0,1-.336,1.538c-1.56,3.2-1.135,6.8-2.066,10.139-.383,1.372.149,3,.12,4.493-.035,1.831.867,3.648.048,5.5a2.935,2.935,0,0,0,.024,1.321c.082.883.147,1.768.288,2.643a4.731,4.731,0,0,0,.456,1.49,15.249,15.249,0,0,1,1.538,7.208,9.369,9.369,0,0,0,.168,1.538,15.324,15.324,0,0,1,.457,2.331,8.71,8.71,0,0,0,.745,3.34,21.729,21.729,0,0,1,1.057,3.027,29.127,29.127,0,0,0,2.5,6.2c.921,1.728,1.934,3.393,2.859,5.118a20.535,20.535,0,0,0,1.369,2.162,3.12,3.12,0,0,0,1.9,2.523c.088.04.19.11.288.168.161.176.316.356.481.529.171,1.408,1.832,1.809,2.066,3.147a.318.318,0,0,0,.192.192,1.318,1.318,0,0,0,.721.048.674.674,0,0,0,.264-.6c-.113-.416-.242-.973-.553-1.153-1.281-.746-1.492-2.088-2.018-3.268a21.605,21.605,0,0,0-1.009-2.066c-.049-.279-.1-.546-.168-.817a4.193,4.193,0,0,0-.7-1.418,30.762,30.762,0,0,1-4.517-9.875c-1.252-4.156-2.554-8.306-3.484-12.542-.389-1.777-1.191-3.533-.913-5.454.059-.411-.211-.859-.264-1.3a29.1,29.1,0,0,1-.312-3.2c-.035-3.361.009-6.728.024-10.091a10.532,10.532,0,0,1,.1-1.321,113.43,113.43,0,0,1,2.955-14.872c.875-3.262,1.844-6.507,3.892-9.3a2.722,2.722,0,0,0,.408-1.249,6.5,6.5,0,0,1,1.273-2.907c1.548-2.266,3.244-4.432,4.661-6.775a63.727,63.727,0,0,1,7.5-9.322c1.191-1.327,2.608-2.409,3.8-3.7a28.4,28.4,0,0,1,6.007-5.142c2.562-1.584,5.041-3.3,7.688-4.781.16-.09.32-.177.48-.264a5.1,5.1,0,0,0,1.85-1.009,50.436,50.436,0,0,1,5.358-2.354,67.041,67.041,0,0,1,12.734-3.868c2.283-.363,4.51-1.126,6.8-1.249a118.372,118.372,0,0,1,17.323.216,94.228,94.228,0,0,1,10.764,2.018,61.13,61.13,0,0,1,6.679,1.778c2.176.726,4.284,1.688,6.415,2.547.079.032.114.127.192.168q1.89.97,3.8,1.922a15.485,15.485,0,0,1,1.682.793c2.221,1.47,4.44,2.945,6.607,4.493,2.31,1.648,4.531,3.405,6.847,5.045.7.492.987,1.5,2.018,1.538.43-1.051-.524-1.707-.793-2.547a4.975,4.975,0,0,0-1.634-2.643c-1.981-1.489-3.85-3.142-5.79-4.685a49.949,49.949,0,0,0-8.866-5.838,11.411,11.411,0,0,0-3.94-1.466,6.8,6.8,0,0,1-2.355-1.177,11.251,11.251,0,0,0-1.778-1.153c-3.274-1.1-6.351-2.762-9.875-3.2-2.536-.311-4.991-1.161-7.52-1.586-1.1-.184-2.307.247-3.436.144-1.218-.111-2.3-.943-3.6-.793a2.6,2.6,0,0,1-.264-.024Zm-8.433,9.8a18.721,18.721,0,0,0-2.571.336c-2.943.416-5.891.757-8.818,1.273a29.707,29.707,0,0,0-4.973,1.345,65.053,65.053,0,0,0-6.968,2.811c-1.189.595-2.506.929-3.652,1.586-2.315,1.324-4.546,2.816-6.823,4.2a25.365,25.365,0,0,0-3.1,2.475,24.5,24.5,0,0,1-3.508,3.027,1.928,1.928,0,0,0-.7.889,3.517,3.517,0,0,1-1.105,1.442c-.174.1-.34.2-.5.312-.043.021-.076.054-.12.072a3.242,3.242,0,0,0-1.85,1.85c-.126.041-.273.151-.7.36-.415.461-1.107,1.18-1.73,1.97-.134.169-.005.586.072.865a.964.964,0,0,0,.6-.048,6.805,6.805,0,0,0,2.427-2.379,3.161,3.161,0,0,0,1.586-1.682,1.925,1.925,0,0,1,.817-.841,60.879,60.879,0,0,0,5.79-4.349,10.044,10.044,0,0,1,1.586-.961,15.1,15.1,0,0,0,3.123-1.994,5.347,5.347,0,0,1,1.754-1.009,23.168,23.168,0,0,0,3.292-1.778,10.365,10.365,0,0,1,1.418-.817c2.725-.987,5.463-1.911,8.193-2.883a11.653,11.653,0,0,0,1.273-.6,3.683,3.683,0,0,1,.817-.432c2.893-.584,5.8-1.159,8.7-1.706,1.447-.273,2.96.012,4.373-.577a1.184,1.184,0,0,1,.7-.024,11.55,11.55,0,0,0,5.118.048,31.123,31.123,0,0,1,8.89-.024,3.464,3.464,0,0,0,1.153.072c.32-.084.84-.052.841-.577,0-.088-.525-.172-.817-.24-1.291-.3-2.587-.58-3.868-.913a42.555,42.555,0,0,0-10.716-1.105Zm20.927,3.34c-.671.008-.954.319-.7.817.358.689.567.868,1.273.577a1.3,1.3,0,0,1,1.8.408,3.72,3.72,0,0,0,2.451,1.273,11.4,11.4,0,0,1,3.34,1.033,4.788,4.788,0,0,0,1.562.481,1.9,1.9,0,0,0,1.706-.433c.255-.288-.37-.849-1.225-1.177-.942-.361-1.871-.785-2.811-1.153a5.605,5.605,0,0,0-1.538-.5c-2.024-.156-3.806-1.336-5.862-1.322Zm12.662,4.589a2.212,2.212,0,0,0-.625.288.956.956,0,0,0,.192.577c.121.123.256.225.384.336.014.091.035.177.048.264.008.058.1.105.168.144,1.4.85,2.8,1.721,4.229,2.523a9.962,9.962,0,0,0,2.138.889,3.742,3.742,0,0,1,1.946,1.249,11.2,11.2,0,0,0,1.682,1.61,47.312,47.312,0,0,0,4.517,3.364c.049.03.1.065.144.1.1.231.211.457.288.649.5.31.832.531,1.177.7a.27.27,0,0,0,.192,0c.9.868,1.689,1.834,2.547,2.739.1.11.2.242.288.36a.344.344,0,0,0,.024.168.449.449,0,0,0,.264.192,2.381,2.381,0,0,0,.889.745,1.96,1.96,0,0,1,.769.865c.008.015.016.032.024.048a3.4,3.4,0,0,0,.312.649,2.844,2.844,0,0,0,.577.745,31.954,31.954,0,0,1,3.219,4.805,6.282,6.282,0,0,0,1.081,1.538,1.091,1.091,0,0,0,1.49.12,15.6,15.6,0,0,0-3.027-5c-2.005-2.2-3.928-4.472-5.814-6.775a24.971,24.971,0,0,0-5.5-5.045,13.583,13.583,0,0,1-1.73-1.562,33.279,33.279,0,0,0-6.151-4.3,13.218,13.218,0,0,1-1.562-1.033,7.128,7.128,0,0,0-2.379-1.177c-.481-.251-1.02-.516-1.61-.769a.368.368,0,0,0-.192,0Zm-28.351,4.229-2.835,13.046,2.066.1.625-3,2.066.1.336,3.051,2.09.1-1.61-13.262Zm-6.2.793-2.066.336-.048,10.379-3.22-9.875-2.066.336,4.373,12.638,2.691-.433.336-13.382Zm15.761,1.129-2.955,12.854,5.286,1.2.432-1.922-3.34-.769,2.5-10.908Zm-8.337,1.153.481,5.214-1.466-.072.985-5.142Zm17.491.889-3.94,9.394a3.146,3.146,0,0,0,1.706,4.108,3.066,3.066,0,0,0,2.4.024,3,3,0,0,0,1.706-1.706l3.94-9.394-1.9-.793-3.94,9.37a1.128,1.128,0,0,1-.625.625,1.2,1.2,0,0,1-1.49-.625,1.127,1.127,0,0,1,0-.889l3.94-9.37-1.8-.745Zm-40.628.889a4.186,4.186,0,0,0-1.418.36l-2.883,1.2,5.046,12.157,1.85-.769-1.922-4.589,1.057-.432c.058-.025.119-.045.168-.072l3.027,4.108,1.994-.817-3.58-4.733a3.084,3.084,0,0,0,.072-2.595l-.745-1.778a3.284,3.284,0,0,0-1.49-1.778,2.358,2.358,0,0,0-1.177-.264Zm-.1,2.066c.448-.032.765.239.985.769l.745,1.754a1.149,1.149,0,0,1,0,.889,1.074,1.074,0,0,1-.6.625l-1.105.456-1.634-3.892,1.105-.457a1.725,1.725,0,0,1,.5-.144Zm50.839.841-7.136,11.1,4.757,3.051,1.081-1.658-3.075-1.994,1.946-3.027,2.258,1.442,1.057-1.682-2.234-1.442,1.946-3.027,3.075,1.97,1.081-1.658Zm-58.119,1.61-1.73,1.153L208.9,311.6a1.065,1.065,0,0,1,.168.841,1.12,1.12,0,0,1-.5.721,1.068,1.068,0,0,1-.841.168,1.08,1.08,0,0,1-.721-.48l-5.574-8.505-1.634,1.057,5.574,8.529a3.036,3.036,0,0,0,1.994,1.345,3,3,0,0,0,2.355-.457,3.057,3.057,0,0,0,1.37-1.97,3,3,0,0,0-.432-2.379l-5.6-8.529Zm89.882,1.562a6.454,6.454,0,0,0-.024,1.538,2.5,2.5,0,0,0,.7,1.105,2.188,2.188,0,0,1,.817,1.586,2.636,2.636,0,0,0,.48,1.2,98.039,98.039,0,0,1,5.742,11.1c0,.018-.025.034-.024.048a3.756,3.756,0,0,0,.1.745,35.344,35.344,0,0,1,1.442,5.262,4.468,4.468,0,0,0,1.85,2.955c.381,1.39.711,2.795.985,4.2a3.917,3.917,0,0,0,0,.529,1.47,1.47,0,0,0,.144.432c.014-.011.034-.015.048-.024.01.055.014.113.024.168-.018-.008-.03-.018-.048-.024a9.077,9.077,0,0,0,.745,4.445c.368,2.482.861,5.026.384,7.592a14.544,14.544,0,0,0,.144,2.379,58.162,58.162,0,0,1-.216,6.92c-.418,3.162-1.15,6.283-1.754,9.418-.331,2.237-1.373,4.234-2.066,6.343a38.041,38.041,0,0,1-4.157,9.178,2.037,2.037,0,0,0-.384.985,5.8,5.8,0,0,1-1.153,2.667c-.638,1.164-1.783,2.17-2.018,3.388-.324,1.677-1.551,2.269-2.571,3.2-.312.283-.421.768-.673,1.129a38.41,38.41,0,0,1-2.5,3.436,30.956,30.956,0,0,1-3.075,2.931c-1.34,1.162-2.725,2.278-4.108,3.388a9.74,9.74,0,0,0-3.244,3.628,3.373,3.373,0,0,1-1.562,1.37,16.531,16.531,0,0,0-3.628,2.643,14.7,14.7,0,0,1-3.364,2.451c-4.032,2-8.047,4.145-12.277,5.79a10.074,10.074,0,0,0-1.97.769,4.691,4.691,0,0,1-3.412,1.081c-.393-.058-.916.435-1.3.769-.358.313-.7.633-1.153.312-1.043-.741-1.793-.308-2.547.457-.239.243-.617.628-.841.577-1.243-.288-2.415.7-3.676.144a2.065,2.065,0,0,0-1.321-.024,14.872,14.872,0,0,1-2.162.865c-.842.114-1.795-.341-2.595-.144a8.927,8.927,0,0,1-2.883.048,18.877,18.877,0,0,0-3.147.216c-1.022.1-2.052.65-3.027-.24-.175-.158-.657-.021-.985.048s-.673.263-1.009.36a33.543,33.543,0,0,1-5.6-.649c-.771-.719-1.424-.348-2.162.072a4.79,4.79,0,0,1-1.369.529.814.814,0,0,0-.312-.024.561.561,0,0,0-.192.1,3.467,3.467,0,0,1-2.5-.865,8.374,8.374,0,0,0-2.09-1.129,1.342,1.342,0,0,0-1.682.889,1.45,1.45,0,0,0-.048.24c-.128-.2-.257-.379-.432-.649-.443.206-.771.349-1.105.5.3.282.537.661.889.817.13.058.39-.183.625-.36a1.058,1.058,0,0,0,.889.865c2.406.628,4.832,1.2,7.256,1.754.857.2,1.755.259,2.619.432,1.569.316,3.144,1,4.685.913,2.324-.134,4.579.261,6.871.288a3.12,3.12,0,0,1,1.3.144,4.146,4.146,0,0,0,3.628-.144,10.64,10.64,0,0,1,4.613-.817,8.069,8.069,0,0,0,4.132-.769,5.31,5.31,0,0,1,3.123-.529,3.507,3.507,0,0,0,1.586-.1,44.389,44.389,0,0,0,4.181-1.658c.942-.439,1.73-1.068,2.715-.7a3.881,3.881,0,0,0,2.859-.6,18.141,18.141,0,0,1,3.22-1.345,29.9,29.9,0,0,0,8.529-4.108c1.427-.944,2.906-1.737,4.277-2.739a26.946,26.946,0,0,1,3.075-2.379c1.525-.82,3.252-1.56,4.012-3.412.088-.215.429-.321.625-.5,2.468-2.337,5.057-3.8,7.088-6.535,1.322-1.777,2.939-3.312,4.325-5.046a15.959,15.959,0,0,0,2.162-3.364,32.583,32.583,0,0,1,3.508-5.959,24.607,24.607,0,0,0,2.763-5.454c.4-.985.693-2.01,1.129-2.979a21.643,21.643,0,0,0,1.442-4.829,25.48,25.48,0,0,1,1.105-4.108,10.738,10.738,0,0,0,.649-3.652,10.909,10.909,0,0,1,.024-1.586,70.1,70.1,0,0,0,1.057-11.677,2.471,2.471,0,0,1,.048-.529,22.485,22.485,0,0,0,.264-7.424c-.183-1.677-.055-3.4-.36-5.046-.566-3.058-1.311-6.079-2.042-9.106-.5-2.064-1.044-4.125-1.682-6.151a17.355,17.355,0,0,0-1.778-4.421c-.963-1.448-1.037-3.21-1.994-4.613a20.47,20.47,0,0,1-1.153-2.09c-1.3-2.5-3.394-4.517-4.229-7.3a2.157,2.157,0,0,0-1.778-1.49,11.7,11.7,0,0,0-1.49-.048Zm12.229,30.826c0-.025,0-.048,0-.072l-.1.024c.035.01.061.037.1.048Zm0-.072c-.005-.016-.018-.032-.024-.048-.018.015-.03.033-.048.048S307.168,334.257,307.168,334.257Zm-125.8-27.966-.1.1.144.072-.048-.168Zm13.5,2.258a3.151,3.151,0,0,0-1.85,5.526l5.454,4.709a3.055,3.055,0,0,0,2.282.769,2.971,2.971,0,0,0,2.138-1.081,3.141,3.141,0,0,0-.312-4.445l-5.43-4.709A3.039,3.039,0,0,0,194.869,308.549Zm77,.384a3.427,3.427,0,0,0-2.162.793,4,4,0,0,0-1.2,1.49,7.325,7.325,0,0,0-.529,2.138c-.112,1.075-.184,1.89-.24,2.427a2.428,2.428,0,0,1-.841,1.586,1.569,1.569,0,0,1-.817.36,1.206,1.206,0,0,1-1.129-.432,1,1,0,0,1-.216-.865,2.814,2.814,0,0,1,.937-1.49l-1.249-1.418a5.174,5.174,0,0,0-1.225,1.466,3.2,3.2,0,0,0-.384,1.586,3.123,3.123,0,0,0,.7,1.9,3.766,3.766,0,0,0,.793.793,2.6,2.6,0,0,0,1.586.5,3.715,3.715,0,0,0,2.306-.865,3.649,3.649,0,0,0,.817-1.009,5.078,5.078,0,0,0,.312-.6,6.9,6.9,0,0,0,.456-1.8c.033-.21.048-.6.072-1.2a6.536,6.536,0,0,1,.144-1.225,2.881,2.881,0,0,1,.985-1.73,1.879,1.879,0,0,1,.913-.408.9.9,0,0,1,.889.36,1,1,0,0,1,.216.841,2.281,2.281,0,0,1-.721,1.129l1.442,1.3a3.777,3.777,0,0,0,.937-1.273,2.778,2.778,0,0,0,.24-1.393,3.379,3.379,0,0,0-.745-1.73,2.992,2.992,0,0,0-1.562-1.129,2.89,2.89,0,0,0-.721-.1Zm-76.932,1.634a1.086,1.086,0,0,1,.817.288l5.454,4.733a1.135,1.135,0,0,1,.12,1.586,1.151,1.151,0,0,1-.793.408,1.074,1.074,0,0,1-.817-.288l-5.454-4.709a1.108,1.108,0,0,1-.384-.793,1.2,1.2,0,0,1,1.057-1.225Zm95.744,3.46a5.589,5.589,0,0,0,1.706,5.094,3.106,3.106,0,0,1,.865,1.85,14.087,14.087,0,0,0,1.249,3.508,23.636,23.636,0,0,1,2.306,6.607,22.985,22.985,0,0,0,.937,3.724c.2,1.079.448,2.15.7,3.22.009.038.045.062.072.1a11.983,11.983,0,0,0,.24,2.475c0,.041.02.079.024.12a2.181,2.181,0,0,0-.144,1.345c.158.394.282.8.408,1.2a24.04,24.04,0,0,1,.12,3.388,1.431,1.431,0,0,0,.841,1.466.33.33,0,0,0-.144-.048.583.583,0,0,0-.432.192c-.367.337-.546.562-.5.841a1.965,1.965,0,0,0-.168,1.009c.035.829.019,1.645.024,2.475a4.123,4.123,0,0,0-.1,1.61,11.347,11.347,0,0,1-.144,3.484,4.8,4.8,0,0,0-.072,1.634,1.937,1.937,0,0,0,.889,1.538c.344.173.721-.579.817-1.49.1-1,.272-2,.384-3a5.739,5.739,0,0,0,.1-1.634c-.374-2,.282-4.024-.264-6.007a1.245,1.245,0,0,0-.216-.48h-.024c-.029-.021-.043-.051-.072-.072a11.128,11.128,0,0,0,.192-3.364,9.609,9.609,0,0,1,.072-2.306,2.726,2.726,0,0,0-.745-2.523c-.076-.585-.15-1.168-.216-1.754.015-.027.034-.048.048-.072a.335.335,0,0,0,.024-.24c-.06-.161-.1-.316-.144-.48-.039-.362-.084-.718-.12-1.081-.125-1.242-.476-2.471-.721-3.7a88.624,88.624,0,0,0-2.667-8.722c-.953-3.1-2.819-5.738-4.2-8.625a8.422,8.422,0,0,0-.913-1.273Zm-118.93,6.607c-.084-.024-.315.48-.456.745-.624,1.169-1.2,2.357-1.85,3.508a42.5,42.5,0,0,0-3.868,10.043,18.493,18.493,0,0,0-.336,2.571c-.359,2.951-.8,5.905-1.057,8.866a29.588,29.588,0,0,0,.024,5.142,64.753,64.753,0,0,0,.913,7.448c.267,1.3.239,2.687.577,3.964.68,2.578,1.531,5.105,2.283,7.664a25.514,25.514,0,0,0,1.586,3.652,24.472,24.472,0,0,1,2.042,4.157,1.886,1.886,0,0,0,.673.889,3.377,3.377,0,0,1,1.321,2.162,3.465,3.465,0,0,0,2.379,2.835,3.738,3.738,0,0,0-1.369-3,1.866,1.866,0,0,1-.6-.985c-.611-2.364-1.838-4.473-2.715-6.727a10.113,10.113,0,0,1-.529-1.778,15.226,15.226,0,0,0-1.105-3.556,5.313,5.313,0,0,1-.529-1.946,22.929,22.929,0,0,0-.841-3.628,10.475,10.475,0,0,1-.432-1.586c-.248-2.887-.441-5.784-.673-8.673a11.594,11.594,0,0,0-.264-1.369,3.736,3.736,0,0,1-.192-.913c.185-2.945.379-5.9.6-8.842.111-1.469.783-2.855.577-4.373a1.148,1.148,0,0,1,.168-.673,11.532,11.532,0,0,0,1.37-4.925,31.191,31.191,0,0,1,2.282-8.6,3.348,3.348,0,0,0,.36-1.081c0-.331.17-.848-.336-.985Zm4.229,63.645c0,.033,0,.063,0,.1l.024-.072C176,384.3,175.994,384.284,175.984,384.28Zm13.311-58.167a36.858,36.858,0,0,1-.889,4.589c-.459,1.848-1.084,3.916-1.85,6.175a52.692,52.692,0,0,1-3.34,7.5,49.2,49.2,0,0,1-4.3,6.655,9.608,9.608,0,0,1,1.682,1.033,8.741,8.741,0,0,1,1.538,1.466c.817-1.273,1.564-2.483,2.258-3.628s1.347-2.276,1.946-3.412v17.419c0,2.011-.054,4.054-.168,6.127s-.264,3.9-.432,5.5h4.973V336.588c.973-2.513,1.719-4.326,2.234-5.478a7.8,7.8,0,0,1,1.033-1.946c.675-.581.982-.992.913-1.225s-.459-.411-1.177-.529c-.645-.139-1.374-.324-2.162-.553S190.021,326.389,189.294,326.112Zm73.568,0c.053.662.09,1.457.1,2.379s0,1.928-.024,3.027c-2.743-.025-5.179-.078-7.28-.144s-3.972-.154-5.622-.288v4.253c1.627-.106,3.472-.172,5.55-.216s4.47-.1,7.136-.12a52.816,52.816,0,0,1-.553,5.31c-2.2-.029-4.066-.074-5.6-.144s-2.8-.156-3.8-.24c.083.75.143,1.752.192,3.027s.071,2.263.072,2.931v23.93c-1.866-.055-3.6-.173-5.19-.336V373.8c.8-.073,1.819-.144,3.051-.192s3.038-.072,5.406-.1,5.648-.048,9.851-.048c6.269,0,10.67.049,13.19.12s4.2.153,5.094.264V369.48c-.977.108-1.941.2-2.931.264s-2.038.094-3.123.12V345.886c0-.938.015-2.012.048-3.2s.087-2.1.168-2.763c-1.229.135-2.818.228-4.757.288s-4.4.1-7.376.1c.209-2.067.4-3.843.553-5.31,3.649-.026,6.853-.008,9.586.048s5.06.151,7.016.288v-4.253q-2.859.242-6.871.336t-9.3.1a16.706,16.706,0,0,1,.673-2.931,2.743,2.743,0,0,1,.817-1.273c.294-.252.408-.468.36-.625s-.221-.213-.529-.192a22.074,22.074,0,0,1-2.859-.048c-1.2-.08-2.215-.195-3.051-.336Zm-18.62.1c-.418,1.473-.922,3.1-1.538,4.853s-1.3,3.494-2.018,5.214a37.2,37.2,0,0,1-3.075,5.838,47.633,47.633,0,0,1-3.8,5.142,12.77,12.77,0,0,1,2.018,1.586,10.5,10.5,0,0,1,1.466,1.85c.577-.876,1.188-1.833,1.826-2.859s1.287-2.119,1.946-3.268v19.773c0,2.015-.054,4.095-.168,6.2s-.264,3.944-.432,5.55h4.973V336.371c.391-.828.768-1.629,1.105-2.4a30.27,30.27,0,0,1,1.586-3.243,3.261,3.261,0,0,1,.961-1.177c.518-.282.766-.562.745-.817s-.294-.434-.841-.553a13.5,13.5,0,0,1-2.138-.745q-1.311-.553-2.619-1.225Zm-49.109,2.355v4.325c1.375-.107,2.89-.2,4.565-.264s3.467-.093,5.334-.12v3.484c-1.855,0-3.594-.03-5.19-.072s-3.081-.087-4.445-.144c.083.7.167,1.556.216,2.547s.071,2,.072,3.027-.009,2.024-.048,3a24.156,24.156,0,0,1-.24,2.571q2.726-.042,6.343-.072c2.411-.022,5.688-.048,9.827-.048,3.721,0,6.84.022,9.346.048s4.695.065,6.559.12c-.055-.7-.093-1.551-.12-2.547s-.048-2.017-.048-3.075.021-2.059.048-3.027.066-1.822.12-2.547c-2.731.1-5.944.171-9.659.216V332.5c2.87.031,5.138.073,6.847.144s3.172.157,4.349.24v-4.325c-1.625.222-3.679.4-6.151.529s-6.114.189-10.908.192q-6.547,0-10.475-.192c-2.623-.126-4.737-.307-6.343-.529Zm13.431,3.94h5.574v3.484h-5.574Zm-9.058,6.559h5.526v4.805h-5.526Zm9.058,0h5.574v4.805h-5.574Zm9.25,0h5.55v4.805h-5.55Zm39.379,4.733h16.987v3.988H257.192Zm-59.753,5.358c.057.415.1,1.035.144,1.826s.07,1.559.072,2.331v10.331c0,.759-.015,1.514-.048,2.259a15.58,15.58,0,0,1-.168,1.826c.9-.055,1.794-.1,2.691-.12s2.182-.018,3.844-.024,4.085-.024,7.28-.024c3.333,0,5.832.017,7.5.024s2.915,0,3.772.024,1.755.066,2.667.12A14.194,14.194,0,0,1,225,365.9c-.033-.755-.049-1.5-.048-2.259V353.31c0-.767.015-1.55.048-2.331a13.247,13.247,0,0,1,.192-1.826c-1.342.107-2.979.177-4.9.216s-4.934.075-9.034.072c-4.075,0-7.075-.034-8.986-.072s-3.513-.109-4.829-.216Zm59.753,1.754h16.987v4.253H257.192Zm-55.4,1.249H220.7v2.619H201.788Zm0,5.094H220.7v2.4H201.788Zm55.4.985h16.987v4.2H257.192Zm40.772,3.724a.236.236,0,0,0-.192.12c-.176.758-.34,1.52-.5,2.283-.306,1.032-.624,2.057-.889,3.1a10.017,10.017,0,0,0-.288,2.307c0,.107-.016.21-.024.312a.7.7,0,0,0-.336.312c-.267.771-.581,1.526-.793,2.306a12.017,12.017,0,0,0-.673,1.321,47.22,47.22,0,0,0-2.09,5.238c-.044.15-.093.288-.144.432a2.646,2.646,0,0,0-.577.769c-.279.549-.712,1.031-1.033,1.562a1.993,1.993,0,0,0-.264,1.129c-.3.454-.6.906-.889,1.37a6.422,6.422,0,0,0-.985,1.61c-.223.366-.434.734-.649,1.105-.016.015-.032.033-.048.048s0,.018,0,.024a42.846,42.846,0,0,0-3.219,3.82.911.911,0,0,0-.36.336c-.05.091-.116.174-.168.264a11.965,11.965,0,0,1-1.2,1.177,6.233,6.233,0,0,0-1.2,1.442,1.067,1.067,0,0,0,.264,1.466,15.532,15.532,0,0,0,4.036-4.2c1.606-2.505,3.309-4.958,5.046-7.376a25.069,25.069,0,0,0,3.46-6.631,13.669,13.669,0,0,1,1.057-2.09,33.014,33.014,0,0,0,2.571-7.016,13.428,13.428,0,0,1,.577-1.8,9.8,9.8,0,0,0,.553-3.916c0-.177-.215-.531-.336-.528a1.058,1.058,0,0,0-.168.048c-.009-.039-.017-.083-.024-.12a3.72,3.72,0,0,0-.5-.216ZM281.7,395.812a5.612,5.612,0,0,0-4.493,3,3.072,3.072,0,0,1-1.562,1.3,14.112,14.112,0,0,0-3.051,2.138,23.594,23.594,0,0,1-5.79,3.916,14.343,14.343,0,0,0-1.3.625.388.388,0,0,0-.072-.024.637.637,0,0,0-.192.024.493.493,0,0,0-.336.36c-1.061.628-2.089,1.335-3.147,1.97-.262.157-.516.483-.769.48a7.657,7.657,0,0,0-2.883.913,39.033,39.033,0,0,1-5.742,1.97c-.944.205-1.032.709-1.249,1.3a13.066,13.066,0,0,0,4.949-1.369c2.057-.954,4.154-1.792,6.271-2.595,1.167-.442,2.24-1.079,3.364-1.634a88.944,88.944,0,0,0,7.736-4.853c2.745-1.722,4.826-4.185,7.256-6.271a8.99,8.99,0,0,0,1.009-1.249Zm-30.585,17.972h-.024c-.01.008-.014.019-.024.024.01.016.015.032.024.048C251.1,413.83,251.1,413.809,251.113,413.784Zm-.048.024a1.675,1.675,0,0,0-2.138-.841,63.415,63.415,0,0,0-7.112,2.258,1.663,1.663,0,0,0-.336.264,1.845,1.845,0,0,0,.36.12,12.71,12.71,0,0,0,5.31-.481c.82-.255,1.682-.383,2.5-.649A10.7,10.7,0,0,0,251.065,413.808Zm-49.278-51.656H220.7v2.475H201.788Zm55.4,3.388h16.987v4.325H257.192Zm-50.815,2.306a47.6,47.6,0,0,1-12.782,5.238,15.212,15.212,0,0,1,1.8,1.514,8.732,8.732,0,0,1,1.321,1.658c1.486-.67,3.066-1.373,4.757-2.09s3.253-1.358,4.685-1.946c.783-.324,1.436-.567,1.946-.721a6.01,6.01,0,0,1,1.273-.264c.439-.031.7-.144.745-.312s-.124-.374-.5-.625c-.524-.331-1.083-.71-1.634-1.129S206.9,368.313,206.377,367.845Zm10.764.312-2.715,2.691c2.244.787,4.542,1.722,6.9,2.787a53.966,53.966,0,0,1,6.151,3.22l3.123-3.34c-2.008-1-4.12-1.937-6.319-2.811S219.694,368.972,217.14,368.158Zm-39.643,18.5c-.033.21-.145.463-.072.625.421.928.894,1.826,1.345,2.739a7.5,7.5,0,0,0,1.658,2.258,15.938,15.938,0,0,0,2.667,2.5c.565.317.846,1.094,1.321,1.61a13.611,13.611,0,0,0,2.018,1.946c.427.3.681,1.14,1.49.721a6.782,6.782,0,0,0-.721-1.682,13.714,13.714,0,0,0-1.634-1.778.908.908,0,0,0-.072-.336.518.518,0,0,0-.577-.216,12.424,12.424,0,0,1-1.586-1.706c-1.764-2.186-3.607-4.323-5.43-6.463-.092-.109-.272-.144-.408-.216Zm71.43.5-2.234,13.166h2.066l.481-3.027h2.09l.456,3.027h2.09l-2.21-13.166Zm-25.468.384a3,3,0,0,0-1.85.553,3.242,3.242,0,0,0-1.2,2.739,3.947,3.947,0,0,0,.432,1.85,7.665,7.665,0,0,0,1.418,1.706c.785.743,1.361,1.286,1.754,1.658a2.429,2.429,0,0,1,.745,1.634,1.659,1.659,0,0,1-.192.889,1.2,1.2,0,0,1-1.033.625,1,1,0,0,1-.817-.36,2.84,2.84,0,0,1-.625-1.658l-1.9.144a5.1,5.1,0,0,0,.456,1.85,3.257,3.257,0,0,0,1.009,1.3,3.086,3.086,0,0,0,1.922.577,3.745,3.745,0,0,0,1.105-.144,2.585,2.585,0,0,0,1.369-.937,3.707,3.707,0,0,0,.721-2.354,3.647,3.647,0,0,0-.288-1.273,5.769,5.769,0,0,0-.312-.625,6.683,6.683,0,0,0-1.129-1.442c-.147-.154-.45-.431-.913-.817a6.727,6.727,0,0,1-.889-.841,2.9,2.9,0,0,1-.793-1.826,1.837,1.837,0,0,1,.24-.961.993.993,0,0,1,1.61-.168,2.257,2.257,0,0,1,.481,1.249l1.9-.336a3.756,3.756,0,0,0-.432-1.514,2.767,2.767,0,0,0-.961-1.033A3.393,3.393,0,0,0,223.459,387.547Zm5.742.168v13.166H231.2v-5.574h2.379v5.574h1.994V387.715h-1.994v5.6H231.2v-5.6Zm8.986.1v13.166h3.7a2.811,2.811,0,0,0,1.49-.457,2.852,2.852,0,0,0,1.057-1.081,4.468,4.468,0,0,0,.457-2.138,5.217,5.217,0,0,0-.072-.913,3.843,3.843,0,0,0-.456-1.3,2.3,2.3,0,0,0-1.105-1.009,1.908,1.908,0,0,0,.673-.5,3.144,3.144,0,0,0,.721-2.138,4.554,4.554,0,0,0-.192-1.393,2.894,2.894,0,0,0-1.153-1.634,3.822,3.822,0,0,0-2.138-.6h-2.979Zm-23.546.168a3.118,3.118,0,0,0-3.147,3.147v7.208a2.992,2.992,0,0,0,.913,2.21,3.161,3.161,0,0,0,4.445,0,2.985,2.985,0,0,0,.937-2.21v-1.85h-2.066v1.826a1.06,1.06,0,0,1-.336.793,1.131,1.131,0,0,1-.817.336,1.149,1.149,0,0,1-1.129-1.129v-7.232a1.078,1.078,0,0,1,.336-.793,1.061,1.061,0,0,1,.793-.336,1.12,1.12,0,0,1,.817.336,1.065,1.065,0,0,1,.336.793v1.562h2.066v-1.514a3.067,3.067,0,0,0-.913-2.234A3.017,3.017,0,0,0,214.642,387.979Zm25.708,1.85h.817a1.262,1.262,0,0,1,.961.384,1.7,1.7,0,0,1,.408,1.225,2.635,2.635,0,0,1-.12.841,1.234,1.234,0,0,1-1.249.913h-.817Zm9.947.36.721,5.19h-1.466Zm-9.947,4.9h.817a1.386,1.386,0,0,1,1.129.456,2.507,2.507,0,0,1,.408,1.61,2.275,2.275,0,0,1-.12.817,1.447,1.447,0,0,1-1.418,1.057h-.817Zm-65.808.553a.581.581,0,0,0-.24.072.522.522,0,0,0-.216.408,3.329,3.329,0,0,0,.288,1.273c1.152,1.865,2.29,3.732,3.58,5.5a3.9,3.9,0,0,0,2.595,1.586c.126-.741.689-1.412.288-2.21a10.373,10.373,0,0,0-1.514-2.739c-1.4-1.4-3-2.607-4.541-3.868a.379.379,0,0,0-.24-.024Zm15.833,5.166c-.116.008-.25.027-.36.024.043.209.08.4.168.817.807.615,1.712,1.347,2.643,2.018.888.64,1.548.76,1.61.384.113-.7-.505-.921-.889-1.225-.566-.448-1.169-.851-1.778-1.249.012-.084,0-.174-.024-.192a1,1,0,0,0-.384-.1c0,.008,0,.016,0,.024-.233-.15-.465-.308-.7-.456a.468.468,0,0,0-.288-.048Zm-7.4,4.469c-.223.048-.541.15-.6.312a.726.726,0,0,0,.168.673c.674.53,1.394,1.024,2.114,1.49a.469.469,0,0,0,.456-.1,1.045,1.045,0,0,0,.216-.7,1.991,1.991,0,0,0-1.8-1.562,1.43,1.43,0,0,0-.553-.12Zm17.779,2.691c.06.05.1.116.168.144.114.046.242.083.36.12a1.11,1.11,0,0,0-.216-.24c-.077-.054-.2-.018-.312-.024Zm.529.264c.03.038.064.061.1.1.022-.008.049-.013.072-.024l-.072-.048c-.031-.011-.065-.015-.1-.024Zm.168.072c1.257.805,2.5,1.621,3.772,2.4.139.086.4-.029.6-.048a2.9,2.9,0,0,0-.144-.817.9.9,0,0,0-.529-.432,12.335,12.335,0,0,1-3.2-1.3c-.1-.059-.317.1-.5.192ZM187.2,409.387l-.144.192c.054.051.114.093.168.144.046-.056.129-.121.12-.168-.011-.065-.091-.11-.144-.168Zm1.754.577a1.2,1.2,0,0,0-.432.288c-.062.059,0,.372.1.457,1.379,1.18,2.393,2.778,4.277,3.388a11.487,11.487,0,0,1,2.427,1.562,8.8,8.8,0,0,0,1.321.817c2.477,1.046,4.983,2.055,7.472,3.075.014-.03.01-.065.024-.1.332.089.673.19,1.009.264.068.015.205-.027.216-.072.038-.159.1-.418.024-.481a9.7,9.7,0,0,0-1.826-1.442c-2.5-1.259-5.01-2.521-7.592-3.6a6.621,6.621,0,0,1-1.97-1.177,12.036,12.036,0,0,0-4.9-2.979.3.3,0,0,0-.144,0Zm19.605,1.442c-.055-.015-.148.059-.216.1.043.139.059.374.144.408.924.379,1.841.739,2.787,1.057.125.041.374-.162.5-.312.046-.053-.054-.382-.144-.408C210.617,411.94,209.594,411.678,208.563,411.405Zm6.823,1.682c-.55,0-1,.21-.841.36a3.361,3.361,0,0,0,1.129.481c1.014.367,2.043.7,3.051,1.081a9.775,9.775,0,0,1,1.009.5,2.749,2.749,0,0,0-2.018-1.73c-.6-.127-1.183-.429-1.778-.6A1.979,1.979,0,0,0,215.386,413.087Zm4.349,2.427c.131-.065.273-.193.384-.168,1.455.327,2.942.366,4.4.577,1.323.191,2.644-.032,3.94.264.388.089.756-.262.6-.481-.124-.175-.32-.4-.5-.408a19.363,19.363,0,0,0-3.268-.12,5.354,5.354,0,0,1-2.979-.456C221.119,414.132,220.4,414.609,219.735,415.514Zm17.347-.384c-1.154.038-2.308.066-3.46.144-.2.013-.363.238-.553.36.208.183.391.486.625.529a5.1,5.1,0,0,0,2.763.024,7.719,7.719,0,0,0,.745-.36,3.672,3.672,0,0,0,.072-.553c0-.05-.132-.146-.192-.144Zm2.691.529c.041.13.056.314.144.384s.265.048.408.072c0-.129.005-.259,0-.456h-.553Z" transform="translate(0)"/></g></svg>