<svg xmlns="http://www.w3.org/2000/svg" viewBox="14274.72 986.817 185.088 186.107"><defs><style>.a{fill:#bf1534;}.b{fill:none;}</style></defs><g transform="matrix(0.978, -0.208, 0.208, 0.978, 14012.486, 761.863)"><path class="a" d="M282.021,306.25a8.742,8.742,0,0,0-2.188.214,13.87,13.87,0,0,1-4.757.357,5.1,5.1,0,0,0-1.832.214c-1.583.435-3.141.942-4.71,1.427-.743.229-1.493.442-2.212.738-.185.076-.276.407-.4.619a1.426,1.426,0,0,0,.5.071,13.508,13.508,0,0,1,3.33-.309c.039,0,.08,0,.119,0,.333.017.664.069,1,.119a9.644,9.644,0,0,0,2.593.238c2.724-.358,5.44.219,8.158-.048a7.893,7.893,0,0,1,1.594.143,23.341,23.341,0,0,0,3.425.357c1.242-.046,2.423.717,3.664.261,1.2-.441,2.1.7,3.33.5.875-.145,1.86.441,2.806.547a14.264,14.264,0,0,1,3.449.951c.991.373,2,.719,3.021,1,.5.138,1.069,0,1.57.142.741.2.024.953.4,1.332a3.252,3.252,0,0,0,.571.547,20.768,20.768,0,0,0,2.521,1.427,20.643,20.643,0,0,1,3.64,2.093c2.383,1.648,4.608,3.561,7.492,4.448a12.567,12.567,0,0,1,4.544,2.664,16.072,16.072,0,0,0,3.521,2.331,8.706,8.706,0,0,1,3.782,3.235c.136.221.315.525.523.571,1.532.344,2.158,1.765,3.259,2.617,3.261,2.525,5.6,5.9,7.968,9.158a58.506,58.506,0,0,1,4.757,8.825,20.482,20.482,0,0,0,.786,2.759,20.519,20.519,0,0,1,1.094,4.044c.521,2.851.729,5.777,2.141,8.445a12.671,12.671,0,0,1,1.332,5.114,16.083,16.083,0,0,0,.832,4.139,8.665,8.665,0,0,1,.4,4.948c-.06.253-.162.581-.048.761.84,1.326.276,2.782.452,4.163.521,4.091-.2,8.154-.833,12.132a61.656,61.656,0,0,1-2.973,9.9,15.155,15.155,0,0,0-.833,3.568c-.12,1.321.043,2.871-1.57,3.664-.32.156-.43.743-.619,1.142-.795,1.678-1.573,3.37-2.379,5.043-.167.346-.324.7.1.88a1.275,1.275,0,0,0,1,0,3.013,3.013,0,0,0,.88-.952,58.181,58.181,0,0,0,4.4-8.587c.212-.47.359-.971.595-1.427.64-1.243,1.624-2.4,1.879-3.711a18.623,18.623,0,0,1,1.974-6.138c-.494-1.034.3-1.845.476-2.759a7.427,7.427,0,0,0,.285-3.33,5.358,5.358,0,0,1,.738-4.305,4.586,4.586,0,0,0,.309-2.284,10.535,10.535,0,0,1,.69-2.5.339.339,0,0,0-.072-.262c-.8-.807-.276-1.673-.071-2.474a9.313,9.313,0,0,0,.214-4.425,18.824,18.824,0,0,1-.167-3.187,39.249,39.249,0,0,0-1.284-11.561c-.343-1.372-.594-2.771-1.023-4.115-.642-2.016-1.4-4-2.117-5.994a2.522,2.522,0,0,0-.381-.69,6.907,6.907,0,0,1-1.356-3.4,5.769,5.769,0,0,0-1.379-3.116,4.723,4.723,0,0,1-1.023-1.831,13.808,13.808,0,0,0-2.569-4.567,23.2,23.2,0,0,1-2.426-3.473,20.888,20.888,0,0,0-4.9-6.233c-1.428-1.3-2.448-3-4.163-4.043a13.814,13.814,0,0,1-3.616-3.093,5.1,5.1,0,0,0-1.451-1.142c-.977-.556-1.955-1.093-2.95-1.617a42.712,42.712,0,0,0-6.422-4.662c-1.213-.728-2.386-1.541-3.64-2.188-1.879-.97-3.819-1.834-5.733-2.736a2.529,2.529,0,0,0-.761-.214,6.951,6.951,0,0,1-3.377-1.451,5.71,5.71,0,0,0-3.164-1.213,4.77,4.77,0,0,1-2.022-.594,13.766,13.766,0,0,0-5.043-1.4,23.372,23.372,0,0,1-4.187-.738,20.776,20.776,0,0,0-7.849-.951C284.428,306.424,283.229,306.263,282.021,306.25Zm-15.938,3.711a4.076,4.076,0,0,0-.594.4,2.451,2.451,0,0,0,.285.476,3.167,3.167,0,0,0,.547-.476C266.356,310.316,266.168,310.1,266.083,309.961Zm-2.926.167a3.192,3.192,0,0,0-.333.262c-.017.016.065.1.1.166.129-.055.252-.087.381-.142C263.25,310.318,263.206,310.22,263.157,310.127Zm-2.759.713a6.551,6.551,0,0,0-1.142.4,2.849,2.849,0,0,0,.1.642,11.125,11.125,0,0,0,1.118-.333.46.46,0,0,0,.214-.381C260.671,311.051,260.468,310.823,260.4,310.84Zm-5.019,1.142a.838.838,0,0,0-.19.024,1.78,1.78,0,0,0-.262.071c-.792.263-1.588.52-2.379.786a1.825,1.825,0,0,0-.666.237c-.568.194-1.151.384-1.713.595a25.053,25.053,0,0,0-4.734,2.118,35.23,35.23,0,0,0-3.734,1.95c-1.495.885-2.672,2.332-4.52,2.641a1.267,1.267,0,0,0-.737.713,2.656,2.656,0,0,1-1.761,1.522,1.962,1.962,0,0,0-.666.428,6.176,6.176,0,0,0-.785.928,11.466,11.466,0,0,1-1.07.523,1.38,1.38,0,0,0-.4.333c-.155.153-.321.3-.476.451a2.325,2.325,0,0,1-.309,0c-.11-.011-.234.444-.4.642a5.3,5.3,0,0,1-.928.928,23.261,23.261,0,0,0-6.4,5.851,5.271,5.271,0,0,1-.738.761,7.37,7.37,0,0,0-1.665,2.355,5.546,5.546,0,0,1-2.308,2.807,2.174,2.174,0,0,0-1.047,1.117,9.412,9.412,0,0,1-2.783,4.448,5.642,5.642,0,0,0-.713,1.118c-1.155,1.854-1.542,4.128-3.045,5.8a.984.984,0,0,0-.167.5c-.256,1.658-1.523,2.982-1.522,4.734,0,.314-.311.628-.452.952a18.577,18.577,0,0,0-.9,2.188,32.707,32.707,0,0,0-2.165,6.042c-.432,1.683-.22,3.518-1.308,5.043a1.316,1.316,0,0,0-.024,1.047,2.574,2.574,0,0,1-.167,2.284,2.017,2.017,0,0,0-.167.786c-.066,1.26.725,2.644-.594,3.734-.085.069.17.476.19.738a5.254,5.254,0,0,1,0,1.308,23.366,23.366,0,0,0-.4,8.683,5.2,5.2,0,0,1,.047,1.047,7.438,7.438,0,0,0,.476,2.854,5.534,5.534,0,0,1,.333,3.616,2.213,2.213,0,0,0,.047,1.546,7.965,7.965,0,0,1,.738,1.618,1.183,1.183,0,0,0,.381,1.76,12.872,12.872,0,0,1,.072,1.713,5.741,5.741,0,0,0,.285,1.309c.493,2.128,1.828,3.985,1.95,6.233a1.017,1.017,0,0,0,.238.476c.027.037.045.08.072.119a1.881,1.881,0,0,0,.594,1.142,10.527,10.527,0,0,0,1.379,2.9.689.689,0,0,0,.262,1.094c.093.043.186.078.285.119.005.015.017.033.024.048a18.826,18.826,0,0,0,.9,2.188c.049.09.116.171.167.261-.254.231-.232.474.024.881a47.886,47.886,0,0,1,2.26,4.8,10.2,10.2,0,0,0,3.591,4.377c.01-.075.018-.157.024-.237.1.125.19.254.285.381h-.215a9.525,9.525,0,0,0,.809,1.808c.907,1.307,1.911,2.54,2.878,3.806a5.884,5.884,0,0,0,.833,1.047,31.733,31.733,0,0,1,5.3,5.447c2.926,3.832,7.4,6,10.847,9.3a.986.986,0,0,0,.214.142c3.1,1.707,6.2,3.441,9.325,5.114a17.649,17.649,0,0,0,2.474.951,11.891,11.891,0,0,1,2.022.642,11.913,11.913,0,0,0,4.163,1.4,1.448,1.448,0,0,0,.428.143,47.268,47.268,0,0,1,4.972,1.808,10.652,10.652,0,0,0,5.138.642,12.931,12.931,0,0,0,1.474.285,4.87,4.87,0,0,0,1.07.356c1.566.283,3.131.456,4.71.666a5.842,5.842,0,0,0,1.332.143,31.247,31.247,0,0,1,3.687-.19,1.792,1.792,0,0,0,1.665.142.917.917,0,0,0,.1-.047c.713.049,1.418.117,2.141.214,4.779.64,9.472-1.015,14.248-1.118a1.067,1.067,0,0,0,.262-.047c3.4-.988,6.814-1.972,10.2-3a17.54,17.54,0,0,0,2.427-1.047,11.874,11.874,0,0,1,1.879-.975,13.729,13.729,0,0,0,5.376-3.14c-.228-.342-.667-.726-.618-1.023.1-.6.648-.785,1.237-.618.251.072.486.283.737.309a1.9,1.9,0,0,0,.666-.19,2.4,2.4,0,0,0-.356-.642,11.684,11.684,0,0,1-1.594-1.5c-.388-.563-.448-.752-.642-.69a1.248,1.248,0,0,0-.262.143c-1.526.993-3.468,1.178-4.781,2.641-.406.453-1.294.534-1.974.69a16.861,16.861,0,0,0-4.662,1.808,8.48,8.48,0,0,1-4.519,1.332c-.808-.024-1.856-.012-2.093,1.165-.086.428-.334.214-.571.214-2.245,0-4.509-.282-6.708.524-.964.353-1.955.885-3.068.4a.833.833,0,0,0-.523.024l-.215-.166c-.043.071-.135.164-.119.214.005.017.017.031.024.047a10.373,10.373,0,0,1-3.853.476c-1.839.089-3.682-.457-5.519.143-.008,0-.017,0-.024,0-.48-1.167-.938-1.287-2.593-1.332-.346-.009-.7.109-1.047.119a1.508,1.508,0,0,0-1.284.524,3.788,3.788,0,0,0-.5.1c-.259.078-.61-.222-.928-.333a8.15,8.15,0,0,0-1.261-.381c-.2-.034-.562.092-.619.238a.856.856,0,0,0,.119.737c.394.456.913.8,1.261,1.285a.941.941,0,0,1-.072.761,5.037,5.037,0,0,1-1.213-.024c-.292-.249-.6-.5-.88-.761-.142.142-.287.285-.429.428a8.5,8.5,0,0,1-.856-.381.589.589,0,0,1-.19-.452,7.089,7.089,0,0,1,.786.143c.208.043.415.127.618.19,0,0,.02,0,.024,0a2.768,2.768,0,0,0-.713-1.475c.295-.5.153-.6-.666-1.117-.754-.479-1.43-1.076-2.4-.69a4.227,4.227,0,0,0-.619.381c-.629-.184-1.261-.381-1.879-.594-.575-.2-1.142-.41-1.713-.618,0-.159-.1-.2-.381-.262-1.722-.365-3.2-1.54-5.066-1.522-.413-.125-.827-.246-1.237-.381-.274-.171-.55-.362-.808-.524a16.984,16.984,0,0,0-4.591-2.022c-.214-.059-.432-.122-.642-.19a18.087,18.087,0,0,0-2.9-1.522c-.017-.006-.031-.018-.047-.024a6.558,6.558,0,0,1-.547-.524c-.536-.569-1.26-1.246-2.212-.69-.024-.017-.049-.031-.072-.047-.413-.3-.837-.578-1.261-.856a15.078,15.078,0,0,0-4.425-3.687c-.931-.432-2-.752-2.45-1.879a1.1,1.1,0,0,0-.618-.476,9.949,9.949,0,0,1-3.116-2.4c-1.363-1.238-2.273-2.956-4-3.83-.276-.142-.428-.537-.618-.833-.805-1.248-1.412-2.664-2.831-3.425-.237-.128-.282-.576-.429-.88a8.037,8.037,0,0,0-.594-1.166c-.116-.164-.475-.349-.618-.285a.943.943,0,0,0-.4.476c-.331-.384-.674-.748-1.022-1.117a3.33,3.33,0,0,0-.571-2,39.92,39.92,0,0,1-1.927-3.5c-.888-1.828-1.661-3.688-2.664-5.471a32.4,32.4,0,0,1-3.544-8.206,14.871,14.871,0,0,0-1.713-4.734,4.754,4.754,0,0,1-.5-1.783c-.481-2.957-1.43-5.785-1.522-8.849-.086-2.8-1.08-5.557-.547-8.421a4.235,4.235,0,0,0-.072-1.07c-.354-4.27.742-8.452.738-12.7a2.291,2.291,0,0,1,.143-.523q1.193-4.63,2.379-9.253a3.725,3.725,0,0,0,.214-1.285,3.286,3.286,0,0,1,.595-2c1.631-3.043,3.416-6.015,4.829-9.158,1.8-4,4.662-7.307,6.827-11.061a6.27,6.27,0,0,1,1.07-1.166,49.1,49.1,0,0,0,5.352-5.875c.706-.988,1.221-2.169,2.641-2.4.214-.034.432-.33.571-.547a10.475,10.475,0,0,1,4.305-3.425,3.411,3.411,0,0,0,1.9-1.761,2.247,2.247,0,0,1,1.975-1.522,11.574,11.574,0,0,0,5.709-3.235c.122-.113.235-.251.357-.381.221-.112.444-.221.666-.333.26-.132.518-.26.785-.381a10.238,10.238,0,0,0,1.713-.809c.072-.037.142-.081.214-.119.006,0,.018,0,.024,0,.193-.1.387-.217.571-.333a6.31,6.31,0,0,1,2.9-1.189,2.81,2.81,0,0,0,2.045-1.118,1.287,1.287,0,0,0,.238-.928A.42.42,0,0,0,255.379,311.982Zm13.582,148.1c.02.019.027.052.048.071l.047-.048Zm48.5-6.161s.069-.043.072-.047.072-.119.072-.119Zm-99.978-24.5c-.011-.027-.035-.046-.047-.072,0-.007,0-.017,0-.024-.019-.012-.029-.036-.048-.048,0,.037.006.085,0,.119v.024ZM281.069,318c-.619.018-1.233.056-1.856.119-2.934.292-5.881.553-8.825.69a15.427,15.427,0,0,0-5.614,1.38,1.066,1.066,0,0,0,1.118.952,6.216,6.216,0,0,0,1.831-.31,32.253,32.253,0,0,1,5.662-1.117,3.1,3.1,0,0,0,.9-.12,3.342,3.342,0,0,0,.714-.237,1.934,1.934,0,0,1,1.142-.072,2.406,2.406,0,0,0,1.142.1.455.455,0,0,0,.333.048.271.271,0,0,0,.12-.1c.155-.019.319-.044.476-.048,1.232-.034,2.453-.161,3.686-.142a.286.286,0,0,0,.143.142c.357.126.738.2,1.309.333.194-.083.425-.145.666-.238.048.011.094.012.142.024a46.6,46.6,0,0,0,5.519.786,11.371,11.371,0,0,0,2.332.047,3.636,3.636,0,0,1,2.212.5,9.892,9.892,0,0,0,2.117.881c1.562.439,3.157.8,4.734,1.189.072.017.168.034.214,0s.127-.075.19-.119c.18.014.363.025.547.024a.89.89,0,0,0,.523-.262c-.072-.277-.158-.706-.356-.785-.572-.228-1.139-.389-1.642-.547a7.184,7.184,0,0,0-2.521-.88,13.211,13.211,0,0,1-1.831-.381,32.6,32.6,0,0,0-7.279-1.284,13.507,13.507,0,0,1-2.307-.119A24.31,24.31,0,0,0,281.069,318Zm-16.318,2.188a8.483,8.483,0,0,0-1.546.238c-2.991,1.05-6.133,1.615-8.968,3.116a87.97,87.97,0,0,0-7.993,4.234c-1.031.689-2.112,1.312-3.069,2.093-.244.2-.493.4-.737.6a6.35,6.35,0,0,1-.571.309.277.277,0,0,0-.143.167c-.008.027-.015.064-.024.1-.454.362-.92.716-1.38,1.07-.881.156-1.729.258-2.259,1.237a6.876,6.876,0,0,1-1.356,1.474,11.45,11.45,0,0,0-2.45,2.689.49.49,0,0,0-.1,0c-.008,0-.017,0-.024,0a1.227,1.227,0,0,0-.476.19c-1.771,1-2.742,2.884-4.4,4.02a5.655,5.655,0,0,0-1.07,1.213c-.623.781-1.2,1.579-1.831,2.354-.571.706-.814,1.5-.452,1.618a1.852,1.852,0,0,0,1.665-.451,4.847,4.847,0,0,0,1.095-1.213,11.212,11.212,0,0,1,2.355-2.522,4.053,4.053,0,0,0,1.094-1.284c.563-.556,1.154-1.106,1.736-1.641a1.858,1.858,0,0,0,.547-.809c.232-.166.284-.454.262-.951a.5.5,0,0,0-.285-.476,1.381,1.381,0,0,0,1.57-.452,24.2,24.2,0,0,1,2.522-2.331c.352-.182.7-.365,1.07-.524a2.177,2.177,0,0,0,.88-1.047c.026-.021.046-.05.072-.071a11.845,11.845,0,0,0,1.9-1.547.284.284,0,0,0,.119-.024c.958-.6,1.927-1.19,2.854-1.831a22.087,22.087,0,0,0,3.164-1.879,23.378,23.378,0,0,1,6.232-3.021,13.906,13.906,0,0,0,3.33-1.57,3.009,3.009,0,0,1,1.879-.69A5.593,5.593,0,0,0,264.751,320.189Zm39.059,1.9c-.193.03-.325.119-.333.261a1.941,1.941,0,0,0,.9,1.522,4.657,4.657,0,0,0,1.427.738,11.224,11.224,0,0,1,3.045,1.618,3.693,3.693,0,0,0,2.616.809,1.282,1.282,0,0,1,1.546.975c.29.7.576.731,1.309.5.529-.168.538-.574.072-1.047-1.43-1.45-3.493-1.879-5.019-3.187a5.723,5.723,0,0,0-1.451-.738c-.916-.4-1.847-.759-2.759-1.165A2.719,2.719,0,0,0,303.81,322.092Zm-24.216,6.446-2.045.167-.809,10.252-2.474-9.967-2.045.167,3.4,12.8,2.688-.214Zm3.639.167-.785,13.012,1.975.119.785-13.012Zm34.254.809c-.072.014-.126.037-.142.071a.881.881,0,0,0-.024.429.352.352,0,0,0,.071.214,25.127,25.127,0,0,1,1.832,2.046,2.815,2.815,0,0,0,1.57.642,28.754,28.754,0,0,1,5.471,5.662,11.349,11.349,0,0,0,3.616,3.521,1.151,1.151,0,0,1,.476.5c.574,1.4,1.842,2.268,2.664,3.473q2.47,3.619,4.9,7.278a3.684,3.684,0,0,1,.262.88,11.558,11.558,0,0,0,.476,1.309c1.231,2.592,2.494,5.156,3.711,7.755a10.313,10.313,0,0,1,.4,1.57,22.945,22.945,0,0,0,1.095,3.544,5.231,5.231,0,0,1,.5,1.927,15.026,15.026,0,0,0,.808,3.591,9.969,9.969,0,0,1,.428,1.784,60.447,60.447,0,0,0,1,7.113,1.842,1.842,0,0,1-.024,1.142,3.159,3.159,0,0,0-.072,2.307,6.745,6.745,0,0,0,.048,3.354c.05.181.342.474.381.452.249-.142.641-.335.666-.547.117-.989.134-2,.167-2.616a5.635,5.635,0,0,0-.262-.714,3.164,3.164,0,0,0,.024-2.593,3.071,3.071,0,0,1-.1-.4c-.02-.075-.05-.141-.072-.214,0-.024,0-.048,0-.072a3.446,3.446,0,0,1,.215-1.808,1.869,1.869,0,0,0,.142-1.095,24.42,24.42,0,0,1-.309-4.591,25.159,25.159,0,0,0-.452-3.9c-.623-2.566-1.138-5.159-1.831-7.707-.343-1.262-1.035-2.439-1.451-3.687a64.547,64.547,0,0,0-2.9-6.851,29.213,29.213,0,0,0-2.545-4.4c-1.687-2.411-3.512-4.737-5.28-7.088a18.227,18.227,0,0,0-1.57-2.022,42.036,42.036,0,0,0-8.278-6.708c-.639-.375-1.254-.79-1.879-1.19a2.18,2.18,0,0,0-1.5-1.284,9.523,9.523,0,0,1-2.022-1.07A.408.408,0,0,0,317.487,329.514Zm-26.451.761a2.659,2.659,0,0,0-1,.261,3.16,3.16,0,0,0-1.689,2.4,4,4,0,0,0,.072,1.9,7.362,7.362,0,0,0,1.023,1.927c.619.872,1.093,1.514,1.4,1.95a2.42,2.42,0,0,1,.4,1.737,1.577,1.577,0,0,1-.357.808,1.239,1.239,0,0,1-1.142.429,1.04,1.04,0,0,1-.738-.524,2.856,2.856,0,0,1-.262-1.736l-1.855-.214a5.063,5.063,0,0,0,.047,1.879,3.23,3.23,0,0,0,.738,1.452,3.137,3.137,0,0,0,1.784.927,3.648,3.648,0,0,0,1.094.072,2.516,2.516,0,0,0,1.5-.642,3.661,3.661,0,0,0,1.165-2.14,3.6,3.6,0,0,0-.047-1.285,5.941,5.941,0,0,0-.19-.666,6.571,6.571,0,0,0-.809-1.617c-.113-.178-.362-.512-.737-.975a6.389,6.389,0,0,1-.69-.975,2.913,2.913,0,0,1-.4-1.951,1.792,1.792,0,0,1,.4-.88.9.9,0,0,1,.9-.309.964.964,0,0,1,.713.452,2.336,2.336,0,0,1,.19,1.332l1.927.024a3.807,3.807,0,0,0-.143-1.57,2.709,2.709,0,0,0-.713-1.189,3.386,3.386,0,0,0-1.689-.809,3.941,3.941,0,0,0-.524-.071A2.89,2.89,0,0,0,291.036,330.275Zm-27.236.356a4.091,4.091,0,0,0-1.427.238l-2.95.975,4.115,12.369,1.879-.618-1.546-4.662,1.07-.357a1.505,1.505,0,0,0,.167-.048l2.688,4.282,2.022-.666L266.63,337.2a3.029,3.029,0,0,0,.262-2.545l-.6-1.808a3.3,3.3,0,0,0-1.356-1.879A2.32,2.32,0,0,0,263.8,330.631Zm35.015.928-4.329,12.3,1.855.666,4.33-12.321Zm-35.491,1.118a1.331,1.331,0,0,1,.214,0,1,1,0,0,1,.952.808l.6,1.808a1.088,1.088,0,0,1-.072.856,1.064,1.064,0,0,1-.642.571l-1.118.381-1.332-3.972,1.142-.381A1.578,1.578,0,0,1,263.324,332.678Zm43.007,1.474a3.619,3.619,0,0,0-.618.143,2.972,2.972,0,0,0-1.832,1.522l-3.306,6.3a3.037,3.037,0,0,0-.238,2.379,2.967,2.967,0,0,0,1.522,1.831,3.024,3.024,0,0,0,2.379.238,3.059,3.059,0,0,0,1.856-1.546l3.306-6.28a3.16,3.16,0,0,0-1.308-4.234,3.129,3.129,0,0,0-1.166-.357A2.822,2.822,0,0,0,306.331,334.152Zm-50.548.167-1.784,1,4.876,8.8a1.129,1.129,0,0,1-1.308,1.618,1.037,1.037,0,0,1-.666-.523l-4.877-8.8-1.688.928,4.876,8.825a2.978,2.978,0,0,0,1.855,1.474,3.02,3.02,0,0,0,2.379-.262,3.053,3.053,0,0,0,1.5-1.855,2.971,2.971,0,0,0-.262-2.379ZM306.5,336.1a1.1,1.1,0,0,1,.642.119,1.109,1.109,0,0,1,.451,1.522l-3.306,6.3a1.127,1.127,0,0,1-.666.571,1.083,1.083,0,0,1-.856-.1,1.128,1.128,0,0,1-.571-.666,1.067,1.067,0,0,1,.1-.856l3.306-6.3a1.072,1.072,0,0,1,.666-.547A1.421,1.421,0,0,1,306.5,336.1Zm7.636,2.474L306.022,348.8l1.546,1.213,5.186-6.542-3.069,8.231,1.642,1.308,8.111-10.229-1.522-1.213-5.447,6.875,3.4-8.493Zm-68.269,2.236a3.1,3.1,0,0,0-2.784,2.784,3.038,3.038,0,0,0,.69,2.307l4.519,5.5a3.027,3.027,0,0,0,2.093,1.142,2.978,2.978,0,0,0,2.284-.69,3.114,3.114,0,0,0,.452-4.4l-4.52-5.5a3.009,3.009,0,0,0-2.093-1.142A3.472,3.472,0,0,0,245.864,340.812Zm.142,2a1.05,1.05,0,0,1,.214,0,1.087,1.087,0,0,1,.761.4l4.52,5.519a1.111,1.111,0,0,1,.262.832,1.087,1.087,0,0,1-.4.761,1.1,1.1,0,0,1-.832.238,1.073,1.073,0,0,1-.761-.4l-4.52-5.519a1.1,1.1,0,0,1-.262-.833,1.119,1.119,0,0,1,.429-.761A1.051,1.051,0,0,1,246.007,342.811Zm-20.719,5.519a.778.778,0,0,0-.5.143,9.845,9.845,0,0,0-2.355,3.164,12.872,12.872,0,0,1-.832,1.641,32.877,32.877,0,0,0-3.14,6.732,13.423,13.423,0,0,1-.714,2.188,24.841,24.841,0,0,0-2.236,7.065c-.477,2.909-.988,5.8-1.618,8.683a15.436,15.436,0,0,0-.12,5.78,1.052,1.052,0,0,0,1.213-.832,6.252,6.252,0,0,0,.167-1.856,11.693,11.693,0,0,1,0-1.736c.019-.071.027-.144.047-.214a.877.877,0,0,0,0-.429,43.67,43.67,0,0,0,.4-5.019c0-.014,0-.032,0-.047.1-.4.212-.792.309-1.19a5.907,5.907,0,0,0,.476-1.879c.123-.515.227-1.028.333-1.547a1.9,1.9,0,0,0,.619-1c.147-.6.168-1.229.357-1.808a2.645,2.645,0,0,0,.119-.928c.071-.15.133-.3.214-.452a46.521,46.521,0,0,0,2.212-5.114,12.011,12.011,0,0,0,.452-1.427c.392-.684.725-1.43,1.07-2.141a.675.675,0,0,0-.047-.452c.069-.081.137-.159.214-.238a9.825,9.825,0,0,0,1.4-1.808c.539-.907,1.042-1.831,1.546-2.759.421-.656.825-1.312,1.237-1.975a.223.223,0,0,0-.024-.214,3.5,3.5,0,0,0-.524-.238c-.03.02-.062.05-.1.072a.881.881,0,0,0-.071-.119A.205.205,0,0,0,225.288,348.329Zm79.307,11.894c.112,1.133.206,2.23.262,3.307s.071,2.214.071,3.4v13.583h-8.611c-2.078,0-4.115-.036-6.137-.12s-3.973-.212-5.828-.381v5.258c1.854-.195,3.806-.339,5.828-.429s4.06-.144,6.137-.142h2.426c.106,6.367-.921,11.04-3.045,14.011s-6.335,5.3-12.63,6.969a13.149,13.149,0,0,1,1.974,2.212,14.26,14.26,0,0,1,1.452,2.545,39.229,39.229,0,0,0,10.585-5.9,15.161,15.161,0,0,0,4.876-7.707,46.376,46.376,0,0,0,1.261-12.131h6.542v19.03c-.158,2.059.345,3.39,1.522,4s3.973.874,8.373.808a38.322,38.322,0,0,0,7.3-.428,5.309,5.309,0,0,0,3.592-2.213,17.039,17.039,0,0,0,1.95-5.3,9.09,9.09,0,0,1-2.545-1.071,9.738,9.738,0,0,1-2.474-2.236c-.281,3.153-.91,5.135-1.855,5.946s-2.868,1.165-5.8,1.047a10.375,10.375,0,0,1-4.21-.523,2.082,2.082,0,0,1-1.047-2.165V384.7h4.02c2.078,0,4.115.053,6.137.142s3.973.234,5.828.429v-5.258c-1.855.168-3.806.3-5.828.381s-4.059.12-6.137.12H309.97v-17.27a2.632,2.632,0,0,1,.167-1.165,1.754,1.754,0,0,1,.9-.738c.42-.238.565-.437.476-.618s-.433-.257-1.047-.215a20.93,20.93,0,0,1-2.879.048A29.733,29.733,0,0,1,304.595,360.223Zm-55.948,2.118c.114,1,.19,2.178.262,3.544s.116,2.662.119,3.853V403.73a8.513,8.513,0,0,1-.262,2.569,4.418,4.418,0,0,1-1.142,1.736c.515.658,1.041,1.334,1.57,2.07s1,1.415,1.4,2.045a8.032,8.032,0,0,1,1.142-1.309,14.3,14.3,0,0,1,1.642-1.308l6.708-4.687c-.254-.7-.5-1.462-.738-2.284s-.444-1.694-.642-2.593a22.763,22.763,0,0,1-2.522,2.165c-.995.751-1.949,1.417-2.9,2.022V385.937h5.09a32.329,32.329,0,0,0,1.522,7.921,25.757,25.757,0,0,0,3.33,6.946,26.375,26.375,0,0,0,4.805,4.8,37.5,37.5,0,0,0,5.661,3.806,13.894,13.894,0,0,1,1.356-2.616,16.8,16.8,0,0,1,2.165-2.688,28.209,28.209,0,0,1-6.066-2.45,16.389,16.389,0,0,1-4.519-3.639c2.418-2.46,4.255-4.238,5.471-5.328a13.3,13.3,0,0,1,3.093-2.213.415.415,0,0,0,.285-.356c0-.133-.09-.243-.285-.333a18.8,18.8,0,0,1-1.974-1.142c-.767-.495-1.537-1.022-2.284-1.594a30.637,30.637,0,0,1-2.593,3.973,41.254,41.254,0,0,1-3.616,4.139,26.429,26.429,0,0,1-1.808-4.615,22.836,22.836,0,0,1-.856-4.614c2.112,0,4.04.021,5.8.071s3.09.129,3.973.215c-.112-1.215-.206-2.567-.262-4.068s-.072-2.748-.072-3.711v-8.707c0-1.167.021-2.453.072-3.83s.129-2.569.214-3.568c-.944.148-2.488.3-4.591.428s-4.32.182-6.66.19c-2.418-.008-4.763-.063-7.041-.19S249.612,362.488,248.647,362.34ZM228.5,364.029c.114.764.213,1.942.285,3.545s.117,2.889.119,3.877v25.9c0,1.312-.052,2.828-.142,4.567a40.046,40.046,0,0,1-.429,4.377h4.757v-5.924h7.779v2.831h4.52c-.142-1.152-.256-2.593-.333-4.353s-.118-3.3-.119-4.591V371.45c0-.987.039-2.274.1-3.877a34.6,34.6,0,0,1,.262-3.545,22.7,22.7,0,0,1-3.211.357c-1.509.094-3.243.139-5.233.143-2.035,0-3.779-.035-5.233-.119A16.976,16.976,0,0,1,228.5,364.029Zm92.77.666a51.748,51.748,0,0,1-3.187,6.114,29.928,29.928,0,0,1-3.759,5.019,10.9,10.9,0,0,1,2.5.881,7.42,7.42,0,0,1,2.046,1.451c2.212-3.449,3.866-5.913,4.995-7.4s1.873-2.241,2.213-2.307c.412-.154.611-.338.618-.547s-.138-.378-.452-.476a11.8,11.8,0,0,1-2.093-.952A29.639,29.639,0,0,1,321.269,364.695Zm-27.236,1.332-4.305,2.188a25.737,25.737,0,0,1,3.14,4.544,35.418,35.418,0,0,1,2.331,5.4l4.758-2.4c-1.023-1.8-2-3.474-2.95-5.043S295.055,367.575,294.033,366.027Zm-40.747.524h13.8v5.923h-13.8Zm-20.2,1.665h7.779v6.827H233.09Zm20.2,7.707h13.8V382.3h-13.8Zm-20.2,2.641h7.779v7.16H233.09Zm-19.315,5.186a8.489,8.489,0,0,0-.166,1.546c.241,3.161-.05,6.364.666,9.491a87.471,87.471,0,0,0,2.022,8.8c.4,1.175.729,2.394,1.237,3.521.92,2.044,1.8,4.1,2.569,6.208a12.835,12.835,0,0,0,2.521,4.4,1.479,1.479,0,0,0,.024-1.761,38.617,38.617,0,0,1-2.664-5.4,7.558,7.558,0,0,0-1.357-2.664c-.179-.175-.141-.587-.214-.88-.292-1.17-.512-2.352-.808-3.521a.52.52,0,0,0,.024-.547.912.912,0,0,0-.238-.214c-.13-.445-.256-.88-.428-1.309a23.4,23.4,0,0,1-1.309-6.8,13.839,13.839,0,0,0-.642-3.616,3.106,3.106,0,0,1-.19-2.022A5.581,5.581,0,0,0,213.775,383.749Zm19.315,5.542h7.779v7.445H233.09Zm113.679.738c-.081.129-.212.241-.237.381-.5,2.737-1.045,5.458-1.475,8.206a11.854,11.854,0,0,1-.595,2.474,12.867,12.867,0,0,0-.738,2.9,6.8,6.8,0,0,0,.238,1.808c.9-.04.711-.885.927-1.356a13.408,13.408,0,0,0,.761-2.664c.152-.677,0-1.494.333-2.045a15.942,15.942,0,0,0,1.047-3.473,7.345,7.345,0,0,0,.333-2.736c-.065-1.005-.116-2.018-.214-3.02C347.132,390.329,346.9,390.193,346.769,390.029Zm-3.711,17.983c-.264.039-.423.348-.595.523a3.433,3.433,0,0,0-.524,1.023,30.86,30.86,0,0,1-4.424,7.612,11.313,11.313,0,0,0-2.5,4.377,1.126,1.126,0,0,1-.333.594c-1.206.918-1.737,2.367-2.688,3.473q-2.858,3.323-5.757,6.612a3.6,3.6,0,0,1-.761.5,11.773,11.773,0,0,0-1.165.786c-2.185,1.86-4.346,3.742-6.542,5.589a10.005,10.005,0,0,1-1.379.809,22.793,22.793,0,0,0-3.14,1.95,5.29,5.29,0,0,1-1.736,1,15,15,0,0,0-3.259,1.713,10.067,10.067,0,0,1-1.618.88c-2.191.964-4.53,1.556-6.613,2.783a1.813,1.813,0,0,1-1.095.285,3.72,3.72,0,0,0-3.068,1.166,3.439,3.439,0,0,0,3.639-.333,3.314,3.314,0,0,1,2.427-.594,1.946,1.946,0,0,0,1.118-.143,24.2,24.2,0,0,1,4.329-1.5,25.3,25.3,0,0,0,3.664-1.452c2.317-1.265,4.688-2.429,6.97-3.758,1.13-.658,2.065-1.63,3.163-2.355a64.354,64.354,0,0,0,5.876-4.567,29.559,29.559,0,0,0,3.616-3.616c1.892-2.253,3.657-4.605,5.471-6.922a18.276,18.276,0,0,0,1.547-2.045,42.069,42.069,0,0,0,4.329-9.729c.139-.5.3-1,.452-1.5.3-.7.57-1.394.833-2.022-.05-.154-.061-.2-.1-.31.09-.29.236-.745.166-.785A.452.452,0,0,0,343.059,408.012Zm-47.194,41.675c-.017-.008-.031-.017-.047-.024l-.024.072C295.816,449.715,295.843,449.706,295.865,449.687Zm-72.646-31.97a2.408,2.408,0,0,0-.571.071,10.3,10.3,0,0,0,.5,1.452c.385.757.889,1.459,1.284,2.212a12.549,12.549,0,0,0,3.378,4.044,2.032,2.032,0,0,0,.357.19,1.712,1.712,0,0,0-.048-.428,62.807,62.807,0,0,0-3.4-6.565A1.607,1.607,0,0,0,223.219,417.717Zm-.571.071c-.006-.017-.018-.031-.024-.047l-.047.072C222.6,417.8,222.622,417.794,222.648,417.788Zm73.669,4.543L294.1,435.367h2.045l.476-3h2.07l.452,3h2.069l-2.188-13.035Zm-25.238.381a2.974,2.974,0,0,0-1.832.547,3.21,3.21,0,0,0-1.189,2.711,3.915,3.915,0,0,0,.428,1.832,7.619,7.619,0,0,0,1.4,1.688c.777.736,1.347,1.273,1.736,1.642a2.4,2.4,0,0,1,.738,1.617,1.645,1.645,0,0,1-.19.88,1.19,1.19,0,0,1-1.023.618.993.993,0,0,1-.808-.356,2.814,2.814,0,0,1-.619-1.642l-1.879.143a5.042,5.042,0,0,0,.451,1.831,3.229,3.229,0,0,0,1,1.285,3.056,3.056,0,0,0,1.9.571,3.691,3.691,0,0,0,1.094-.143,2.558,2.558,0,0,0,1.356-.928,3.67,3.67,0,0,0,.713-2.331,3.606,3.606,0,0,0-.285-1.26,5.62,5.62,0,0,0-.309-.619,6.63,6.63,0,0,0-1.118-1.427c-.146-.153-.446-.427-.9-.808a6.618,6.618,0,0,1-.881-.833,2.865,2.865,0,0,1-.785-1.808,1.818,1.818,0,0,1,.238-.951.983.983,0,0,1,1.593-.167,2.231,2.231,0,0,1,.476,1.237l1.879-.333a3.727,3.727,0,0,0-.428-1.5,2.739,2.739,0,0,0-.951-1.023A3.362,3.362,0,0,0,271.079,422.712Zm5.685.167v13.035h1.974V430.4h2.355v5.519h1.975V422.879h-1.975v5.542h-2.355v-5.542Zm8.9.1v13.035h3.663a2.785,2.785,0,0,0,1.475-.452,2.825,2.825,0,0,0,1.047-1.07,4.423,4.423,0,0,0,.452-2.117,5.192,5.192,0,0,0-.072-.9,3.81,3.81,0,0,0-.452-1.284,2.272,2.272,0,0,0-1.094-1,1.887,1.887,0,0,0,.666-.5,3.114,3.114,0,0,0,.713-2.117,4.513,4.513,0,0,0-.19-1.38,2.866,2.866,0,0,0-1.142-1.617,3.782,3.782,0,0,0-2.117-.595Zm-23.312.167a3.087,3.087,0,0,0-3.116,3.116v7.136a2.962,2.962,0,0,0,.9,2.188,3.129,3.129,0,0,0,4.4,0,2.956,2.956,0,0,0,.928-2.188v-1.831h-2.046v1.808a1.051,1.051,0,0,1-.333.785,1.125,1.125,0,0,1-.809.333,1.139,1.139,0,0,1-1.118-1.118v-7.16a1.066,1.066,0,0,1,.333-.785,1.05,1.05,0,0,1,.785-.333,1.11,1.11,0,0,1,.809.333,1.057,1.057,0,0,1,.333.785v1.546h2.046v-1.5a3.037,3.037,0,0,0-.9-2.212A2.988,2.988,0,0,0,262.349,423.141Zm25.452,1.831h.809a1.251,1.251,0,0,1,.952.381,1.682,1.682,0,0,1,.4,1.213,2.616,2.616,0,0,1-.119.832,1.222,1.222,0,0,1-1.237.9H287.8Zm9.872.357.714,5.138h-1.452Zm46.766.142a2.081,2.081,0,0,0-.928.167,1.707,1.707,0,0,0-.714.761c-.524.993-.9,2.054-1.5,3-.682,1.079-1.161,2.348-2.379,3.045-.706.4-.654,1.1-.452,1.784a7.141,7.141,0,0,0,1.5-1,38.753,38.753,0,0,0,4.853-6.518c.211-.364.427-.932-.1-1.165A.926.926,0,0,0,344.439,425.471Zm-5.971,8.754c-.009.006-.015.018-.024.024.011.008.016.019.024.024C338.463,434.258,338.472,434.24,338.468,434.225ZM228.833,426.59c-.142.134-.216.221-.31.309.118.083.231.223.357.238s.237-.1.357-.167C229.108,426.845,228.959,426.712,228.833,426.59Zm2.521,1.855a.118.118,0,0,0-.1.024,3.125,3.125,0,0,0-.357.428,8.076,8.076,0,0,0,.285.761,5.063,5.063,0,0,0,1.951,1.927c.193.135.535.054.808.072-.046-.218-.014-.5-.142-.642-.752-.861-1.551-1.687-2.332-2.521A.23.23,0,0,0,231.354,428.445Zm56.447,1.737h.809a1.371,1.371,0,0,1,1.118.451,2.485,2.485,0,0,1,.4,1.594,2.266,2.266,0,0,1-.119.809,1.434,1.434,0,0,1-1.4,1.047H287.8Zm50.191,2.284c-.145.026-.307.069-.452.1.02.081.024.19.072.214a2,2,0,0,0,.4.119C338,432.751,338.005,432.607,337.992,432.465Zm-100.953,2.022a1.357,1.357,0,0,0-.333.024c-.262.044-.263.552.072.761,1.115.7,1.89,1.777,2.95,2.569,1.165.871,2.249,1.9,3.5,2.688.091.058.1.244.142.381.171-1.1-.018-1.936-1.261-2.354a5.307,5.307,0,0,1-2.4-1.761,19.1,19.1,0,0,0-2.355-2.212A.557.557,0,0,0,237.039,434.487Zm99.883.594c-.048,0-.1,0-.12.024a3.016,3.016,0,0,0-.356.856c.153.045.351.174.451.12a5.44,5.44,0,0,0,.738-.547c-.1-.2-.116-.346-.167-.357A2.75,2.75,0,0,0,336.922,435.081ZM333.9,438.6a.5.5,0,0,0-.452.214,11.818,11.818,0,0,0-.785,1.522c.734-.048,1.061.418,1.261,1.047.142.448.49.431.856.357a1.848,1.848,0,0,0,1.38-1.142c.285-.656-.167-1.287-.881-1.047-.751.254-.869.018-1.022-.618A.4.4,0,0,0,333.9,438.6Zm-1.237,1.736c-.018,0-.03,0-.048,0-.042.01-.078.013-.119.024.043.022.074.048.119.071Zm-.167.024c-2.046-1.05-2.307-1.015-3.806.4-.251.238-.427.555-.666.808-.642.683-.8,1.383-.072,2.093a1.352,1.352,0,0,1,.1,1.9,5.8,5.8,0,0,1-3.187,2.284c-.152.05-.49-.174-.594-.356-.117-.206-.043-.508-.1-.761-.209-1.009-.195-.97-1.332-.714-.872.195-1.774.276-2.188,1.237a4.815,4.815,0,0,0-.19.738,3.591,3.591,0,0,0,.618-.1c1.589-.549,1.876-.425,2.26,1.047.288,1.1.614,1.286,1.57.761a12.421,12.421,0,0,0,3.664-3,5.957,5.957,0,0,1,3.068-2.379c.375-.1.681-.54,1-.832a.251.251,0,0,0,.047-.238c-.093-.127-.209-.324-.333-.333a4.726,4.726,0,0,0-.786.119c-.309.034-.618.048-.927.072a5.476,5.476,0,0,1,.166-1.023A2.533,2.533,0,0,1,332.5,440.363Zm-88.132.309a3.911,3.911,0,0,0-1,.262,9.3,9.3,0,0,1,1.047.333c.973.439,1.935.9,2.9,1.356a3.333,3.333,0,0,0,1.118.476c.291.012-.1-.786-.786-1.165-.537-.3-1.155-.477-1.665-.808a2.528,2.528,0,0,0-1.285-.452A2.305,2.305,0,0,0,244.365,440.672Zm6.851,3.616c-.119.024-.282.114-.285.167-.014.2,0,.536.119.595.885.439,1.8.831,2.712,1.213.084.035.253-.123.381-.19-.022-.075-.023-.186-.072-.215-.913-.531-1.831-1.07-2.759-1.57A.152.152,0,0,0,251.216,444.287Zm6.113,2.45a.67.67,0,0,0-.167.047,2.856,2.856,0,0,0-.666.476c.131.157.223.415.381.452,1.441.343,2.883.635,4.33.951-.07-.194-.124-.444-.238-.476a12.205,12.205,0,0,1-3.14-1.332A.869.869,0,0,0,257.329,446.738Zm3.877,1.927c.008.023.014.051.024.072.046,0,.1-.019.143-.024-.023-.011-.049-.013-.072-.024,0,0-.019,0-.024,0C261.253,448.682,261.231,448.67,261.207,448.664Zm.167.047c.116.059.215.14.333.19a.888.888,0,0,0,.238.024c-.08-.072-.148-.2-.238-.215A1.186,1.186,0,0,0,261.373,448.711Zm60.039.976.047.142c-.05.328-.114.645-.167.975.014.024.034.047.048.072.009-.023.014-.049.024-.072.047-.334.091-.661.143-1Zm-.072,1.189c-.053.126-.114.257-.167.381l.357-.024C321.467,451.119,321.406,450.99,321.341,450.876Zm-28.663-.738c-2.774.222-5.536.419-8.3.714a12.456,12.456,0,0,1-2.307.1.538.538,0,0,0-.571-.262.868.868,0,0,0-.262.19,13.534,13.534,0,0,0-2.4.1,6.844,6.844,0,0,0-1.689.69c.272.86,1.059.437,1.57.524a13.4,13.4,0,0,0,2.759.072c.694-.029,1.428-.389,2.045-.215a16.043,16.043,0,0,0,3.64.119,7.381,7.381,0,0,0,2.735-.4c.955-.324,1.911-.62,2.854-.975.165-.062.256-.329.381-.5A1.441,1.441,0,0,0,292.678,450.139Zm-23.074.1a.817.817,0,0,0-.523.357c-.221.307.333.684,1.4.856,1.121.181,2.263.317,3.259.452.354-.231.537-.36.713-.476-.158-.151-.316-.388-.5-.429l-.761-.166c-.114-.079-.231-.214-.357-.238-.033-.006-.092.073-.142.143-.706-.147-1.4-.3-2.118-.381a7.8,7.8,0,0,0-.785-.119A1.06,1.06,0,0,0,269.6,450.234Zm-24.739,1.974c.516.273,1.029.561,1.546.833a.951.951,0,0,1-.737.309c-.571.008-1.16-.508-.976-.9A.847.847,0,0,1,244.865,452.208ZM310.9,454.23a.754.754,0,0,1,.642.357.734.734,0,0,1-.072.666.787.787,0,0,1-1.142.1c-.193-.154-.164-.566-.214-.761A1.039,1.039,0,0,1,310.9,454.23Zm-6.946,2.974a.658.658,0,0,1,.642.261.839.839,0,0,1-.19,1.142c-.4.409-1.159.457-1.309.048a2.323,2.323,0,0,1,.024-.975A1.409,1.409,0,0,1,303.952,457.2Zm-5.994,1.5a2.252,2.252,0,0,1-.024.381c-.006.028-.144.034-.214.048.005-.124.017-.257.024-.381C297.815,458.728,297.887,458.724,297.958,458.7Zm-3.425.738c.263.026.561.067.856.1-.037.2-.061.541-.119.547a5.023,5.023,0,0,1-.928-.048C294.39,459.884,294.437,459.736,294.533,459.44Zm-17.7.642c.206.092.519.13.594.285a.7.7,0,0,1-.142.642c-.132.115-.428.03-.856.047C276.606,460.632,276.719,460.361,276.835,460.082Zm9.277.237a.184.184,0,0,1,.119.048,6,6,0,0,1,.761.975c.059-.085.132-.177.19-.262-.049.088-.094.174-.143.262-.015,0-.032,0-.047,0a5.8,5.8,0,0,1-1.19-.142c-.164-.049-.254-.364-.356-.571a.257.257,0,0,1,.1-.215A2.971,2.971,0,0,1,286.112,460.32Zm-5.543.429c.221.051.445.118.666.167.042.008.066.122.1.19-.074.15-.14.435-.237.451s-.19.031-.285.048C280.38,461.347,280.371,461.119,280.569,460.748Zm-1.688.047a1.152,1.152,0,0,1-.024.9c-.138-.13-.267-.352-.238-.429A2.15,2.15,0,0,1,278.881,460.8Zm4.353.4.167.071-.142.12Z" transform="translate(0)"/><path class="b" d="M63.386,31.693A31.693,31.693,0,1,1,31.693,0,31.693,31.693,0,0,1,63.386,31.693Z" transform="translate(312.125 341.729) rotate(90)"/><path class="b" d="M88.866,44.433A44.433,44.433,0,1,1,44.433,0,44.433,44.433,0,0,1,88.866,44.433Z" transform="translate(324.868 339.769) rotate(90)"/></g></svg>