<svg xmlns="http://www.w3.org/2000/svg" viewBox="9615.263 1361.972 155.82 157.114"><defs><style>.a{fill:#bf1534;}</style></defs><path class="a" d="M270.931,377.727a8.733,8.733,0,0,0-2.188.214,13.881,13.881,0,0,1-4.757.357,5.093,5.093,0,0,0-1.831.214c-1.584.435-3.141.918-4.71,1.4-.742.229-1.493.466-2.212.761-.184.076-.275.407-.4.618a1.455,1.455,0,0,0,.5.072,12.54,12.54,0,0,1,4.448-.19,9.782,9.782,0,0,0,2.616.214c2.725-.358,5.44.243,8.159-.024a7.671,7.671,0,0,1,1.57.119,23.279,23.279,0,0,0,3.425.381c1.242-.046,2.422.694,3.663.238,1.2-.441,2.1.727,3.33.523.876-.144,1.86.442,2.807.547a14.391,14.391,0,0,1,3.473.951c.991.373,1.978.719,3,1,.5.141,1.093.008,1.594.143.742.2,0,.953.381,1.332a3.3,3.3,0,0,0,.571.547,21.137,21.137,0,0,0,2.545,1.427,20.3,20.3,0,0,1,3.615,2.069c2.384,1.648,4.607,3.585,7.493,4.472a12.572,12.572,0,0,1,4.543,2.664,16.086,16.086,0,0,0,3.52,2.331,8.651,8.651,0,0,1,3.782,3.211c.137.221.315.548.523.595,1.532.344,2.158,1.765,3.259,2.616,3.261,2.525,5.626,5.9,7.992,9.158a58.191,58.191,0,0,1,4.733,8.8v.024a20.5,20.5,0,0,0,.785,2.759,20.512,20.512,0,0,1,1.094,4.044c.52,2.851.728,5.776,2.141,8.444a12.541,12.541,0,0,1,1.332,5.09,16.075,16.075,0,0,0,.833,4.139,8.661,8.661,0,0,1,.4,4.948c-.059.253-.162.6-.047.785.84,1.326.276,2.782.452,4.163.521,4.092-.2,8.13-.832,12.107a61.642,61.642,0,0,1-2.973,9.895,15.148,15.148,0,0,0-.832,3.568c-.12,1.322.043,2.895-1.57,3.687-.32.156-.43.743-.618,1.142-.795,1.679-1.573,3.37-2.379,5.043-.167.346-.323.7.1.88a1.258,1.258,0,0,0,1,0,3.066,3.066,0,0,0,.9-.951,57.989,57.989,0,0,0,4.377-8.587c.212-.469.359-.971.595-1.427.64-1.243,1.647-2.4,1.9-3.711a18.586,18.586,0,0,1,1.95-6.137c-.494-1.034.3-1.845.476-2.759a7.557,7.557,0,0,0,.309-3.354,5.3,5.3,0,0,1,.714-4.282,4.582,4.582,0,0,0,.309-2.283,10.716,10.716,0,0,1,.69-2.521.287.287,0,0,0-.072-.238c-.8-.807-.253-1.672-.048-2.474a9.4,9.4,0,0,0,.214-4.448,18.487,18.487,0,0,1-.19-3.164,39.224,39.224,0,0,0-1.261-11.56c-.343-1.372-.618-2.771-1.047-4.115-.643-2.015-1.4-4-2.117-5.994a2.442,2.442,0,0,0-.357-.69,7.012,7.012,0,0,1-1.38-3.425,5.7,5.7,0,0,0-1.38-3.092,4.815,4.815,0,0,1-1.023-1.855,13.7,13.7,0,0,0-2.569-4.543,23.22,23.22,0,0,1-2.426-3.473,20.89,20.89,0,0,0-4.9-6.232c-1.428-1.3-2.448-3-4.163-4.044a13.783,13.783,0,0,1-3.592-3.116,5.105,5.105,0,0,0-1.451-1.142c-.96-.546-1.945-1.055-2.926-1.57a43.247,43.247,0,0,0-6.47-4.686c-1.212-.727-2.386-1.541-3.639-2.188-1.879-.971-3.819-1.834-5.732-2.735a2.562,2.562,0,0,0-.761-.238,6.915,6.915,0,0,1-3.378-1.427,5.739,5.739,0,0,0-3.163-1.237,4.727,4.727,0,0,1-2.022-.571,13.781,13.781,0,0,0-5.043-1.4,23.128,23.128,0,0,1-4.163-.737,20.9,20.9,0,0,0-7.873-.951c-1.207.054-2.407-.106-3.615-.119Zm-15.937,3.711a3.9,3.9,0,0,0-.571.4,2.488,2.488,0,0,0,.285.476,3.166,3.166,0,0,0,.547-.476C255.291,381.793,255.079,381.576,254.994,381.437Zm-2.926.166a2.934,2.934,0,0,0-.309.262c-.017.017.04.1.072.167.129-.055.252-.112.381-.167-.05-.094-.093-.168-.143-.262Zm-2.759.714a6.286,6.286,0,0,0-1.118.4,2.186,2.186,0,0,0,.072.642,11.189,11.189,0,0,0,1.118-.333.5.5,0,0,0,.214-.4c-.012-.122-.216-.328-.285-.309Zm-5.019,1.142a.669.669,0,0,0-.19.024,1.777,1.777,0,0,0-.262.072c-.744.246-1.493.488-2.236.737a1.913,1.913,0,0,0-.761.262c-.582.2-1.16.4-1.736.619a25.341,25.341,0,0,0-4.71,2.117,35.03,35.03,0,0,0-3.782,1.95c-1.495.884-2.672,2.332-4.519,2.64a1.27,1.27,0,0,0-.737.714,2.583,2.583,0,0,1-1.736,1.5,1.959,1.959,0,0,0-.666.428,6.677,6.677,0,0,0-.809.951,11.356,11.356,0,0,1-1.07.523,1.386,1.386,0,0,0-.4.333c-.144.142-.285.286-.428.428a2.141,2.141,0,0,1-.357,0c-.11-.011-.234.467-.4.666-.141.165-.281.34-.428.5-.019.021-.028.05-.048.072-.084.082-.177.156-.262.238-.052.043-.111.08-.166.119a23.35,23.35,0,0,0-6.422,5.851,5.141,5.141,0,0,1-.714.761,7.436,7.436,0,0,0-1.689,2.355,5.541,5.541,0,0,1-2.307,2.807,2.17,2.17,0,0,0-1.047,1.118,9.416,9.416,0,0,1-2.783,4.448,5.667,5.667,0,0,0-.714,1.118c-1.155,1.853-1.518,4.1-3.021,5.78a1.012,1.012,0,0,0-.19.5c-.255,1.658-1.523,3.005-1.522,4.757,0,.314-.311.629-.452.951a18.33,18.33,0,0,0-.9,2.165c-.008.014.008.033,0,.047A32.421,32.421,0,0,0,194.672,437c-.432,1.682-.244,3.542-1.332,5.066a1.259,1.259,0,0,0-.024,1.023,2.625,2.625,0,0,1-.166,2.307,2.014,2.014,0,0,0-.166.785c-.067,1.261.749,2.644-.571,3.734-.086.07.146.477.166.737a5.261,5.261,0,0,1,0,1.308,23.232,23.232,0,0,0-.381,8.658,5.391,5.391,0,0,1,.024,1.07,7.425,7.425,0,0,0,.476,2.854,5.541,5.541,0,0,1,.357,3.615,2.153,2.153,0,0,0,.047,1.522,8.076,8.076,0,0,1,.714,1.641,1.184,1.184,0,0,0,.381,1.76,12.747,12.747,0,0,1,.1,1.713,5.64,5.64,0,0,0,.262,1.308c.494,2.127,1.828,3.985,1.951,6.232a1.007,1.007,0,0,0,.238.476c.038.052.059.113.1.167a1.832,1.832,0,0,0,.547,1.07,10.814,10.814,0,0,0,1.4,2.9.7.7,0,0,0,.262,1.118c.1.046.2.077.309.119.008.014-.008.034,0,.047a18.443,18.443,0,0,0,.928,2.165c.047.087.094.175.143.262-.255.231-.232.5.024.9a47.765,47.765,0,0,1,2.26,4.8,10.206,10.206,0,0,0,3.592,4.377c.011-.082.017-.172.024-.262.1.126.19.253.285.381H206.4a9.815,9.815,0,0,0,.832,1.831c.907,1.307,1.91,2.541,2.878,3.806a5.869,5.869,0,0,0,.832,1.047A31.611,31.611,0,0,1,216.222,513c2.926,3.832,7.4,6,10.846,9.3a1.185,1.185,0,0,0,.238.143c3.1,1.707,6.2,3.417,9.324,5.09a17.422,17.422,0,0,0,2.45.975,11.946,11.946,0,0,1,2.022.642,11.894,11.894,0,0,0,4.186,1.4,1.483,1.483,0,0,0,.4.143,47.927,47.927,0,0,1,4.995,1.808,10.549,10.549,0,0,0,5.114.642,13.257,13.257,0,0,0,1.546.285,4.434,4.434,0,0,0,1,.333c1.565.283,3.155.456,4.733.666a5.883,5.883,0,0,0,1.332.143,31.433,31.433,0,0,1,3.663-.167,1.8,1.8,0,0,0,1.665.119c.027-.011.046-.036.072-.047.727.049,1.449.115,2.188.214,4.779.641,9.472-.991,14.248-1.094a1.033,1.033,0,0,0,.262-.072c3.4-.988,6.813-1.949,10.2-2.973a17.676,17.676,0,0,0,2.426-1.07,11.918,11.918,0,0,1,1.879-.975,13.788,13.788,0,0,0,5.447-3.164c0-.008.072-.143.072-.143l-.143.166c-.228-.342-.691-.726-.642-1.023.1-.6.672-.761,1.261-.595a4.7,4.7,0,0,0,.714.285,2.015,2.015,0,0,0,.69-.19,2.4,2.4,0,0,0-.357-.642,11.56,11.56,0,0,1-1.594-1.475c-.388-.563-.448-.775-.642-.714a1.253,1.253,0,0,0-.262.143c-1.526.993-3.468,1.178-4.781,2.64-.407.453-1.294.534-1.974.69a16.931,16.931,0,0,0-4.662,1.832,8.458,8.458,0,0,1-4.519,1.308c-.807-.024-1.855-.012-2.093,1.166-.086.428-.358.238-.595.238-2.244,0-4.484-.306-6.684.5-.964.353-1.955.886-3.068.4a.863.863,0,0,0-.547.024l-.214-.143c-.043.071-.136.164-.119.214.008.018.016.03.024.048a10.542,10.542,0,0,1-3.83.476c-1.839.089-3.681-.481-5.518.119-.014.008-.033,0-.047,0-.473-1.141-.927-1.263-2.569-1.308-.346-.008-.7.086-1.047.1a1.562,1.562,0,0,0-1.261.5,3.979,3.979,0,0,0-.523.119c-.258.078-.609-.2-.928-.309a8.263,8.263,0,0,0-1.261-.4c-.2-.034-.562.092-.618.238a.856.856,0,0,0,.119.737c.393.456.913.8,1.261,1.284.107.148.042.491-.072.761a4.88,4.88,0,0,1-1.261-.024c-.283-.246-.557-.51-.832-.761l-.428.428a8.531,8.531,0,0,1-.856-.357.621.621,0,0,1-.19-.452,7.963,7.963,0,0,1,.785.143c.215.044.409.126.618.19a2.73,2.73,0,0,0-.714-1.5c.3-.5.155-.574-.666-1.094-.753-.478-1.43-1.076-2.4-.69a4.42,4.42,0,0,0-.642.357c-.619-.181-1.224-.36-1.831-.571-.571-.2-1.146-.412-1.713-.618,0-.159-.1-.2-.381-.262-1.729-.366-3.211-1.55-5.09-1.522-.414-.124-.826-.245-1.237-.381-.277-.169-.55-.361-.809-.523a16.968,16.968,0,0,0-4.591-2.022c-.228-.062-.442-.141-.666-.214a17.639,17.639,0,0,0-2.926-1.522,6.778,6.778,0,0,1-.547-.523c-.541-.575-1.268-1.279-2.236-.69-.017-.013-.031-.035-.048-.047-.389-.281-.789-.545-1.189-.809a15.392,15.392,0,0,0-4.5-3.734c-.931-.432-2-.752-2.45-1.879a1.046,1.046,0,0,0-.595-.476,10.049,10.049,0,0,1-3.14-2.4c-1.363-1.237-2.273-2.955-4-3.83-.276-.141-.428-.561-.618-.856-.8-1.247-1.387-2.64-2.807-3.4-.238-.127-.305-.6-.452-.9a8.052,8.052,0,0,0-.595-1.166.72.72,0,0,0-.618-.262.853.853,0,0,0-.4.5c-.334-.387-.672-.77-1.023-1.142a3.389,3.389,0,0,0-.571-2.022,39.44,39.44,0,0,1-1.9-3.473c-.888-1.828-1.685-3.687-2.688-5.471a32.548,32.548,0,0,1-3.544-8.23,14.732,14.732,0,0,0-1.713-4.71,4.733,4.733,0,0,1-.476-1.784c-.48-2.956-1.454-5.808-1.546-8.872-.085-2.8-1.08-5.533-.547-8.4a4.24,4.24,0,0,0-.072-1.07c-.354-4.269.742-8.451.737-12.7a2.315,2.315,0,0,1,.143-.523q1.193-4.629,2.379-9.253a3.742,3.742,0,0,0,.238-1.284,3.287,3.287,0,0,1,.595-2c1.631-3.043,3.392-6.015,4.8-9.158,1.8-4,4.663-7.306,6.827-11.061a6.3,6.3,0,0,1,1.07-1.165,49.091,49.091,0,0,0,5.352-5.875c.706-.988,1.221-2.168,2.64-2.4.214-.034.432-.33.571-.547a10.549,10.549,0,0,1,4.329-3.425,3.364,3.364,0,0,0,1.879-1.76,2.247,2.247,0,0,1,1.974-1.522,11.573,11.573,0,0,0,5.709-3.235c.134-.124.272-.26.4-.4.209-.106.409-.228.618-.333.231-.117.478-.2.714-.309a10.22,10.22,0,0,0,1.784-.856c.078-.04.161-.077.238-.119s.125-.08.19-.119c.125-.071.259-.137.381-.214a6.313,6.313,0,0,1,2.9-1.189,2.809,2.809,0,0,0,2.046-1.118,1.29,1.29,0,0,0,.238-.928.419.419,0,0,0-.4-.381Zm13.582,148.092c.021.019.05.028.072.048l.047-.048h-.119ZM206.4,500.867c-.01-.023-.014-.049-.024-.072s-.047-.033-.072-.047c-.008.037.008.084,0,.119h.1Zm63.58-111.391c-.619.019-1.233.057-1.855.119-2.933.292-5.881.553-8.825.69a15.431,15.431,0,0,0-5.614,1.38,1.089,1.089,0,0,0,1.142.951,6.2,6.2,0,0,0,1.831-.309,32.588,32.588,0,0,1,5.685-1.118,3.275,3.275,0,0,0,.856-.119,3.327,3.327,0,0,0,.714-.262,1.938,1.938,0,0,1,1.142-.072,2.447,2.447,0,0,0,1.166.119.451.451,0,0,0,.309.047.349.349,0,0,0,.119-.1c.155-.018.319-.043.476-.047,1.232-.033,2.454-.161,3.687-.143a.284.284,0,0,0,.143.143c.357.126.738.2,1.308.333.188-.08.409-.172.642-.262.057.013.109.033.166.048a47.034,47.034,0,0,0,5.542.785,11.032,11.032,0,0,0,2.307.047,3.635,3.635,0,0,1,2.212.5,10.035,10.035,0,0,0,2.141.88c1.562.44,3.133.8,4.71,1.189a.372.372,0,0,0,.238,0c.059-.044.1-.1.166-.143.181.014.363.05.547.047a.885.885,0,0,0,.523-.262c-.072-.278-.158-.706-.357-.785-.552-.22-1.08-.392-1.57-.547a7.268,7.268,0,0,0-2.593-.88,12.918,12.918,0,0,1-1.808-.381,32.837,32.837,0,0,0-7.3-1.284,13.5,13.5,0,0,1-2.307-.119,24.291,24.291,0,0,0-5.542-.452Zm-16.317,2.188a8.272,8.272,0,0,0-1.522.238c-2.991,1.051-6.156,1.615-8.991,3.116a88.006,88.006,0,0,0-7.992,4.234c-1.031.689-2.111,1.288-3.068,2.069-.266.218-.541.427-.809.642-.161.094-.305.207-.476.285a.283.283,0,0,0-.143.167c-.008.023-.017.046-.024.072-.458.365-.916.737-1.38,1.094-.883.157-1.753.257-2.283,1.237a6,6,0,0,1-1.237,1.38c-.049.039-.094.079-.143.119-.065.063-.13.125-.19.19a10.966,10.966,0,0,0-2.26,2.474,1.168,1.168,0,0,0-.571.167c-1.771,1-2.742,2.908-4.4,4.044a5.537,5.537,0,0,0-1.07,1.189c-.623.781-1.2,1.6-1.831,2.379-.571.705-.813,1.5-.452,1.617a1.912,1.912,0,0,0,1.689-.476,4.734,4.734,0,0,0,1.094-1.189,11.119,11.119,0,0,1,2.331-2.521,4.1,4.1,0,0,0,1.094-1.237c.574-.567,1.143-1.143,1.736-1.689a1.862,1.862,0,0,0,.547-.809c.242-.164.284-.445.262-.951a.542.542,0,0,0-.214-.476,1.349,1.349,0,0,0,1.5-.476,24.047,24.047,0,0,1,2.521-2.307c.352-.181.7-.365,1.07-.523a2.184,2.184,0,0,0,.856-1.047c.03-.025.065-.046.1-.072a12.1,12.1,0,0,0,1.9-1.546.286.286,0,0,0,.143-.024c.9-.563,1.787-1.159,2.664-1.76a23.155,23.155,0,0,0,3.33-1.974,23.392,23.392,0,0,1,6.232-3.021,13.841,13.841,0,0,0,3.33-1.546,3.081,3.081,0,0,1,1.9-.69,5.552,5.552,0,0,0,4.757-2.379ZM293,393.544a1.229,1.229,0,0,0-.285.024c-.193.03-.3.119-.309.262a1.253,1.253,0,0,0,.166.666l.072.143a3.209,3.209,0,0,0,.642.69,4.735,4.735,0,0,0,1.427.761,11.343,11.343,0,0,1,3.068,1.617,3.635,3.635,0,0,0,2.593.809,1.283,1.283,0,0,1,1.546.975c.29.7.576.731,1.308.5.529-.168.538-.574.072-1.047-1.429-1.45-3.493-1.9-5.019-3.211a5.666,5.666,0,0,0-1.451-.714c-.916-.4-1.847-.759-2.759-1.165a3.326,3.326,0,0,0-1.07-.309Zm-24.476,6.47-2.069.166-.809,10.252-2.45-9.99-2.069.19,3.4,12.8,2.712-.214Zm3.639.143-.785,13.035,1.95.119.809-13.035Zm34.252.809c-.072.014-.149.037-.167.072a.979.979,0,0,0-.024.452.394.394,0,0,0,.1.214,24.811,24.811,0,0,1,1.831,2.022,2.8,2.8,0,0,0,1.546.666,28.8,28.8,0,0,1,5.495,5.637,11.347,11.347,0,0,0,3.592,3.544,1.146,1.146,0,0,1,.476.5c.574,1.4,1.842,2.268,2.664,3.473q2.47,3.62,4.9,7.279a3.716,3.716,0,0,1,.285.88,11.548,11.548,0,0,0,.452,1.308c1.231,2.591,2.494,5.156,3.711,7.754a10.347,10.347,0,0,1,.428,1.57,22.908,22.908,0,0,0,1.07,3.544,5.221,5.221,0,0,1,.5,1.927,15.043,15.043,0,0,0,.809,3.592,9.749,9.749,0,0,1,.428,1.76c.364,2.367.352,4.806,1,7.136a1.853,1.853,0,0,1,0,1.142,3.117,3.117,0,0,0-.072,2.331,6.735,6.735,0,0,0,.024,3.33c.05.181.366.45.4.428.249-.141.617-.335.642-.547.117-.989.135-1.979.167-2.593-.141-.417-.184-.594-.238-.714a3.172,3.172,0,0,0,0-2.593,6.827,6.827,0,0,0-.19-.809,3.518,3.518,0,0,1,.262-1.689,1.926,1.926,0,0,0,.119-1.118,24.178,24.178,0,0,1-.309-4.567,25.382,25.382,0,0,0-.452-3.925c-.622-2.566-1.138-5.159-1.832-7.707-.343-1.262-1.035-2.415-1.451-3.663a64.269,64.269,0,0,0-2.9-6.85,29.443,29.443,0,0,0-2.545-4.424c-1.687-2.41-3.512-4.713-5.281-7.064a17.972,17.972,0,0,0-1.546-2.022,42.332,42.332,0,0,0-8.3-6.732c-.639-.375-1.254-.767-1.879-1.165a2.176,2.176,0,0,0-1.5-1.285,9.512,9.512,0,0,1-2.022-1.07.308.308,0,0,0-.19-.024Zm-26.569.785a2.593,2.593,0,0,0-.88.262,3.182,3.182,0,0,0-1.713,2.4,3.9,3.9,0,0,0,.072,1.879,7.585,7.585,0,0,0,1.047,1.927c.619.873,1.07,1.538,1.38,1.974a2.415,2.415,0,0,1,.4,1.736,1.575,1.575,0,0,1-.357.809,1.22,1.22,0,0,1-1.142.4.967.967,0,0,1-.714-.5,2.852,2.852,0,0,1-.262-1.736l-1.879-.238a5.169,5.169,0,0,0,.072,1.9,3.222,3.222,0,0,0,.737,1.451,3.068,3.068,0,0,0,1.76.928,3.669,3.669,0,0,0,1.094.072,2.59,2.59,0,0,0,1.522-.642,3.7,3.7,0,0,0,1.142-2.165,3.485,3.485,0,0,0-.048-1.261,5.326,5.326,0,0,0-.166-.666,6.819,6.819,0,0,0-.832-1.641c-.113-.178-.363-.488-.737-.951a6.4,6.4,0,0,1-.69-1,2.85,2.85,0,0,1-.4-1.927,1.9,1.9,0,0,1,.428-.9.867.867,0,0,1,.88-.309.99.99,0,0,1,.714.476,2.246,2.246,0,0,1,.214,1.308l1.9.047a3.811,3.811,0,0,0-.119-1.57,2.748,2.748,0,0,0-.737-1.189,3.3,3.3,0,0,0-1.665-.809,3.586,3.586,0,0,0-1.023-.072Zm-27.14.357a3.941,3.941,0,0,0-1.4.238l-2.949.975,4.115,12.369,1.855-.618-1.546-4.662,1.07-.357a1.435,1.435,0,0,0,.166-.072l2.688,4.305,2.022-.666-3.187-4.948a3.081,3.081,0,0,0,.262-2.569l-.595-1.784a3.281,3.281,0,0,0-1.332-1.879,2.4,2.4,0,0,0-1.166-.333Zm35.013.9-4.305,12.321,1.855.642,4.305-12.3-1.855-.666Zm-35.251,1.118c.445,0,.749.27.928.809l.595,1.808a1.143,1.143,0,0,1-.047.88,1.067,1.067,0,0,1-.642.571l-1.142.357-1.308-3.948,1.118-.381a1.619,1.619,0,0,1,.5-.1Zm43.243,1.475a2.925,2.925,0,0,0-.452.024,3.514,3.514,0,0,0-.619.143,3.018,3.018,0,0,0-1.855,1.522l-3.306,6.3a3.033,3.033,0,0,0-.214,2.379,2.967,2.967,0,0,0,1.522,1.832,3.019,3.019,0,0,0,2.379.214A2.973,2.973,0,0,0,295,416.5l3.306-6.3a3.171,3.171,0,0,0-2.593-4.591Zm-51,.19-1.808.975,4.876,8.825a1.114,1.114,0,0,1-1.285,1.617,1.082,1.082,0,0,1-.69-.523l-4.876-8.8-1.689.928,4.9,8.825A2.977,2.977,0,0,0,246,419.114a3.135,3.135,0,0,0,3.853-2.141,2.917,2.917,0,0,0-.262-2.355Zm50.688,1.76a1.115,1.115,0,0,1,.642.143,1.043,1.043,0,0,1,.547.642,1.08,1.08,0,0,1-.072.856l-3.33,6.327a1.121,1.121,0,0,1-2.069-.19,1.067,1.067,0,0,1,.072-.856l3.33-6.327a1.072,1.072,0,0,1,.666-.547,1.048,1.048,0,0,1,.214-.047Zm7.635,2.5-8.111,10.228,1.546,1.213,5.185-6.541-3.068,8.23,1.665,1.308,8.111-10.228-1.546-1.213-5.447,6.85,3.4-8.468-1.736-1.38ZM234.8,412.287a3.11,3.11,0,0,0-2.093,5.066l4.5,5.518a3.108,3.108,0,0,0,5.518-1.665,2.982,2.982,0,0,0-.69-2.284l-4.519-5.518a2.981,2.981,0,0,0-2.093-1.118A3.173,3.173,0,0,0,234.8,412.287Zm.119,1.974a1.239,1.239,0,0,1,.238,0,1.113,1.113,0,0,1,.761.428l4.519,5.518a1.1,1.1,0,0,1,.238.833,1.036,1.036,0,0,1-.4.737,1.119,1.119,0,0,1-.833.262,1.071,1.071,0,0,1-.761-.4l-4.519-5.518a1.081,1.081,0,0,1-.238-.833,1.154,1.154,0,0,1,1-1.023ZM214.2,419.8a.777.777,0,0,0-.5.143,9.772,9.772,0,0,0-2.331,3.164,13.049,13.049,0,0,1-.856,1.641,32.733,32.733,0,0,0-3.14,6.708,13.572,13.572,0,0,1-.69,2.212,24.854,24.854,0,0,0-2.236,7.065c-.477,2.909-1.011,5.8-1.641,8.682a15.435,15.435,0,0,0-.119,5.78,1.053,1.053,0,0,0,1.213-.833,6.254,6.254,0,0,0,.19-1.855,11.593,11.593,0,0,1-.024-1.689c.025-.1.044-.191.072-.285a.836.836,0,0,0-.024-.5,41.4,41.4,0,0,0,.428-4.924c0-.03,0-.064,0-.1.1-.4.213-.792.309-1.189a6.334,6.334,0,0,0,.452-1.831c.123-.514.227-1.029.333-1.546a1.981,1.981,0,0,0,.618-1.023c.147-.6.168-1.229.357-1.808a2.6,2.6,0,0,0,.119-.928c.068-.143.137-.287.214-.428a46.973,46.973,0,0,0,2.212-5.138,11.535,11.535,0,0,0,.476-1.451c.385-.675.706-1.392,1.047-2.093a.658.658,0,0,0-.024-.452c.065-.077.117-.163.19-.238a9.794,9.794,0,0,0,1.4-1.808c.581-.977,1.146-1.973,1.689-2.973.372-.585.752-1.2,1.118-1.784a.23.23,0,0,0-.048-.214,3.349,3.349,0,0,0-.5-.214c-.028.019-.064.052-.1.072a.672.672,0,0,0-.1-.119.193.193,0,0,0-.119-.047Zm7.16,14.486c.056.522.091,1.208.119,2.093s.048,2.017.048,3.378v14.414a66.308,66.308,0,0,1-1.094,13.344,26.844,26.844,0,0,1-3.378,8.8,13.063,13.063,0,0,1,1.76,2.046,13.544,13.544,0,0,1,1.261,2.307,32.119,32.119,0,0,0,4.02-10.157,63.086,63.086,0,0,0,1.4-13.939V438.191h8.658c2.69,0,4.691.034,5.97.1a25.443,25.443,0,0,1,3.092.309V434.29a23.126,23.126,0,0,1-3.235.262c-1.433.046-3.922.075-7.493.072-3.849,0-6.522-.04-8.016-.1a24.675,24.675,0,0,1-3.116-.238Zm59.537,0c.112,1.014.206,2.227.262,3.639s.072,2.809.072,4.186c.008,1.546,0,2.942-.047,4.186s-.149,2.457-.285,3.639c2.023-.112,4.491-.206,7.374-.262s6.3-.072,10.252-.072,7.344,0,10.157.047,5.241.149,7.278.285c-.136-1.158-.24-2.36-.285-3.615s-.052-2.661-.047-4.21c0-1.385.015-2.8.072-4.234s.15-2.626.262-3.592c-2.034.165-4.453.266-7.255.333s-6.19.1-10.18.1c-3.948,0-7.38-.027-10.252-.1s-5.326-.168-7.374-.333Zm-35.941.047v4.591q1.71-.206,4.02-.309c1.539-.068,3.3-.117,5.3-.143-.059.856-.159,1.761-.309,2.735s-.324,1.923-.523,2.807q-2.71-.039-4.258-.143a21.655,21.655,0,0,1-2.616-.309c.058.553.122,1.4.167,2.545s.046,2.285.047,3.425v17.1c0,1.136-.021,2.263-.072,3.378s-.105,1.949-.19,2.5a14.8,14.8,0,0,1,1.76-.285,17.567,17.567,0,0,1,1.879-.1A21.935,21.935,0,0,1,246.5,476.2a34.551,34.551,0,0,1-6.065,4.139,12.1,12.1,0,0,1,2.236,1.094,12.914,12.914,0,0,1,1.879,1.427c1.134-.91,2.336-1.863,3.568-2.878s2.41-1.988,3.544-2.926c.734-.6,1.285-1.023,1.641-1.261a2.6,2.6,0,0,1,.88-.428c.5-.117.749-.276.761-.476s-.216-.414-.666-.642c-.482-.256-1.014-.56-1.594-.928s-1.166-.765-1.76-1.189h10.68c.77,0,1.49.033,2.141.1a19.073,19.073,0,0,1,2,.285c-.059-.549-.1-1.383-.143-2.5s-.069-2.242-.072-3.378v-17.2c0-1.135.027-2.263.072-3.378s.084-1.949.143-2.5a21.693,21.693,0,0,1-3.045.333c-1.23.068-3.008.122-5.328.119.254-.933.478-1.877.69-2.831s.381-1.862.523-2.712c2.147.026,4.058.075,5.709.143s3.081.172,4.305.309v-4.591c-1.388.141-3.048.255-5,.333s-4.232.118-6.85.119-4.9-.027-6.827-.1-3.585-.191-4.971-.357Zm40.746,3.52h25.5v2.973H285.7Zm-52.329.737a18.013,18.013,0,0,1-.072,3.068,12.485,12.485,0,0,1-.642,2.735c-1.137-.029-2.14-.069-3-.119s-1.454-.109-1.808-.167c.053.532.083,1.217.1,2.022s0,1.908,0,3.306v8.872c0,.907.008,1.821-.024,2.735s-.087,1.754-.143,2.521a16.314,16.314,0,0,1,2.236-.285c.972-.072,2.329-.093,4.091-.1V475.32a1.362,1.362,0,0,1-.856,1.451,7.568,7.568,0,0,1-3.734-.047,10.177,10.177,0,0,1,1.118,2.4,10.944,10.944,0,0,1,.452,2.617c3-.442,4.914-1.013,5.756-1.713s1.219-2.057,1.118-4.091v-8.516a22.788,22.788,0,0,1,2.474,3.4,23.557,23.557,0,0,1,1.713,3.877l3.473-2.569c-.7-1.2-1.409-2.373-2.141-3.5s-1.625-2.385-2.664-3.782L237.963,467V463.19c1.9.027,3.357.057,4.353.119a14.142,14.142,0,0,1,2.188.262c-.058-.768-.1-1.607-.143-2.521s-.069-1.828-.072-2.735v-8.872c0-1.4-.008-2.5.024-3.306s.087-1.49.143-2.022a15.99,15.99,0,0,1-2.545.238c-1.182.04-2.945.05-5.281.047.377-1.121.69-1.936.928-2.45a2.78,2.78,0,0,1,.737-1.07c.39-.332.573-.6.523-.785s-.332-.3-.809-.381c-.777-.144-1.563-.323-2.4-.523s-1.6-.394-2.236-.595Zm52.329,5.066h25.5v2.973H285.7Zm-54.28,3.758h9.443v4.852h-9.443Zm19.172.119h11.084v4.4H250.593Zm50.213,2.236-5.542.5c.411.571.778,1.1,1.07,1.57a15.879,15.879,0,0,1,.833,1.546c-5.089,0-9.431-.035-13.059-.119s-6.857-.213-9.681-.381v4.091c2.9-.168,6.268-.3,10.109-.381s8.51-.119,13.986-.119,10.121.035,13.962.119,7.228.213,10.133.381V452.89c-2.616.14-5.611.249-8.967.333s-7.32.138-11.893.167c-.193-.574-.372-1.146-.523-1.713s-.291-1.189-.428-1.9Zm-98.094,5.447a8.452,8.452,0,0,0-.19,1.546c.241,3.161-.026,6.364.69,9.491a87.77,87.77,0,0,0,2.022,8.8c.4,1.174.706,2.394,1.213,3.52.92,2.044,1.82,4.076,2.593,6.184a12.963,12.963,0,0,0,2.5,4.424,1.477,1.477,0,0,0,.024-1.76A38.929,38.929,0,0,1,208.92,482a7.5,7.5,0,0,0-1.38-2.64c-.179-.175-.117-.587-.19-.88-.294-1.174-.534-2.371-.833-3.544a.477.477,0,0,0,.024-.523.872.872,0,0,0-.19-.19c-.134-.463-.3-.911-.476-1.356a23.246,23.246,0,0,1-1.308-6.779,14.022,14.022,0,0,0-.642-3.639,3.024,3.024,0,0,1-.167-2,5.585,5.585,0,0,0-1.047-5.233Zm8.825,33.967c-.015.033-.033.061-.048.1l.1-.024a.464.464,0,0,1-.024-.048l-.024-.024Zm.047.072a10.323,10.323,0,0,0,.5,1.451c.386.758.865,1.459,1.261,2.212a12.612,12.612,0,0,0,3.4,4.044,1.772,1.772,0,0,0,.333.167,1.851,1.851,0,0,0-.047-.428,62.558,62.558,0,0,0-3.4-6.541,1.647,1.647,0,0,0-2.046-.9Zm39.009-33.8h11.084V460.1H250.593Zm-19.172.238h9.443v4.353h-9.443V455.7Zm51.33,3.639a37.465,37.465,0,0,1,.309,5.257,44.7,44.7,0,0,1-.309,5.233c1.644-.112,3.68-.182,6.113-.238s5.13-.1,8.087-.1v6.874c.062,1.207-.256,1.971-.928,2.283s-2.064.327-4.21.024a17,17,0,0,1,1.118,2.236,14.12,14.12,0,0,1,.666,2.165c3.415-.415,5.625-.912,6.636-1.522a3.157,3.157,0,0,0,1.356-3.211v-8.848c2.611.028,5.06.087,7.35.143s4.192.107,5.685.19a45.226,45.226,0,0,1-.262-5.114,52.68,52.68,0,0,1,.262-5.376c-1.912.112-4.088.182-6.517.238s-5.558.1-9.372.1c-3.765,0-6.875-.04-9.348-.1s-4.688-.126-6.636-.238Zm52.924,2.141a1.39,1.39,0,0,0-.238.4c-.5,2.737-1.021,5.458-1.451,8.206a11.616,11.616,0,0,1-.595,2.45,13.081,13.081,0,0,0-.737,2.926,6.826,6.826,0,0,0,.238,1.808c.9-.04.688-.908.9-1.38a13.245,13.245,0,0,0,.761-2.64,7.392,7.392,0,0,1,.357-2.046,15.905,15.905,0,0,0,1.047-3.473,7.314,7.314,0,0,0,.309-2.735c-.065-1.006-.116-2.018-.214-3.021-.018-.175-.248-.335-.381-.5Zm-48.69,1.261h23.382v3.853H286.986Zm-36.393.9h11.084v5.019H250.593Zm-21.955,1.5a22.267,22.267,0,0,1-1.522,4.591,36.792,36.792,0,0,1-3.068,5.185,10.155,10.155,0,0,1,1.879.69,12.136,12.136,0,0,1,1.855,1.166c.522-.929.993-1.828,1.4-2.688s.827-1.813,1.237-2.854a21.274,21.274,0,0,1,1.094-2.379,4.008,4.008,0,0,1,.9-1.261c.473-.3.706-.521.69-.69s-.26-.322-.737-.428c-.537-.129-1.083-.283-1.641-.476s-1.249-.475-2.093-.856Zm59.465,5.471a43.123,43.123,0,0,1-5.733,5.09,37.548,37.548,0,0,1-6.28,3.687,15.355,15.355,0,0,1,1.784,1.451,12,12,0,0,1,1.4,1.57,44.818,44.818,0,0,0,4.258-2.688c1.207-.874,2.335-1.749,3.4-2.664a23.406,23.406,0,0,1,2.426-1.879,8.113,8.113,0,0,1,1.713-.928c.664-.224,1.011-.423,1.047-.618s-.2-.379-.714-.547a6.541,6.541,0,0,1-1.57-.951,14.389,14.389,0,0,1-1.736-1.522Zm19.528.4-2.236,3.4a58.782,58.782,0,0,1,6.755,2.831,48.7,48.7,0,0,1,6.208,3.592l2.569-4.472c-2.162-.961-4.273-1.846-6.351-2.688s-4.393-1.731-6.946-2.664Zm-48.524,1.332L256.3,475.2a25.764,25.764,0,0,1,4.948,3.306,39.154,39.154,0,0,1,4.448,4.353l3.4-3.235q-1.983-1.733-4.519-3.592c-1.692-1.239-3.506-2.476-5.471-3.687Zm72.881,7.112c-.264.04-.446.372-.618.547a3.256,3.256,0,0,0-.5,1,30.919,30.919,0,0,1-4.448,7.612,11.363,11.363,0,0,0-2.474,4.4,1.16,1.16,0,0,1-.357.595c-1.207.918-1.713,2.367-2.664,3.473q-2.857,3.323-5.756,6.613a3.774,3.774,0,0,1-.785.5,11.5,11.5,0,0,0-1.142.785c-2.185,1.86-4.346,3.742-6.541,5.59a10.271,10.271,0,0,1-1.4.809,22.832,22.832,0,0,0-3.14,1.951,5.291,5.291,0,0,1-1.736,1,14.943,14.943,0,0,0-3.259,1.689,9.845,9.845,0,0,1-1.594.88c-2.192.965-4.53,1.579-6.613,2.807a1.889,1.889,0,0,1-1.118.285,3.718,3.718,0,0,0-3.068,1.165,3.481,3.481,0,0,0,3.663-.333,3.316,3.316,0,0,1,2.426-.595,1.872,1.872,0,0,0,1.094-.166,24.356,24.356,0,0,1,4.353-1.475,25.275,25.275,0,0,0,3.663-1.451c2.318-1.265,4.664-2.453,6.946-3.782,1.131-.658,2.089-1.63,3.187-2.355a63.948,63.948,0,0,0,5.851-4.567,29.331,29.331,0,0,0,3.615-3.592c1.892-2.253,3.657-4.629,5.471-6.946a17.989,17.989,0,0,0,1.546-2.022,42.276,42.276,0,0,0,4.353-9.752c.132-.479.281-.952.428-1.427.3-.717.588-1.427.856-2.069-.058-.178-.081-.239-.119-.357.09-.29.234-.7.167-.737a.425.425,0,0,0-.285-.072Zm-47.215,41.7c-.017-.008-.031-.017-.047-.024l-.024.072c.022-.019.049-.029.072-.047Zm.476-27.378-2.212,13.035h2.046l.476-3h2.069l.452,3h2.069l-2.188-13.035H285.25Zm-25.237.4a2.975,2.975,0,0,0-1.831.547,3.21,3.21,0,0,0-1.189,2.712,3.91,3.91,0,0,0,.428,1.831,7.594,7.594,0,0,0,1.4,1.689l1.736,1.641a2.4,2.4,0,0,1,.737,1.617,1.643,1.643,0,0,1-.19.88,1.191,1.191,0,0,1-1.023.619,1,1,0,0,1-.809-.357,2.813,2.813,0,0,1-.618-1.641l-1.879.143a5.045,5.045,0,0,0,.452,1.832,3.225,3.225,0,0,0,1,1.284,3.056,3.056,0,0,0,1.9.571,3.706,3.706,0,0,0,1.094-.143,2.559,2.559,0,0,0,1.356-.928,3.67,3.67,0,0,0,.714-2.331,3.633,3.633,0,0,0-.285-1.261,5.739,5.739,0,0,0-.309-.618,6.625,6.625,0,0,0-1.118-1.427c-.146-.153-.446-.427-.9-.809a6.617,6.617,0,0,1-.88-.833,2.865,2.865,0,0,1-.785-1.808,1.826,1.826,0,0,1,.238-.951.983.983,0,0,1,1.594-.167,2.234,2.234,0,0,1,.476,1.237l1.879-.333a3.721,3.721,0,0,0-.428-1.5,2.738,2.738,0,0,0-.951-1.023,3.358,3.358,0,0,0-1.808-.476Zm5.685.166v13.035h1.974v-5.518h2.355v5.518H272V494.349h-1.974v5.542h-2.355v-5.542Zm8.9.1v13.035h3.663a2.783,2.783,0,0,0,1.475-.452,2.817,2.817,0,0,0,1.047-1.07,4.42,4.42,0,0,0,.452-2.117,5.118,5.118,0,0,0-.072-.9,3.81,3.81,0,0,0-.452-1.284,2.275,2.275,0,0,0-1.094-1,1.876,1.876,0,0,0,.666-.5,3.11,3.11,0,0,0,.714-2.117,4.51,4.51,0,0,0-.19-1.38,2.867,2.867,0,0,0-1.142-1.617,3.784,3.784,0,0,0-2.117-.595h-2.949Zm-23.31.167a3.086,3.086,0,0,0-3.116,3.116v7.136a2.965,2.965,0,0,0,.9,2.188,3.13,3.13,0,0,0,4.4,0,2.956,2.956,0,0,0,.928-2.188v-1.832h-2.046v1.808a1.05,1.05,0,0,1-.333.785,1.123,1.123,0,0,1-.809.333,1.137,1.137,0,0,1-1.118-1.118v-7.16a1.069,1.069,0,0,1,.333-.785,1.051,1.051,0,0,1,.785-.333,1.109,1.109,0,0,1,.809.333,1.056,1.056,0,0,1,.333.785v1.546H254.4v-1.5a3.036,3.036,0,0,0-.9-2.212A2.987,2.987,0,0,0,251.283,494.611Zm25.451,1.832h.809a1.252,1.252,0,0,1,.951.381,1.683,1.683,0,0,1,.4,1.213,2.612,2.612,0,0,1-.119.833,1.222,1.222,0,0,1-1.237.9h-.809Zm9.871.333.714,5.138h-1.451Zm46.43.166a2.377,2.377,0,0,0-.618.166,1.662,1.662,0,0,0-.69.761c-.524.993-.9,2.054-1.5,3-.681,1.078-1.16,2.324-2.379,3.021-.7.4-.653,1.1-.452,1.784a7.022,7.022,0,0,0,1.5-.975,38.867,38.867,0,0,0,4.852-6.541c.211-.364.428-.909-.1-1.142a1.266,1.266,0,0,0-.618-.072Zm-5.637,8.729c-.009.008-.014.018-.024.024l-.119-.024s.163.088.167.1c-.011-.032-.014-.062-.024-.1Zm-109.63-7.612c-.142.135-.239.222-.333.309.118.083.231.223.357.238s.237-.1.357-.167C218.021,498.316,217.9,498.183,217.769,498.06Zm2.521,1.832a.17.17,0,0,0-.119.024,4.175,4.175,0,0,0-.333.452,7.451,7.451,0,0,0,.262.761,5.126,5.126,0,0,0,1.974,1.927c.193.135.511.054.785.072-.046-.218-.014-.5-.143-.642-.752-.861-1.526-1.711-2.307-2.545a.2.2,0,0,0-.119-.047Zm56.444,1.76h.809a1.369,1.369,0,0,1,1.118.452,2.478,2.478,0,0,1,.4,1.594,2.258,2.258,0,0,1-.119.809,1.432,1.432,0,0,1-1.4,1.047h-.809Zm50.165,2.283c-.145.026-.283.046-.428.072.02.081.024.214.072.238a1.961,1.961,0,0,0,.4.119c-.014-.142-.033-.286-.048-.428Zm-100.925,2a1.44,1.44,0,0,0-.357.024c-.262.044-.239.576.1.785,1.115.7,1.866,1.776,2.926,2.569,1.166.871,2.249,1.874,3.5,2.664.1.06.1.267.143.4.17-1.1.008-1.96-1.237-2.379a5.371,5.371,0,0,1-2.426-1.76,19,19,0,0,0-2.355-2.188.526.526,0,0,0-.285-.119Zm6.3,6.446a9.982,9.982,0,0,1,1.07.357c.973.439,1.911.9,2.878,1.356a3.4,3.4,0,0,0,1.142.452c.291.011-.1-.786-.785-1.166-.538-.3-1.155-.477-1.665-.809A2.751,2.751,0,0,0,232.278,512.379Zm93.551-5.852a.115.115,0,0,0-.1.048,2.878,2.878,0,0,0-.357.832c.153.044.351.173.452.119a5.472,5.472,0,0,0,.737-.547c-.1-.2-.116-.322-.167-.333a3.108,3.108,0,0,0-.571-.119Zm-3,3.52a.518.518,0,0,0-.452.238,11.626,11.626,0,0,0-.809,1.5c.752-.061,1.083.411,1.285,1.047.141.447.489.431.856.357a1.817,1.817,0,0,0,1.38-1.118c.286-.656-.167-1.311-.88-1.07-.752.254-.869.041-1.023-.595A.422.422,0,0,0,322.832,510.048Zm-3.5,1.047c-.517.045-.947.417-1.713,1.142-.251.239-.427.555-.666.809-.642.683-.8,1.359-.072,2.069a1.379,1.379,0,0,1,.072,1.927,5.7,5.7,0,0,1-3.164,2.26c-.152.05-.49-.174-.595-.357-.117-.2-.043-.508-.1-.761-.208-1.009-.194-.946-1.332-.69-.871.195-1.774.253-2.188,1.213a4.876,4.876,0,0,0-.19.737,3.528,3.528,0,0,0,.618-.1c1.589-.549,1.876-.4,2.26,1.07.288,1.1.614,1.287,1.57.761a12.494,12.494,0,0,0,3.663-3.021,5.956,5.956,0,0,1,3.068-2.379c.375-.1.681-.54,1-.832a.254.254,0,0,0,.048-.238c-.093-.127-.232-.3-.357-.309a4.394,4.394,0,0,0-.761.1c-.309.035-.618.048-.928.072a5.19,5.19,0,0,1,.167-1,2.52,2.52,0,0,1,1.713-1.736,4.388,4.388,0,0,0-2.117-.737Zm2.117.737c.028.014.042.033.072.047a.337.337,0,0,0,.024-.072l-.1.024Zm-81.3,3.925c-.119.024-.282.115-.285.167-.014.2,0,.512.119.571.885.439,1.8.855,2.712,1.237.084.035.229-.123.357-.19-.021-.074,0-.186-.047-.214-.913-.531-1.83-1.069-2.759-1.57a.159.159,0,0,0-.1,0Zm6.089,2.45a.972.972,0,0,0-.166.024,2.864,2.864,0,0,0-.666.476c.13.157.247.415.4.452,1.44.344,2.882.659,4.329.975-.071-.194-.123-.468-.238-.5a12.338,12.338,0,0,1-3.164-1.332.867.867,0,0,0-.5-.1Zm3.9,1.927c.008.022.015.052.024.072a1.114,1.114,0,0,0,.119-.024c-.022-.011-.049-.013-.072-.024s-.047-.018-.072-.024Zm.143.048c.116.059.238.116.357.166a.633.633,0,0,0,.214.024c-.08-.071-.147-.174-.238-.19a1.138,1.138,0,0,0-.333,0Zm60.06.975.048.119v.024c-.049.32-.115.652-.167.975.014.025.034.046.047.072.01-.024.014-.048.024-.072.047-.334.092-.685.143-1.023l-.1-.1Zm-.072,1.189c-.053.125-.114.234-.166.357l.357-.024-.19-.333Zm-28.662-.737c-2.773.222-5.535.418-8.3.713a12.382,12.382,0,0,1-2.307.072.575.575,0,0,0-.428-.262.458.458,0,0,0-.143.024.813.813,0,0,0-.262.166,13.264,13.264,0,0,0-2.4.1,6.832,6.832,0,0,0-1.689.69c.272.86,1.059.46,1.57.547a13.4,13.4,0,0,0,2.759.048c.694-.029,1.428-.365,2.046-.19,1.234.349,2.441.024,3.639.1a7.257,7.257,0,0,0,2.712-.4c.955-.323,1.935-.62,2.878-.975.165-.062.232-.329.357-.5a1.264,1.264,0,0,0-.428-.119Zm-23.072.1a.844.844,0,0,0-.547.357c-.22.307.357.683,1.427.856,1.121.181,2.239.294,3.235.428.354-.231.537-.336.714-.452-.158-.151-.293-.412-.476-.452-.261-.057-.524-.11-.785-.166-.114-.079-.207-.19-.333-.214-.027-.008-.1.06-.143.119-.706-.147-1.4-.274-2.117-.357a7.864,7.864,0,0,0-.785-.119A1.139,1.139,0,0,0,258.537,521.7Zm-24.761,2c.513.271,1.032.539,1.546.809a.954.954,0,0,1-.737.285c-.57.008-1.136-.485-.951-.88A.822.822,0,0,1,233.776,523.7Zm66.03,1.974a.822.822,0,0,1,.666.381.684.684,0,0,1-.072.642.79.79,0,0,1-1.142.119c-.194-.154-.187-.567-.238-.761a1.073,1.073,0,0,1,.785-.381Zm-6.922,2.973a.659.659,0,0,1,.642.262.838.838,0,0,1-.19,1.142c-.4.409-1.159.457-1.308.047a2.356,2.356,0,0,1,.024-.975,1.405,1.405,0,0,1,.833-.476Zm-5.994,1.5a2.305,2.305,0,0,1-.024.4c-.008.028-.143.009-.214.024.008-.124.016-.233.024-.357.071-.022.143-.049.214-.072Zm-3.425.761c.263.026.537.043.832.072-.038.2-.037.563-.1.571a5.014,5.014,0,0,1-.928-.047c.048-.15.1-.3.19-.595Zm-17.7.618h.024c.205.088.5.158.571.309a.658.658,0,0,1-.143.619c-.133.115-.428.054-.856.072.175-.424.289-.72.4-1Zm9.253.238a.244.244,0,0,1,.143.047,6.026,6.026,0,0,1,.761.975l.166-.238c-.045.08-.1.159-.143.238h-.024a5.832,5.832,0,0,1-1.189-.143c-.165-.049-.255-.364-.357-.571a.212.212,0,0,1,.1-.19,2.811,2.811,0,0,1,.547-.119Zm-5.566.452c.238.055.478.115.714.167.041.008.066.122.1.19-.074.151-.141.411-.238.428s-.206.03-.309.047c-.4-.247-.442-.482-.262-.833Zm-1.641.072a1.136,1.136,0,0,1-.047.856c-.13-.13-.244-.329-.214-.4a2.489,2.489,0,0,1,.262-.452Zm4.329.357.19.1-.143.1-.047-.19Z" transform="translate(9423.335 984.246)"/></svg>